<?xml version="1.0" encoding="UTF-8"?>
<svg id="Layer_1" data-name="Layer 1" xmlns="http://www.w3.org/2000/svg" viewBox="0 0 512 512">
  <defs>
    <style>
      .cls-1 {
        fill: #fff;
      }
    </style>
  </defs>
  <g id="Group_39" data-name="Group 39">
    <path id="Path_38" data-name="Path 38" class="cls-1" d="M290.58,238.47l-75.26,39.07c-3.17,1.43-5.03,4.77-4.58,8.22.67,7.02,4.51,13.35,10.43,17.18.95.29,1.94.46,2.93.52-14.37,6.98-26.57,17.73-35.29,31.12l-64.88-36.97-.13-.08c-4.04-1.95-8.8-1.7-12.62.65l-1.37.83-.85,113.23.47.73c2.58,4.63,8.42,6.29,13.05,3.71.07-.04.15-.08.22-.13l.33-.21c2.07-1.46,8.53-5,15.34-8.74,25.78-14.14,32.32-18.37,33.33-21.58,1.02-3.14.23-6.58-2.04-8.98-2.41-2.5-5.97-3.52-9.34-2.65l-.4.09-33.03,19.19v-73.24l54.42,31.82c-.87,17.39,5.99,34.27,18.73,46.13,23.85,23.13,66.05,32.67,100.85,32.67,5.51,0,10.83-.24,15.87-.7,34.67-3.18,82.27-30.58,99.85-57.47,7.04-7.34,7.37-18.82.75-26.54-17.29-28.29-58.92-46.59-72.39-51.92l-48.02-55.73-6.35-.24ZM249.76,312.96c15.9-5,32.47-7.55,49.14-7.58,7.78-.01,15.54.59,23.22,1.82-.71,1.04-1.53,2.18-2.09,2.98-.95,1.24-1.82,2.54-2.61,3.9-10.36,22.77-10.78,48.82-1.17,71.92l.08.18c2.14,4.9,5.37,12.32,14.22,10.29,2.2-.38,4.09-1.79,5.08-3.79,2.06-4.38-.95-10.26-3.32-14.98-.54-.99-1.02-2.02-1.45-3.06-5.91-17.23-5.62-43.6,6.52-58.42,3.63-4.45,4.05-4.25,9.04-1.9,1.02.48,2.18,1.04,3.51,1.6,18.98,8.4,36,20.66,49.96,36.02l1.12,1.37c2.84,3.47,3.71,4.74,2.37,7.58-8.17,17.42-45.76,39.4-63.51,45.58-33.93,10.49-70.5,8.4-103.01-5.88-25.17-11.25-38.52-26.28-37.59-42.31,1.05-18.18,20.85-35.95,50.43-45.24M231.42,289.34l58.7-30.57c7.43,7.69,14.44,15.79,21,24.24,1.44,1.77,2.77,3.4,3.94,4.83-22.82-1.47-45.73.79-67.82,6.7-5.73,1.63-11.35,3.63-16.83,5.99,1.73-3.47,2.09-7.47,1.01-11.19"/>
    <path id="Path_39" data-name="Path 39" class="cls-1" d="M96.62,128.51c2.4,1.77,5.18,2.94,8.12,3.44.42.09.95.22,1.33.33.24.88.55,2.42.82,3.71.62,3.79,1.67,7.49,3.12,11.04,2.01,3.41,4.72,6.36,7.95,8.65.99.73,1.91,1.55,2.75,2.46,1.13,3.44,1.94,6.97,2.43,10.56.56,3.66,1.35,7.28,2.36,10.84,13.88,42.66,45.12,69.2,81.57,69.15h0c36.02,0,66.81-26.18,80.46-68.25.98-3.4,1.78-6.86,2.38-10.35.59-3.95,1.56-7.84,2.92-11.6.91-1.19,1.97-2.24,3.16-3.15,3.21-2.45,5.86-5.55,7.77-9.1,1.22-3.26,2.11-6.62,2.66-10.06.27-1.31.61-3,.84-3.92.35-.08.82-.16,1.2-.23,5.28-.41,9.88-3.76,11.89-8.65,4.33-10.16-1.9-16.62-7.37-22.31-.75-.78-1.5-1.55-2.24-2.35-.95-1.06-2.6-2.53-4.47-4.23-3.45-2.84-6.53-6.1-9.18-9.71-.05-1.17.07-2.35.35-3.49.42-1.96.61-3.97.55-5.97-2.18-18.22-6.62-36.1-13.22-53.22-4.5-8.89-13.46-14.66-23.41-15.06h-.48c-17.46.93-34.95.87-52.4-.18-19.19-1.23-38.44-1.15-57.61.25-18.96,1.9-25.24,17.17-29.19,33.38-4.16,14.37-6.02,29.31-5.54,44.26-2.55,2.97-5.32,5.76-8.28,8.32-8.08,7.45-17.23,15.9-17.01,24.84.24,4.22,2.35,8.11,5.75,10.61M289.58,132.04c-.19,1.96-.79,3.85-1.76,5.56-1.19,2.21-2.89,4.11-4.97,5.52-2.76,1.92-4.97,4.54-6.41,7.58-1.26,3.31-2.12,6.76-2.57,10.28-.34,2.34-.82,4.66-1.45,6.94-11.83,39.08-36.97,63.37-65.73,63.37s-53.93-24.28-65.76-63.37c-.6-2.2-1.07-4.44-1.41-6.69-.43-5.31-2.23-10.42-5.22-14.83-1.22-1.41-2.63-2.63-4.2-3.64-1.79-1.03-3.25-2.56-4.2-4.39-.87-2.03-1.5-4.14-1.9-6.31l165.57-.02ZM136.48,92.94c4.52-.58,8.64-2.9,11.48-6.46,1.15-2.18,1.34-4.73.54-7.06-.66-2.76-2.7-4.98-5.4-5.86-3.31-.8-6.8-.33-9.78,1.32,1.41-5.63,2.53-11.32,3.35-17.06.97-8.32,2.96-16.5,5.92-24.33,2.58-5.87,4.02-7.41,9.93-7.95,18.62-1.22,37.3-1.27,55.93-.14,17.62,1,35.29,1.05,52.91.15,1.42-.07,2.83.29,4.04,1.04,6.25,3.23,9.31,22.02,11.37,34.45.69,5,1.66,9.96,2.92,14.84-.76.55-1.6.99-2.48,1.31-2.8,1.18-8,3.4-6.27,9.93.91,3.74,4.16,6.44,8,6.64.94.12,1.85.39,2.71.78,1.72,1.18,15.9,15.43,20.14,20.17H111.62c4.25-4.74,18.41-18.96,20.07-20.11,1.54-.7,3.14-1.25,4.79-1.62"/>
    <path id="Path_40" data-name="Path 40" class="cls-1" d="M505.73,445.63c-1.51-3.46-5.03-5.61-8.8-5.37-3.63.87-7.07,2.38-10.16,4.46-2.35,1.27-4.79,2.59-6.06,3.07-21.24,8.16-32.57,5.36-53.35-2.98-.76-.36-1.47-.81-2.13-1.33-2.32-2.08-5.44-3.04-8.53-2.64h-.19c-3.89,1.12-7.64,2.65-11.21,4.55-2.79,1.45-5.67,2.72-8.63,3.79-11.19,4.05-23.35,4.63-34.87,1.66-4.36-1.46-8.59-3.26-12.66-5.39-3.61-2.09-7.5-3.65-11.55-4.64-2.95-.23-5.87.71-8.12,2.63-.68.55-1.43,1.01-2.23,1.37-20.6,8.6-32.72,10.91-54.52,2.95-1.9-.79-3.76-1.69-5.55-2.69-3.25-2.06-6.86-3.5-10.65-4.24-3.21-.12-6.36.95-8.83,3.01-.92.7-1.91,1.29-2.96,1.77-16.46,8.55-35.88,9.33-52.98,2.14-1.77-.76-3.49-1.62-5.16-2.58-3.37-2.24-7.19-3.72-11.19-4.35-4.18.68-8.17,2.22-11.71,4.54-15.19,8.42-33.33,9.71-49.56,3.53-2.37-.98-4.69-2.1-6.93-3.35-3.53-2.27-7.43-3.87-11.54-4.74-4.93.64-9.67,2.31-13.92,4.88-2.54,1.31-5.16,2.47-7.85,3.46-10.48,3.77-21.84,4.35-32.65,1.67-4.43-1.35-8.74-3.04-12.9-5.06-4.29-2.3-8.89-3.97-13.66-4.94-3.86-.59-7.6,1.64-8.92,5.32-1.04,4.85,1.26,9.8,5.63,12.14,25.4,15.58,57.22,16.28,83.28,1.83,25.08,14,55.61,14.05,80.73.13,25.12,14,55.71,13.94,80.77-.16,24.84,13.99,55.17,14.06,80.08.18,25.21,13.83,55.75,13.73,80.87-.27,12.36,6.5,25.96,10.28,39.9,11.08h2c9.69-.37,37.58-7.82,44.55-14.91,2.81-2.74,3.65-6.92,2.1-10.53"/>
    <path id="Path_41" data-name="Path 41" class="cls-1" d="M376.63,114.09c-15.01,3.58-25.1,17.64-23.7,33-.04,14.28,9.88,26.65,23.82,29.72.6,11.49.18,23.65-.22,35.42-.74,13.82-.69,27.68.16,41.5.85,25.83,22.24,46.22,48.08,45.83h.43c25.51.46,46.89-19.16,48.64-44.61.82-11.61.94-23.27.34-34.89-.11-4.04-.23-7.92-.28-11.62l.18.2c2.75,3.99,6.75,6.95,11.38,8.39,2.89.37,5.78-.64,7.82-2.72,1.88-1.92,2.74-4.62,2.32-7.27-.95-6.09-24.55-26.54-28.44-29.16l-.61-.41-.73-.07c-1.32-.12-3.15-.29-17,12.83-5.31,4.5-10.03,9.65-14.06,15.33-.69,2.91,0,5.97,1.9,8.29,1.64,2.21,4.24,3.51,7,3.48,4.17-.71,7.85-3.15,10.12-6.72.51-.6,1.03-1.2,1.55-1.77v49.18c-1.13,3.43-2.58,6.74-4.34,9.9-7.09,10.64-20.02,15.78-32.48,12.92-12.05-2.37-21.35-11.97-23.34-24.09l-.07-79.7c17.27-5.52,26.8-23.99,21.28-41.26-5.34-16.71-22.86-26.27-39.8-21.71M395.97,135.17c3.83,3.46,5.34,8.81,3.9,13.76-2.06,5.75-6.96,10.02-12.93,11.29-4.79,1.09-9.79-.63-12.9-4.43-5.37-6.05-4.83-15.3,1.22-20.68.17-.15.35-.3.52-.44,2.76-2.59,6.37-4.07,10.14-4.16,3.86.07,7.5,1.76,10.05,4.65"/>
    <path id="Path_42" data-name="Path 42" class="cls-1" d="M38.85,413.15v.17c-.09,3.55,2.22,6.72,5.63,7.73.83.25,1.7.37,2.57.37,3.4-.02,6.57-1.69,8.53-4.46l.46-.67v-.82c.53-9.94.35-20.1.17-29.91-.6-14.15-.16-28.32,1.32-42.4,5.97-45.39,32.46-75.77,72.67-83.36,1.97-.37,6.1-.68,10.08-.95,5.39.21,10.77-.61,15.85-2.42,2.34-1.77,3.71-4.54,3.7-7.48.12-2.4-.81-4.73-2.53-6.4-4.08-2.65-9.04-3.59-13.81-2.62l-1.44.09c-45,2.25-83.72,32.58-96.69,75.73-5.97,23.01-8.19,46.84-6.57,70.55.14,8.79.28,17.87,0,26.87"/>
    <path id="Path_43" data-name="Path 43" class="cls-1" d="M127.28,486.46c-1.77-.12-3.53-.34-5.27-.66-3.97-1.17-7.84-2.67-11.56-4.49-5.64-3.36-12.06-5.21-18.63-5.36-3.69,1.04-7.24,2.53-10.57,4.42-3.67,2.03-7.54,3.68-11.55,4.94-2.67.57-5.37.98-8.09,1.24-3.88.15-7.7.95-11.31,2.36-3.16,1.74-4.94,5.23-4.5,8.81.39,3.61,2.91,6.63,6.38,7.67,1.61.44,3.27.64,4.93.62,13.1-1.59,25.83-5.42,37.64-11.32,2.19.82,4.33,1.81,6.58,2.84,2.99,1.46,6.07,2.72,9.22,3.79,14.38,4.55,24.26,5.48,29.39,2.75,1.91-.97,3.33-2.69,3.92-4.74.88-2.45.57-5.17-.83-7.37-2.93-4.31-9.74-4.95-15.74-5.51"/>
    <path id="Path_44" data-name="Path 44" class="cls-1" d="M460.28,488.32c-3.25-1.03-6.63-1.63-10.04-1.79-2.79-.21-5.57-.61-8.3-1.2-3.79-1.28-7.48-2.83-11.04-4.64-4.22-2.43-8.82-4.15-13.6-5.08h-.09c-4.82.8-9.43,2.53-13.59,5.09-2.51,1.33-5.11,2.51-7.76,3.52-3.06.79-6.15,1.4-9.28,1.84-10.62,1.76-15.46,2.84-17.3,5.38-1.48,2.24-1.91,5-1.18,7.58.57,2.52,2.21,4.66,4.5,5.85,1.91.8,3.98,1.18,6.05,1.1,13.29-1.63,26.23-5.42,38.3-11.22,8.39,4.17,39.52,15.78,46.6,8.71,2.08-2.16,2.93-5.22,2.28-8.15-.57-3.11-2.65-5.73-5.55-6.99"/>
    <path id="Path_45" data-name="Path 45" class="cls-1" d="M294.12,486.04c-1.18.11-2.36.09-3.54-.05-8.38-1.73-16.52-4.46-24.26-8.11-3.18-1.36-6.46-2.75-9.87-4.05l-1.17-.45-1.12.54-3.11,1.52c-6.87,3.67-14.11,6.59-21.6,8.72-1.79.36-3.6.62-5.41.79-7.42.84-16.65,1.9-17.38,8.97-.47,2.87.64,5.77,2.91,7.58,6.54,5.17,22.53,1.14,34.8-3.16,1.89-.75,3.72-1.66,5.47-2.7,1.75-1.09,3.62-1.97,5.57-2.64,3.58,1.14,7.09,2.47,10.52,3.99,3.73,1.65,7.55,3.1,11.44,4.33l.59.15c5.05,1.44,10.25,2.28,15.49,2.51,3.31.27,6.6-.75,9.18-2.84,2.19-2.23,2.99-5.46,2.1-8.46-1.46-7.14-7.19-6.83-10.62-6.64"/>
    <path id="Path_46" data-name="Path 46" class="cls-1" d="M357.23,99.77h.09c3.92,0,8.21-3.14,9.02-10.19,1.49-21.02,1.49-42.13,0-63.15,0-3.59-1.49-7.02-4.1-9.48-1.86-1.41-4.24-1.97-6.53-1.53-2.58.39-7.02,2.19-7.92,9.83-1.51,21.02-1.51,42.13,0,63.15.7,7.75,5.38,11.37,9.48,11.37"/>
    <path id="Path_47" data-name="Path 47" class="cls-1" d="M391.37,48.33c-2.6-2.14-6.25-2.46-9.18-.8-3.16,1.94-5.17,5.3-5.39,9-1.17,4.85-.37,9.96,2.22,14.22,2.33,1.69,5.16,2.54,8.04,2.4.57,0,1.14-.04,1.71-.12,3.28-.9,5.72-3.66,6.2-7.02,1.93-6.12.57-12.8-3.59-17.68"/>
    <path id="Path_48" data-name="Path 48" class="cls-1" d="M381.31,32.84c1.29.84,2.8,1.29,4.34,1.28,2.45-.1,4.82-.91,6.83-2.32l.62-.39.35-.64c3.09-6.59,2.74-14.29-.95-20.57-2.17-2.86-5.93-4-9.33-2.84-3.34.95-5.69,4.53-6.54,9.87-1.37,5.68.44,11.67,4.74,15.63"/>
    <path id="Path_49" data-name="Path 49" class="cls-1" d="M383.94,112.1c.93.24,1.88.36,2.84.36,2.31.06,4.55-.8,6.23-2.38,2.57-4.23,3.38-9.31,2.24-14.13-.27-3.69-2.25-7.04-5.36-9.06-2.92-1.73-6.61-1.46-9.23.69-4.12,5.19-5.43,12.06-3.52,18.4,1.03,3.11,3.64,5.44,6.84,6.12"/>
    <path id="Path_50" data-name="Path 50" class="cls-1" d="M355.12,362.46c1.86,1.18,4.02,1.82,6.23,1.82,3.1-.08,6.1-1.16,8.53-3.09,5.06-3.69,6.81-10.43,4.19-16.11-2.43-5.88-8.67-9.23-14.91-8.01-5.35.65-9.68,4.67-10.72,9.96-1.01,6.01,1.62,12.06,6.71,15.41"/>
    <path id="Path_51" data-name="Path 51" class="cls-1" d="M206.1,90.7c2.33.83,4.8,1.22,7.27,1.15,5.27,0,11.33-1.42,13.27-5.39,1.83-2.97,1.58-6.77-.62-9.48-5.27-4.22-12.28-5.58-18.74-3.63-4.91,1.64-7.57,6.95-5.93,11.86.79,2.38,2.51,4.34,4.76,5.45"/>
    <path id="Path_52" data-name="Path 52" class="cls-1" d="M170.38,91.43c1.43.23,2.87.35,4.31.34,4.24.31,8.43-1.11,11.59-3.95,2.01-2.31,2.6-5.53,1.55-8.4-2.21-7.58-13.11-7.28-18.56-6.08h0c-4.49.66-7.83,4.48-7.88,9.01.36,4.82,4.17,8.67,9,9.07"/>
    <path id="Path_53" data-name="Path 53" class="cls-1" d="M247.23,90.86c2.1.65,4.28.97,6.47.95,4.76.5,9.42-1.55,12.27-5.39,1.73-2.85,1.55-6.46-.46-9.13-4.85-4.14-11.42-5.62-17.57-3.97-3.79.7-6.82,3.57-7.71,7.32-.82,4.74,2.29,9.27,7.01,10.2"/>
    <path id="Path_54" data-name="Path 54" class="cls-1" d="M182.93,193.69c-2.33.73-4.15,2.57-4.85,4.91-1.02,3.12-.55,6.55,1.29,9.27,5.89,4.67,12.75,7.97,20.08,9.65,2.01.26,4.04.38,6.08.38,9.66.39,19.14-2.66,26.77-8.61,2.87-2.69,4.03-6.73,3.02-10.52-.84-2.88-3.29-4.99-6.27-5.39-3.86-.07-7.66,1.01-10.91,3.1-3.83,2.24-8.12,3.58-12.55,3.91-3.51-.46-6.87-1.68-9.87-3.55-3.7-2.65-8.28-3.78-12.79-3.14"/>
    <path id="Path_55" data-name="Path 55" class="cls-1" d="M175.73,158.02c4.71.24,9.4-.8,13.56-3.01,3.75-2.28,4.93-7.17,2.64-10.92,0-.01-.01-.02-.02-.03-3.66-7.49-24.07-5.25-26.15-4.74-3.31.72-6.01,3.11-7.12,6.31-.95,2.98-.22,6.24,1.9,8.53,4.47,2.97,9.82,4.34,15.17,3.88"/>
    <path id="Path_56" data-name="Path 56" class="cls-1" d="M237.82,158c3.25.02,6.5-.26,9.7-.83,2.6-.4,4.85-2.04,6.02-4.4,1.21-3.6.77-7.54-1.19-10.79l-.54-1.04-1.11-.38c-4.85-1.64-25.39-4.45-29.28,3.5-1.75,2.81-1.6,6.4.38,9.05,4.44,3.76,10.24,5.53,16.03,4.88"/>
  </g>
</svg>