<?xml version="1.0" encoding="UTF-8"?>
<svg id="Layer_1" data-name="Layer 1" xmlns="http://www.w3.org/2000/svg" xmlns:xlink="http://www.w3.org/1999/xlink" viewBox="0 0 512 512">
  <defs>
    <style>
      .cls-1 {
        fill: none;
      }

      .cls-2 {
        fill: #464646;
      }

      .cls-3 {
        clip-path: url(#clippath);
      }
    </style>
    <clipPath id="clippath">
      <rect class="cls-1" x="66.58" y="6" width="378.83" height="500"/>
    </clipPath>
  </defs>
  <g class="cls-3">
    <g id="Group_149" data-name="Group 149">
      <path id="Path_204" data-name="Path 204" class="cls-2" d="M377.61,329.85h-51.93c-6.14-1.36-11.33-5.41-14.15-11.03,1.32-51.08-3.68-104.96-.66-155.86,6.49-63.7,44.35-119.95,100.92-149.95,13.49-7.79,25.1-11.8,33.08,4.19l.4,462.85c-5,37.56-67.81,32.52-67.81-3.23l.15-146.97Z"/>
      <path id="Path_205" data-name="Path 205" class="cls-2" d="M99.88,123.24h33.33V21.03c1.5-9.75,10.62-16.43,20.37-14.93,1.8.28,3.54.83,5.17,1.63,3.76,2.57,6.86,5.98,9.08,9.96v105.55h33.33V17.69c1.35-3.15,3.4-5.95,5.99-8.2,7.71-5.88,18.74-4.4,24.62,3.32,1.14,1.5,2.04,3.17,2.65,4.95-3.23,49.65,4.56,103.86,0,152.96-2.86,20.23-18.26,36.4-38.33,40.24-29.95,3.11-60.15,3.19-90.11.22-20.82-3.77-36.78-20.64-39.4-41.64l.29-151.6c3.07-9.27,13.08-14.29,22.34-11.21,1.49.5,2.92,1.19,4.23,2.06,2.66,2.12,4.85,4.78,6.43,7.79v106.65Z"/>
      <path id="Path_206" data-name="Path 206" class="cls-2" d="M184.52,241.61v239.47c-1.63,4.68-3.85,9.12-6.62,13.23-17.71,22.45-61.34,9.7-61.34-15.44v-237.3l67.95.04Z"/>
    </g>
  </g>
</svg>