<?xml version="1.0" encoding="UTF-8"?>
<svg version="1.1" xmlns="http://www.w3.org/2000/svg" width="209" height="228">
<path d="M0 0 C68.97 0 137.94 0 209 0 C209 75.24 209 150.48 209 228 C140.03 228 71.06 228 0 228 C0 152.76 0 77.52 0 0 Z " fill="#FEFEFE" transform="translate(0,0)"/>
<path d="M0 0 C2.97451592 2.85500412 5.48740656 5.86053201 8 9.125 C23.16725208 27.66548834 45.86405219 38.14336802 68 46 C68.32793181 63.93871062 68.35013864 81.29212432 65 99 C66.2478125 99.14308594 67.495625 99.28617187 68.78125 99.43359375 C72.38609022 99.84695869 75.59139611 100.72177354 79 102 C78.38475468 109.06677613 76.61247714 115.55339195 74.5 122.3125 C74.04753906 123.93768555 74.04753906 123.93768555 73.5859375 125.59570312 C71.1730973 133.23794698 71.1730973 133.23794698 67.9152832 135.35424805 C65.59982416 136.1501341 63.41846899 136.63608156 61 137 C59.44345703 137.36158203 59.44345703 137.36158203 57.85546875 137.73046875 C56.97503906 137.88128906 56.09460938 138.03210938 55.1875 138.1875 C54.29417969 138.34605469 53.40085938 138.50460938 52.48046875 138.66796875 C50 139 50 139 46 139 C45.71640625 139.59554687 45.4328125 140.19109375 45.140625 140.8046875 C38.16286707 154.23448188 21.45880965 162.2170263 7.87890625 167.12890625 C-3.07200508 170.44241131 -12.94081048 165.20277121 -22.625 160.25 C-29.08627538 156.57668018 -36.05207583 152.02768428 -40.48706055 145.96826172 C-43.72007351 141.56125965 -43.72007351 141.56125965 -48.55224609 139.37255859 C-50.46318817 139.2414448 -52.37573047 139.13220782 -54.2890625 139.04248047 C-59.73690006 138.74070265 -64.40894964 138.09774092 -69 135 C-74.68845394 126.43017056 -77.52791398 115.10014572 -79 105 C-78.67 104.01 -78.34 103.02 -78 102 C-75.85546875 101.05078125 -75.85546875 101.05078125 -73.1875 100.3125 C-72.31480469 100.06113281 -71.44210938 99.80976563 -70.54296875 99.55078125 C-68 99 -68 99 -64 99 C-64.2165625 97.77152344 -64.433125 96.54304688 -64.65625 95.27734375 C-67.33467207 78.79303254 -67.31741552 62.64559552 -67 46 C-66.42781738 45.77973145 -65.85563477 45.55946289 -65.26611328 45.33251953 C-47.92427672 38.59866605 -31.07406877 31.44305519 -17 19 C-16.32066406 18.46246094 -15.64132813 17.92492187 -14.94140625 17.37109375 C-8.851256 12.44436401 -4.50253724 6.34732681 0 0 Z " fill="#298745" transform="translate(107,35)"/>
<path d="M0 0 C5.86750085 -0.04999181 11.73487368 -0.08599546 17.60253906 -0.10986328 C19.59246993 -0.11982901 21.58238651 -0.13340648 23.57226562 -0.15087891 C34.91156116 -0.24784471 45.82008338 -0.1275662 57 2 C56.01 2.33 55.02 2.66 54 3 C53.32843384 4.93618425 53.32843384 4.93618425 53 7 C52.67 7.66 52.34 8.32 52 9 C52.99 9.33 53.98 9.66 55 10 C54.88556397 12.0839403 54.75804453 14.16716493 54.625 16.25 C54.55539063 17.41015625 54.48578125 18.5703125 54.4140625 19.765625 C54.03751692 22.70694334 53.5225877 24.49949011 52 27 C51.67 26.67 51.34 26.34 51 26 C51.06438632 23.6850193 51.20150433 21.37186799 51.375 19.0625 C51.46523437 17.79535156 51.55546875 16.52820313 51.6484375 15.22265625 C52 12 52 12 53 10 C51.68 9.67 50.36 9.34 49 9 C48.01 11.97 47.02 14.94 46 18 C45.67 18 45.34 18 45 18 C45 15.03 45 12.06 45 9 C43.68 8.67 42.36 8.34 41 8 C40.67 13.28 40.34 18.56 40 24 C40.66 24.33 41.32 24.66 42 25 C42 23.35 42 21.7 42 20 C44 22 44 22 44 25 C44.66 25 45.32 25 46 25 C46.33 23.35 46.66 21.7 47 20 C47.33 20 47.66 20 48 20 C48.1875 22.875 48.1875 22.875 48 26 C45 28 45 28 42.9375 27.625 C42.298125 27.41875 41.65875 27.2125 41 27 C40.34 27 39.68 27 39 27 C38.505 25.02 38.505 25.02 38 23 C37.34 23 36.68 23 36 23 C34.58435166 20.16870331 34.75775505 18.14918438 35 15 C36.5 11.625 36.5 11.625 38 9 C37.01 8.505 37.01 8.505 36 8 C35.34 9.65 34.68 11.3 34 13 C32 9.25 32 9.25 32 7 C31.01 7 30.02 7 29 7 C28.67 8.65 28.34 10.3 28 12 C27.67 12 27.34 12 27 12 C27 10.35 27 8.7 27 7 C25.68 7 24.36 7 23 7 C22.01 12.28 21.02 17.56 20 23 C20.99 22.01 21.98 21.02 23 20 C23.99 20 24.98 20 26 20 C26 20.99 26 21.98 26 23 C26.66 23 27.32 23 28 23 C28.33 22.34 28.66 21.68 29 21 C30.125 24.3125 30.125 24.3125 31 28 C29 31 29 31 26 32 C32.27 32.66 38.54 33.32 45 34 C40.64467851 36.17766075 39.53374042 36.03039555 35 35 C35 35.66 35 36.32 35 37 C33.02 36.67 31.04 36.34 29 36 C29 35.34 29 34.68 29 34 C28.05125 34.495 27.1025 34.99 26.125 35.5 C21.48412567 37.52978692 16.97609428 37.27033108 12 37 C12 36.01 12 35.02 12 34 C11.34 34 10.68 34 10 34 C10 34.99 10 35.98 10 37 C7.03 36.505 7.03 36.505 4 36 C4 35.34 4 34.68 4 34 C1.525 34.495 1.525 34.495 -1 35 C-0.67 36.65 -0.34 38.3 0 40 C-0.99 40 -1.98 40 -3 40 C-3 41.65 -3 43.3 -3 45 C-2.34 45 -1.68 45 -1 45 C-1 46.32 -1 47.64 -1 49 C-2.32 48.67 -3.64 48.34 -5 48 C-4.67 47.34 -4.34 46.68 -4 46 C-5.65 45.67 -7.3 45.34 -9 45 C-9.33 43.68 -9.66 42.36 -10 41 C-12.0745356 40.8509288 -12.0745356 40.8509288 -14 42 C-13.67 42.99 -13.34 43.98 -13 45 C-11.35 45.33 -9.7 45.66 -8 46 C-8.33 46.99 -8.66 47.98 -9 49 C-8.030625 49.268125 -7.06125 49.53625 -6.0625 49.8125 C-5.051875 50.204375 -4.04125 50.59625 -3 51 C-2.67 51.99 -2.34 52.98 -2 54 C-0.68 54 0.64 54 2 54 C2.33 52.02 2.66 50.04 3 48 C3.99 48.33 4.98 48.66 6 49 C6.33 49.99 6.66 50.98 7 52 C7.33 52.66 7.66 53.32 8 54 C8.99 54.33 9.98 54.66 11 55 C10.34 55 9.68 55 9 55 C9.66 55.99 10.32 56.98 11 58 C11 59.32 11 60.64 11 62 C11.78375 61.814375 12.5675 61.62875 13.375 61.4375 C16 61 16 61 18 62 C18.144375 61.21625 18.28875 60.4325 18.4375 59.625 C19 57 19 57 20 55 C19.01 54.505 19.01 54.505 18 54 C18.99 54 19.98 54 21 54 C21.103125 53.360625 21.20625 52.72125 21.3125 52.0625 C21.539375 51.381875 21.76625 50.70125 22 50 C22.99 49.67 23.98 49.34 25 49 C27 51 27 51 27 54 C28.65 54 30.3 54 32 54 C32.86358623 52.21858253 32.86358623 52.21858253 33 50 C31.14567913 47.72855926 31.14567913 47.72855926 29 46 C30.98 45.505 30.98 45.505 33 45 C32.67 45.99 32.34 46.98 32 48 C33.60414215 46.81476003 33.60414215 46.81476003 35 45 C35.25069913 42.37429296 35.25069913 42.37429296 35 40 C36.32 39.67 37.64 39.34 39 39 C38.01 39.495 38.01 39.495 37 40 C37.99 41.98 37.99 41.98 39 44 C39.99 44 40.98 44 42 44 C42.33 43.01 42.66 42.02 43 41 C45.31939207 40.2863409 47.65523449 39.6252708 50 39 C51.67334039 38.01120795 53.34151823 37.01351664 55 36 C58 36 58 36 60 37 C54.92346171 51.40916423 41.10581777 60.55196659 28 67 C21.55128008 69.93479365 15.83769171 72.00791547 8.828125 70.0859375 C-8.14793712 63.56750481 -23.51327104 53.61984421 -32 37 C-29.8131784 36.51774669 -27.62550745 36.03934417 -25.4375 35.5625 C-24.21933594 35.29566406 -23.00117187 35.02882812 -21.74609375 34.75390625 C-15.38911362 33.47455571 -9.45753504 32.88670991 -3 33 C-4.32 32.67 -5.64 32.34 -7 32 C-7 29.36 -7 26.72 -7 24 C-6.01 24 -5.02 24 -4 24 C-4.33773437 23.44828125 -4.67546875 22.8965625 -5.0234375 22.328125 C-6.21101261 19.49694595 -6.02275703 17.77295344 -5.625 14.75 C-5.51414062 13.85796875 -5.40328125 12.9659375 -5.2890625 12.046875 C-5.19367188 11.37140625 -5.09828125 10.6959375 -5 10 C-2.41073669 12.58926331 -2.62601957 14.02705279 -2.375 17.625 C-2.30023438 18.62789062 -2.22546875 19.63078125 -2.1484375 20.6640625 C-2.07496094 21.82035156 -2.07496094 21.82035156 -2 23 C0.31 23 2.62 23 5 23 C5 22.34 5 21.68 5 21 C3.35 21 1.7 21 0 21 C0 19.35 0 17.7 0 16 C1.32 16 2.64 16 4 16 C4 15.34 4 14.68 4 14 C2.68 14 1.36 14 0 14 C0 12.68 0 11.36 0 10 C1.32 10 2.64 10 4 10 C4 9.01 4 8.02 4 7 C1.69 7 -0.62 7 -3 7 C-3 6.67 -3 6.34 -3 6 C-1.35 5.67 0.3 5.34 2 5 C2.33 4.01 2.66 3.02 3 2 C2.01 1.34 1.02 0.68 0 0 Z " fill="#259845" transform="translate(93,127)"/>
<path d="M0 0 C2.97451592 2.85500412 5.48740656 5.86053201 8 9.125 C23.16725208 27.66548834 45.86405219 38.14336802 68 46 C68.32793181 63.93871062 68.35013864 81.29212432 65 99 C65.66 99.33 66.32 99.66 67 100 C63.88200997 99.24964259 60.81929597 98.36636589 57.75 97.4375 C56.85796875 97.16808594 55.9659375 96.89867187 55.046875 96.62109375 C54.37140625 96.41613281 53.6959375 96.21117187 53 96 C53.99 95.67 54.98 95.34 56 95 C56.13277344 93.86820312 56.26554687 92.73640625 56.40234375 91.5703125 C56.5805342 90.08851821 56.75893029 88.60674864 56.9375 87.125 C57.02451172 86.37863281 57.11152344 85.63226563 57.20117188 84.86328125 C57.88671875 79.2265625 57.88671875 79.2265625 59 77 C58.34 76.67 57.68 76.34 57 76 C57.20625 75.21625 57.4125 74.4325 57.625 73.625 C57.97465626 70.24498948 57.74254261 68.30493608 57 65.0625 C55.9933163 60.62638048 56.03772618 57.42645959 57 53 C56.01 53 55.02 53 54 53 C54 52.01 54 51.02 54 50 C53.0925 50.20625 52.185 50.4125 51.25 50.625 C47.88972103 51.0127245 46.75924185 50.80411967 44 49 C44 48.01 44 47.02 44 46 C43.34 46 42.68 46 42 46 C42 45.34 42 44.68 42 44 C41.319375 43.896875 40.63875 43.79375 39.9375 43.6875 C37.50217401 43.11753009 35.57562836 42.44123057 33.3125 41.4375 C30.2960457 39.86730229 30.2960457 39.86730229 28 40 C27.67 39.34 27.34 38.68 27 38 C25.05396726 37.40929986 25.05396726 37.40929986 23 37 C22.34 36.67 21.68 36.34 21 36 C20.375 33.4375 20.375 33.4375 20 31 C19.39671875 30.86722656 18.7934375 30.73445313 18.171875 30.59765625 C17.37265625 30.42105469 16.5734375 30.24445313 15.75 30.0625 C14.56664063 29.80146484 14.56664063 29.80146484 13.359375 29.53515625 C11.8905923 29.20200521 10.42583201 28.84983299 8.96875 28.46875 C6.89680523 27.97542982 4.86478666 27.68422511 2.75 27.4375 C1.5125 27.293125 0.275 27.14875 -1 27 C-0.835 26.071875 -0.67 25.14375 -0.5 24.1875 C0.07748388 21.04378647 0.07748388 21.04378647 0 18 C-3.37088267 20.27415287 -3.37088267 20.27415287 -5 24 C-5.66 24.28875 -6.32 24.5775 -7 24.875 C-9.29150599 25.8553382 -9.29150599 25.8553382 -9.75 28.625 C-9.8325 29.40875 -9.915 30.1925 -10 31 C-10.99 31 -11.98 31 -13 31 C-13.33 31.66 -13.66 32.32 -14 33 C-15.99541868 33.68025637 -17.99617991 34.34490497 -20 35 C-20.845625 35.515625 -21.69125 36.03125 -22.5625 36.5625 C-25.13380445 38.07891032 -27.08450359 38.48978813 -30 39 C-31.6792238 39.63437344 -33.35008418 40.29289322 -35 41 C-35 41.66 -35 42.32 -35 43 C-36.175625 43.0928125 -36.175625 43.0928125 -37.375 43.1875 C-38.24125 43.455625 -39.1075 43.72375 -40 44 C-41.37466625 46.47636012 -41.37466625 46.47636012 -42 49 C-42.66 48.67 -43.32 48.34 -44 48 C-46.23601706 48.73288477 -48.44171775 49.55990615 -50.625 50.4375 C-51.81351563 50.91058594 -53.00203125 51.38367188 -54.2265625 51.87109375 C-55.14179687 52.24363281 -56.05703125 52.61617187 -57 53 C-57 53.66 -57 54.32 -57 55 C-56.34 55 -55.68 55 -55 55 C-55 55.99 -55 56.98 -55 58 C-55.66 58 -56.32 58 -57 58 C-56.835 58.598125 -56.67 59.19625 -56.5 59.8125 C-55.60842783 63.71312823 -56.35211139 67.11266833 -57 71 C-57 73.69787075 -56.67603227 75.61012698 -56 78.1875 C-55.67 79.445625 -55.34 80.70375 -55 82 C-54.34 82 -53.68 82 -53 82 C-53.350625 83.11375 -53.70125 84.2275 -54.0625 85.375 C-55.37239331 88.80264476 -55.37239331 88.80264476 -54 91 C-54.9375 93.125 -54.9375 93.125 -56 95 C-53.36 94.67 -50.72 94.34 -48 94 C-52.77105802 96.67179249 -57.53911054 98 -63 98 C-70.93422211 84.56516173 -67.18665684 61.14935595 -67 46 C-66.42781738 45.77973145 -65.85563477 45.55946289 -65.26611328 45.33251953 C-47.92427672 38.59866605 -31.07406877 31.44305519 -17 19 C-16.32066406 18.46246094 -15.64132813 17.92492187 -14.94140625 17.37109375 C-8.851256 12.44436401 -4.50253724 6.34732681 0 0 Z " fill="#34B347" transform="translate(107,35)"/>
<path d="M0 0 C0.66 0.33 1.32 0.66 2 1 C1.67 1.66 1.34 2.32 1 3 C2.32 3.33 3.64 3.66 5 4 C3.02 4.99 3.02 4.99 1 6 C1.33 6.66 1.66 7.32 2 8 C1.67 8.99 1.34 9.98 1 11 C2.32 11 3.64 11 5 11 C7.45489316 16.12325529 8.50341703 20.33895411 9 26 C11.31 26 13.62 26 16 26 C16 25.01 16 24.02 16 23 C14.35 23.33 12.7 23.66 11 24 C11 22.35 11 20.7 11 19 C11.61875 18.87625 12.2375 18.7525 12.875 18.625 C15.19120832 18.12802644 15.19120832 18.12802644 17 16 C17.66 18.31 18.32 20.62 19 23 C20.65 23 22.3 23 24 23 C24.33 21.35 24.66 19.7 25 18 C24.34 18 23.68 18 23 18 C23 19.32 23 20.64 23 22 C22.01 22 21.02 22 20 22 C19.34 18.37 18.68 14.74 18 11 C18.99 11 19.98 11 21 11 C21 11.66 21 12.32 21 13 C21.99 13 22.98 13 24 13 C23.505 10.525 23.505 10.525 23 8 C23.66 7.67 24.32 7.34 25 7 C25.20496094 7.99902344 25.40992188 8.99804688 25.62109375 10.02734375 C25.89050781 11.31769531 26.15992188 12.60804688 26.4375 13.9375 C26.70433594 15.22527344 26.97117188 16.51304687 27.24609375 17.83984375 C27.67181616 20.84638879 27.67181616 20.84638879 29 22 C30.258125 21.979375 31.51625 21.95875 32.8125 21.9375 C36.12003324 21.88424812 38.13478186 22.23678884 41 24 C41.66 24 42.32 24 43 24 C43 25.65 43 27.3 43 29 C44.32 28.67 45.64 28.34 47 28 C47 28.66 47 29.32 47 30 C46.22285645 30.11593506 45.44571289 30.23187012 44.64501953 30.35131836 C41.13780988 30.87653363 37.63140636 31.40694951 34.125 31.9375 C32.29001953 32.21110352 32.29001953 32.21110352 30.41796875 32.49023438 C29.25136719 32.66748047 28.08476563 32.84472656 26.8828125 33.02734375 C25.80402832 33.18968506 24.72524414 33.35202637 23.61376953 33.51928711 C21.02964208 33.86932434 21.02964208 33.86932434 19 35 C30.07040065 50.08568942 43.74690698 63.48468807 63 67 C74.50061575 67.33605695 88.33493234 58.40204597 96.74609375 51.21484375 C101.87647073 46.17338145 107.0299654 40.62070212 110 34 C111.98 34.33 113.96 34.66 116 35 C116 32.36 116 29.72 116 27 C116.639375 26.896875 117.27875 26.79375 117.9375 26.6875 C118.618125 26.460625 119.29875 26.23375 120 26 C120.33 25.01 120.66 24.02 121 23 C121.33 23.99 121.66 24.98 122 26 C122.66 26 123.32 26 124 26 C124 26.66 124 27.32 124 28 C125.32 28 126.64 28 128 28 C127.814375 28.928125 127.62875 29.85625 127.4375 30.8125 C126.75876119 34.01343771 126.75876119 34.01343771 128 37 C130.50447516 38.21869929 130.50447516 38.21869929 133 39 C129.37986204 41.12406054 125.57205531 41.85012346 121.5 42.625 C120.83613281 42.7590625 120.17226562 42.893125 119.48828125 43.03125 C116.2317115 43.66826364 113.33585901 44 110 44 C109.71640625 44.59554687 109.4328125 45.19109375 109.140625 45.8046875 C102.16286707 59.23448188 85.45880965 67.2170263 71.87890625 72.12890625 C60.92799492 75.44241131 51.05918952 70.20277121 41.375 65.25 C34.91372462 61.57668018 27.94792417 57.02768428 23.51293945 50.96826172 C20.27992649 46.56125965 20.27992649 46.56125965 15.44775391 44.37255859 C13.53681183 44.2414448 11.62426953 44.13220782 9.7109375 44.04248047 C4.26309994 43.74070265 -0.40894964 43.09774092 -5 40 C-10.68845394 31.43017056 -13.52791398 20.10014572 -15 10 C-14.67 9.01 -14.34 8.02 -14 7 C-11.85546875 6.05078125 -11.85546875 6.05078125 -9.1875 5.3125 C-8.31480469 5.06113281 -7.44210938 4.80976563 -6.54296875 4.55078125 C-4 4 -4 4 0 4 C0 2.68 0 1.36 0 0 Z " fill="#34B346" transform="translate(43,130)"/>
<path d="M0 0 C1.32 0 2.64 0 4 0 C4.495 0.99 4.495 0.99 5 2 C5.33 1.34 5.66 0.68 6 0 C6.99 0 7.98 0 9 0 C9.66 1.65 10.32 3.3 11 5 C11.66 3.68 12.32 2.36 13 1 C13.99 1.33 14.98 1.66 16 2 C15.505 2.825 15.01 3.65 14.5 4.5 C12.67647919 8.75488188 12.76326311 11.42308671 13 16 C13.66 16 14.32 16 15 16 C15.495 17.98 15.495 17.98 16 20 C16.763125 19.835 17.52625 19.67 18.3125 19.5 C21 19 21 19 24 19 C24 17.68 24 16.36 24 15 C23.67 15.99 23.34 16.98 23 18 C22.34 18 21.68 18 21 18 C20.505 16.515 20.505 16.515 20 15 C19.67 15.99 19.34 16.98 19 18 C18.01 17.67 17.02 17.34 16 17 C16.14063135 14.70800823 16.28765943 12.41640814 16.4375 10.125 C16.51871094 8.84882813 16.59992188 7.57265625 16.68359375 6.2578125 C17 3 17 3 18 1 C19.32 1.33 20.64 1.66 22 2 C22.495 5.465 22.495 5.465 23 9 C23.99 6.69 24.98 4.38 26 2 C27.32 2.33 28.64 2.66 30 3 C29.67 8.28 29.34 13.56 29 19 C30.98 19.33 32.96 19.66 35 20 C33.515 20.495 33.515 20.495 32 21 C33.32 21 34.64 21 36 21 C36.99 21.66 37.98 22.32 39 23 C39 23.66 39 24.32 39 25 C39.66 25 40.32 25 41 25 C41 25.99 41 26.98 41 28 C40.21625 28.12375 39.4325 28.2475 38.625 28.375 C35.85942178 28.79117993 35.85942178 28.79117993 34 31 C32.515 30.505 32.515 30.505 31 30 C28.9866347 31.31306433 26.98768394 32.64837492 25 34 C23.34080104 34.36871088 21.6752357 34.71281674 20 35 C19.505 35.99 19.505 35.99 19 37 C16.9375 37.625 16.9375 37.625 15 38 C14.67 36.35 14.34 34.7 14 33 C12.84607545 35.3078491 12.46562834 37.47230331 12 40 C11.01 40.33 10.02 40.66 9 41 C9 40.34 9 39.68 9 39 C8.67 39.33 8.34 39.66 8 40 C8 40.66 8 41.32 8 42 C8.99 42.33 9.98 42.66 11 43 C10.34 44.32 9.68 45.64 9 47 C7.35 47 5.7 47 4 47 C3.34 45.68 2.68 44.36 2 43 C1.01 43 0.02 43 -1 43 C-1.28875 44.051875 -1.5775 45.10375 -1.875 46.1875 C-2.77225193 49.22818711 -3.76423419 52.08712344 -5 55 C-7.31 55 -9.62 55 -12 55 C-12.27263672 54.16855469 -12.27263672 54.16855469 -12.55078125 53.3203125 C-12.80214844 52.59585938 -13.05351563 51.87140625 -13.3125 51.125 C-13.55613281 50.40570313 -13.79976562 49.68640625 -14.05078125 48.9453125 C-14.96335547 46.66005095 -14.96335547 46.66005095 -18 45 C-18.33 44.01 -18.66 43.02 -19 42 C-19.33 43.98 -19.66 45.96 -20 48 C-22.75 48.3125 -22.75 48.3125 -26 48 C-28.25 45.5625 -28.25 45.5625 -30 43 C-30.66 42.67 -31.32 42.34 -32 42 C-32.495 40.515 -32.495 40.515 -33 39 C-33.99 38.67 -34.98 38.34 -36 38 C-37.1875 35.9375 -37.1875 35.9375 -38 34 C-37.01 34 -36.02 34 -35 34 C-34.67 33.34 -34.34 32.68 -34 32 C-33.01 32.99 -32.02 33.98 -31 35 C-31.33 35.99 -31.66 36.98 -32 38 C-30.35 38.33 -28.7 38.66 -27 39 C-27 39.66 -27 40.32 -27 41 C-26.01 41.33 -25.02 41.66 -24 42 C-24 40.68 -24 39.36 -24 38 C-24.66 38 -25.32 38 -26 38 C-26.33 36.02 -26.66 34.04 -27 32 C-26.01 32 -25.02 32 -24 32 C-24 30.68 -24 29.36 -24 28 C-22.35 27.67 -20.7 27.34 -19 27 C-19 27.66 -19 28.32 -19 29 C-17.02 29.33 -15.04 29.66 -13 30 C-13 29.01 -13 28.02 -13 27 C-12.34 27 -11.68 27 -11 27 C-11 27.99 -11 28.98 -11 30 C-8.72869344 29.69095829 -6.45796695 29.37765093 -4.1875 29.0625 C-2.92292969 28.88847656 -1.65835938 28.71445313 -0.35546875 28.53515625 C2.98321703 28.09607545 2.98321703 28.09607545 6 27 C6 27.66 6 28.32 6 29 C7.98 29.33 9.96 29.66 12 30 C12 29.34 12 28.68 12 28 C13.98 28 15.96 28 18 28 C8.67344131 26.67132013 -0.59337993 25.6027851 -10 25 C-10 24.67 -10 24.34 -10 24 C-4.72 24 0.56 24 6 24 C7.36283174 20.24020355 7.36283174 20.24020355 6.0625 17.75 C5.711875 17.1725 5.36125 16.595 5 16 C4.34 16 3.68 16 3 16 C3 15.01 3 14.02 3 13 C2.01 13 1.02 13 0 13 C-0.33 13.99 -0.66 14.98 -1 16 C-1.66 16 -2.32 16 -3 16 C-2.52013969 10.43109483 -1.70084819 5.32932432 0 0 Z " fill="#288746" transform="translate(116,134)"/>
<path d="M0 0 C1.9375 1.5 1.9375 1.5 3 3 C2.34 3 1.68 3 1 3 C1.33 3.66 1.66 4.32 2 5 C4.52733235 5.65555119 4.52733235 5.65555119 7 6 C7.33 7.65 7.66 9.3 8 11 C8.66 11 9.32 11 10 11 C10 12.32 10 13.64 10 15 C8.68 14.67 7.36 14.34 6 14 C6.33 13.34 6.66 12.68 7 12 C4.525 11.505 4.525 11.505 2 11 C1.67 9.68 1.34 8.36 1 7 C-1.0745356 6.8509288 -1.0745356 6.8509288 -3 8 C-2.67 8.99 -2.34 9.98 -2 11 C0.475 11.495 0.475 11.495 3 12 C2.67 12.99 2.34 13.98 2 15 C2.969375 15.268125 3.93875 15.53625 4.9375 15.8125 C5.948125 16.204375 6.95875 16.59625 8 17 C8.33 17.99 8.66 18.98 9 20 C10.32 20 11.64 20 13 20 C13.33 18.02 13.66 16.04 14 14 C14.99 14.33 15.98 14.66 17 15 C17.495 16.485 17.495 16.485 18 18 C18.495 18.99 18.495 18.99 19 20 C19.99 20.33 20.98 20.66 22 21 C21.34 21 20.68 21 20 21 C20.66 21.99 21.32 22.98 22 24 C22 25.32 22 26.64 22 28 C22.78375 27.814375 23.5675 27.62875 24.375 27.4375 C27 27 27 27 29 28 C29.144375 27.21625 29.28875 26.4325 29.4375 25.625 C30 23 30 23 31 21 C30.34 20.67 29.68 20.34 29 20 C29.99 20 30.98 20 32 20 C32.103125 19.360625 32.20625 18.72125 32.3125 18.0625 C32.539375 17.381875 32.76625 16.70125 33 16 C33.99 15.67 34.98 15.34 36 15 C38 17 38 17 38 20 C39.65 20 41.3 20 43 20 C43.86358623 18.21858253 43.86358623 18.21858253 44 16 C42.14567913 13.72855926 42.14567913 13.72855926 40 12 C41.32 11.67 42.64 11.34 44 11 C43.67 11.99 43.34 12.98 43 14 C44.60414215 12.81476003 44.60414215 12.81476003 46 11 C46.25069913 8.37429296 46.25069913 8.37429296 46 6 C47.32 5.67 48.64 5.34 50 5 C49.34 5.33 48.68 5.66 48 6 C48.99 7.98 48.99 7.98 50 10 C50.99 10 51.98 10 53 10 C53.33 9.01 53.66 8.02 54 7 C56.31939207 6.2863409 58.65523449 5.6252708 61 5 C62.67334039 4.01120795 64.34151823 3.01351664 66 2 C69 2 69 2 71 3 C65.92346171 17.40916423 52.10581777 26.55196659 39 33 C32.55128008 35.93479365 26.83769171 38.00791547 19.828125 36.0859375 C2.85206288 29.56750481 -12.51327104 19.61984421 -21 3 C-18.81462633 2.49078672 -16.62657569 1.99305563 -14.4375 1.5 C-12.61025391 1.08234375 -12.61025391 1.08234375 -10.74609375 0.65625 C-7.05253014 0.00920236 -3.74025723 -0.2221935 0 0 Z " fill="#037237" transform="translate(82,161)"/>
<path d="M0 0 C2 1.375 2 1.375 4 3 C4 3.66 4 4.32 4 5 C4.66 5 5.32 5 6 5 C8.625 7.375 8.625 7.375 11 10 C11 10.66 11 11.32 11 12 C11.84498047 12.37705078 11.84498047 12.37705078 12.70703125 12.76171875 C15.3333019 14.17999438 17.38415576 15.91127099 19.6875 17.8125 C25.94753226 22.57910058 32.64775584 26.19548274 39.625 29.8125 C40.68549561 30.36333252 41.74599121 30.91416504 42.83862305 31.48168945 C49.10502811 34.67754141 55.41344757 37.52889583 62 40 C62.31953185 55.95037474 62.51387117 71.37582283 59 87 C57.02 86.67 55.04 86.34 53 86 C53.99 85.67 54.98 85.34 56 85 C56.13277344 83.86820312 56.26554687 82.73640625 56.40234375 81.5703125 C56.5805342 80.08851821 56.75893029 78.60674864 56.9375 77.125 C57.02451172 76.37863281 57.11152344 75.63226563 57.20117188 74.86328125 C57.88671875 69.2265625 57.88671875 69.2265625 59 67 C58.34 66.67 57.68 66.34 57 66 C57.20625 65.21625 57.4125 64.4325 57.625 63.625 C57.97465626 60.24498948 57.74254261 58.30493608 57 55.0625 C55.9933163 50.62638048 56.03772618 47.42645959 57 43 C56.01 43 55.02 43 54 43 C54 42.01 54 41.02 54 40 C53.0925 40.20625 52.185 40.4125 51.25 40.625 C47.88972103 41.0127245 46.75924185 40.80411967 44 39 C44 38.01 44 37.02 44 36 C43.34 36 42.68 36 42 36 C42 35.34 42 34.68 42 34 C41.319375 33.896875 40.63875 33.79375 39.9375 33.6875 C37.50217401 33.11753009 35.57562836 32.44123057 33.3125 31.4375 C30.2960457 29.86730229 30.2960457 29.86730229 28 30 C27.505 29.01 27.505 29.01 27 28 C25.05396726 27.40929986 25.05396726 27.40929986 23 27 C22.34 26.67 21.68 26.34 21 26 C20.375 23.4375 20.375 23.4375 20 21 C19.39671875 20.86722656 18.7934375 20.73445313 18.171875 20.59765625 C17.37265625 20.42105469 16.5734375 20.24445313 15.75 20.0625 C14.56664063 19.80146484 14.56664063 19.80146484 13.359375 19.53515625 C11.8905923 19.20200521 10.42583201 18.84983299 8.96875 18.46875 C6.89680523 17.97542982 4.86478666 17.68422511 2.75 17.4375 C1.5125 17.293125 0.275 17.14875 -1 17 C-0.835 16.071875 -0.67 15.14375 -0.5 14.1875 C0.07748388 11.04378647 0.07748388 11.04378647 0 8 C-3.37088267 10.27415287 -3.37088267 10.27415287 -5 14 C-5.66 14.28875 -6.32 14.5775 -7 14.875 C-9.29150599 15.8553382 -9.29150599 15.8553382 -9.75 18.625 C-9.8325 19.40875 -9.915 20.1925 -10 21 C-10.99 21 -11.98 21 -13 21 C-13.33 21.66 -13.66 22.32 -14 23 C-15.99541868 23.68025637 -17.99617991 24.34490497 -20 25 C-20.845625 25.515625 -21.69125 26.03125 -22.5625 26.5625 C-25.13380445 28.07891032 -27.08450359 28.48978813 -30 29 C-31.6792238 29.63437344 -33.35008418 30.29289322 -35 31 C-35 31.66 -35 32.32 -35 33 C-36.175625 33.0928125 -36.175625 33.0928125 -37.375 33.1875 C-38.24125 33.455625 -39.1075 33.72375 -40 34 C-41.37466625 36.47636012 -41.37466625 36.47636012 -42 39 C-42.66 38.67 -43.32 38.34 -44 38 C-46.23601706 38.73288477 -48.44171775 39.55990615 -50.625 40.4375 C-51.81351563 40.91058594 -53.00203125 41.38367188 -54.2265625 41.87109375 C-55.14179687 42.24363281 -56.05703125 42.61617187 -57 43 C-57 43.66 -57 44.32 -57 45 C-56.34 45 -55.68 45 -55 45 C-55 45.99 -55 46.98 -55 48 C-55.66 48 -56.32 48 -57 48 C-56.835 48.598125 -56.67 49.19625 -56.5 49.8125 C-55.60842783 53.71312823 -56.35211139 57.11266833 -57 61 C-57 63.69787075 -56.67603227 65.61012698 -56 68.1875 C-55.67 69.445625 -55.34 70.70375 -55 72 C-54.34 72 -53.68 72 -53 72 C-53.350625 73.11375 -53.70125 74.2275 -54.0625 75.375 C-55.37239331 78.80264476 -55.37239331 78.80264476 -54 81 C-54.9375 83.125 -54.9375 83.125 -56 85 C-53.36 84.67 -50.72 84.34 -48 84 C-51.26545761 85.88391785 -54.28111761 86.49287967 -58 87 C-60.95941982 76.14879398 -61.13249979 65.61501401 -61.0625 54.4375 C-61.05747366 53.03320473 -61.05291276 51.6289077 -61.04882812 50.22460938 C-61.03711593 46.81636097 -61.02071372 43.4082036 -61 40 C-59.89785156 39.52691406 -58.79570313 39.05382812 -57.66015625 38.56640625 C-41.54761398 31.5783947 -26.52365443 24.32300412 -13 13 C-12.20722656 12.34773438 -11.41445312 11.69546875 -10.59765625 11.0234375 C-6.60319896 7.64637305 -3.21799944 4.12306179 0 0 Z " fill="#028C41" transform="translate(107,45)"/>
<path d="M0 0 C0.495 0.99 0.495 0.99 1 2 C5.29 2 9.58 2 14 2 C13.67 3.65 13.34 5.3 13 7 C13.36856864 9.23167185 13.36856864 9.23167185 14 11 C12.68 11 11.36 11 10 11 C10 12.32 10 13.64 10 15 C11.32 15 12.64 15 14 15 C14 15.66 14 16.32 14 17 C12.68 17 11.36 17 10 17 C10 18.65 10 20.3 10 22 C11.65 22 13.3 22 15 22 C15 22.66 15 23.32 15 24 C12.69 24 10.38 24 8 24 C7.34 20.37 6.68 16.74 6 13 C4.9187609 19.06050614 4.9187609 19.06050614 6 25 C5.01 25.495 5.01 25.495 4 26 C4 26.66 4 27.32 4 28 C0.04140323 29.09961021 -1.43368195 28.83719415 -5 27 C-6.03125 27 -7.0625 27 -8.125 27 C-9.07375 27 -10.0225 27 -11 27 C-13.41887085 24.58112915 -13.49376963 23.25907651 -14.0625 19.9375 C-14.41027566 16.66916048 -14.41027566 16.66916048 -16 14 C-16 14.99 -16 15.98 -16 17 C-16.99 17 -17.98 17 -19 17 C-19 16.34 -19 15.68 -19 15 C-19.99 15 -20.98 15 -22 15 C-21.67 16.0725 -21.34 17.145 -21 18.25 C-20 22 -20 22 -20 26 C-19.01 26 -18.02 26 -17 26 C-17 24.68 -17 23.36 -17 22 C-16.34 22 -15.68 22 -15 22 C-14.957279 23.66611905 -14.95936168 25.33382885 -15 27 C-16 28 -16 28 -18.4375 28.1875 C-21 28 -21 28 -23 26 C-23.625 23.875 -23.625 23.875 -24 22 C-25.65 22.33 -27.3 22.66 -29 23 C-29 24.65 -29 26.3 -29 28 C-27.35 27.67 -25.7 27.34 -24 27 C-24 27.99 -24 28.98 -24 30 C-26.31 30 -28.62 30 -31 30 C-31.20496094 29.16855469 -31.40992188 28.33710938 -31.62109375 27.48046875 C-32.02521484 25.85044922 -32.02521484 25.85044922 -32.4375 24.1875 C-32.70433594 23.10855469 -32.97117187 22.02960938 -33.24609375 20.91796875 C-33.76077412 18.9259157 -34.34937175 16.95188476 -35 15 C-36.32 15 -37.64 15 -39 15 C-39.33 13.02 -39.66 11.04 -40 9 C-38.35 8.67 -36.7 8.34 -35 8 C-35 7.34 -35 6.68 -35 6 C-26.63632428 3.45009886 -18.45394355 2.38902838 -9.76855469 1.64697266 C-8.93614258 1.57526855 -8.10373047 1.50356445 -7.24609375 1.4296875 C-6.50029053 1.37022949 -5.7544873 1.31077148 -4.98608398 1.24951172 C-2.79356017 1.03980222 -2.79356017 1.03980222 0 0 Z " fill="#33A043" transform="translate(83,126)"/>
<path d="M0 0 C0.66 0.33 1.32 0.66 2 1 C1.67 1.66 1.34 2.32 1 3 C2.32 3.33 3.64 3.66 5 4 C3.02 4.99 3.02 4.99 1 6 C1.33 6.66 1.66 7.32 2 8 C1.67 8.99 1.34 9.98 1 11 C2.32 11 3.64 11 5 11 C7.45489316 16.12325529 8.50341703 20.33895411 9 26 C11.31 26 13.62 26 16 26 C16 25.01 16 24.02 16 23 C14.35 23.33 12.7 23.66 11 24 C11 22.35 11 20.7 11 19 C11.61875 18.87625 12.2375 18.7525 12.875 18.625 C15.19120832 18.12802644 15.19120832 18.12802644 17 16 C17.66 18.31 18.32 20.62 19 23 C20.65 23 22.3 23 24 23 C24.33 21.35 24.66 19.7 25 18 C24.34 18 23.68 18 23 18 C23 19.32 23 20.64 23 22 C22.01 22 21.02 22 20 22 C19.34 18.37 18.68 14.74 18 11 C18.99 11 19.98 11 21 11 C21 11.66 21 12.32 21 13 C21.99 13 22.98 13 24 13 C23.505 10.525 23.505 10.525 23 8 C23.66 7.67 24.32 7.34 25 7 C25.20496094 7.99902344 25.40992188 8.99804688 25.62109375 10.02734375 C25.89050781 11.31769531 26.15992188 12.60804688 26.4375 13.9375 C26.70433594 15.22527344 26.97117188 16.51304687 27.24609375 17.83984375 C27.67181616 20.84638879 27.67181616 20.84638879 29 22 C30.258125 21.979375 31.51625 21.95875 32.8125 21.9375 C36.12003324 21.88424812 38.13478186 22.23678884 41 24 C41.66 24 42.32 24 43 24 C43 25.65 43 27.3 43 29 C44.32 28.67 45.64 28.34 47 28 C47 28.66 47 29.32 47 30 C46.28569824 30.10546143 45.57139648 30.21092285 44.83544922 30.31958008 C27.9655014 32.82411639 11.54106522 35.84210914 -5 40 C-6.45397528 35.78632261 -7.89611461 31.56883736 -9.32739258 27.34741211 C-9.81601305 25.91173449 -10.30785827 24.4771502 -10.80297852 23.04370117 C-11.51387373 20.98374502 -12.21310076 18.92014268 -12.91015625 16.85546875 C-13.33433838 15.61434326 -13.75852051 14.37321777 -14.19555664 13.09448242 C-15 10 -15 10 -14 7 C-11.85546875 6.05078125 -11.85546875 6.05078125 -9.1875 5.3125 C-8.31480469 5.06113281 -7.44210938 4.80976563 -6.54296875 4.55078125 C-4 4 -4 4 0 4 C0 2.68 0 1.36 0 0 Z " fill="#48A14C" transform="translate(43,130)"/>
<path d="M0 0 C5.86750085 -0.04999181 11.73487368 -0.08599546 17.60253906 -0.10986328 C19.59246993 -0.11982901 21.58238651 -0.13340648 23.57226562 -0.15087891 C34.91156116 -0.24784471 45.82008338 -0.1275662 57 2 C56.01 2.33 55.02 2.66 54 3 C53.32843384 4.93618425 53.32843384 4.93618425 53 7 C52.67 7.66 52.34 8.32 52 9 C52.99 9.33 53.98 9.66 55 10 C54.88556397 12.0839403 54.75804453 14.16716493 54.625 16.25 C54.55539063 17.41015625 54.48578125 18.5703125 54.4140625 19.765625 C54.03751692 22.70694334 53.5225877 24.49949011 52 27 C51.67 26.67 51.34 26.34 51 26 C51.06438632 23.6850193 51.20150433 21.37186799 51.375 19.0625 C51.51035156 17.16177734 51.51035156 17.16177734 51.6484375 15.22265625 C52 12 52 12 53 10 C51.68 9.67 50.36 9.34 49 9 C48.01 11.97 47.02 14.94 46 18 C45.67 18 45.34 18 45 18 C45 15.03 45 12.06 45 9 C43.68 8.67 42.36 8.34 41 8 C40.67 13.28 40.34 18.56 40 24 C40.66 24.33 41.32 24.66 42 25 C42 23.35 42 21.7 42 20 C44 22 44 22 44 25 C44.66 25 45.32 25 46 25 C46.33 23.35 46.66 21.7 47 20 C47.33 20 47.66 20 48 20 C48.1875 22.875 48.1875 22.875 48 26 C45 28 45 28 42.9375 27.625 C42.298125 27.41875 41.65875 27.2125 41 27 C40.34 27 39.68 27 39 27 C38.505 25.02 38.505 25.02 38 23 C37.34 23 36.68 23 36 23 C34.58435166 20.16870331 34.75775505 18.14918438 35 15 C36.5 11.625 36.5 11.625 38 9 C37.34 8.67 36.68 8.34 36 8 C35.34 9.65 34.68 11.3 34 13 C32 9.25 32 9.25 32 7 C31.01 7 30.02 7 29 7 C28.67 8.65 28.34 10.3 28 12 C27.67 12 27.34 12 27 12 C27 10.35 27 8.7 27 7 C25.68 7 24.36 7 23 7 C22.87625 8.134375 22.7525 9.26875 22.625 10.4375 C22.315625 12.2009375 22.315625 12.2009375 22 14 C21.01 14.495 21.01 14.495 20 15 C19.34 12.69 18.68 10.38 18 8 C15.69 7.67 13.38 7.34 11 7 C11 12.28 11 17.56 11 23 C10.34 22.01 9.68 21.02 9 20 C8.01 20.99 7.02 21.98 6 23 C6 22.34 6 21.68 6 21 C4.02 21 2.04 21 0 21 C0 19.35 0 17.7 0 16 C1.32 16 2.64 16 4 16 C4 15.34 4 14.68 4 14 C2.68 14 1.36 14 0 14 C0 12.68 0 11.36 0 10 C1.32 10 2.64 10 4 10 C4 9.01 4 8.02 4 7 C1.69 7 -0.62 7 -3 7 C-3 6.67 -3 6.34 -3 6 C-1.35 5.67 0.3 5.34 2 5 C2.33 4.01 2.66 3.02 3 2 C2.01 1.34 1.02 0.68 0 0 Z " fill="#077939" transform="translate(93,127)"/>
<path d="M0 0 C7.50724638 0.75072464 7.50724638 0.75072464 9.9921875 2.0078125 C12.22887194 3.11310014 13.89823407 3.32619186 16.375 3.5 C20.15900575 3.84400052 23.43397671 4.62845258 27 6 C26.44581616 13.24837274 24.30790447 19.65489417 21.9375 26.5 C21.56044922 27.60859375 21.18339844 28.7171875 20.79492188 29.859375 C19.87009261 32.57532929 18.93831284 35.28868081 18 38 C14.535 37.505 14.535 37.505 11 37 C11 35.68 11 34.36 11 33 C10.34 32.67 9.68 32.34 9 32 C9.66 32 10.32 32 11 32 C11.33 30.35 11.66 28.7 12 27 C10.68 27 9.36 27 8 27 C8 26.34 8 25.68 8 25 C7.34 25 6.68 25 6 25 C5.67 24.34 5.34 23.68 5 23 C4.67 23.66 4.34 24.32 4 25 C3.01 25 2.02 25 1 25 C0.67 23.02 0.34 21.04 0 19 C-0.33 20.65 -0.66 22.3 -1 24 C-1.99 24 -2.98 24 -4 24 C-3.69075786 21.89535207 -3.3774944 19.7912947 -3.0625 17.6875 C-2.88847656 16.51574219 -2.71445313 15.34398437 -2.53515625 14.13671875 C-2 11 -2 11 -1 8 C1.5625 6.3125 1.5625 6.3125 4 5 C2.68 3.35 1.36 1.7 0 0 Z " fill="#4FAB59" transform="translate(159,131)"/>
<path d="M0 0 C1.32 0 2.64 0 4 0 C4.33 0.66 4.66 1.32 5 2 C5.33 1.34 5.66 0.68 6 0 C6.99 0 7.98 0 9 0 C9.66 1.65 10.32 3.3 11 5 C11.66 3.68 12.32 2.36 13 1 C13.99 1.33 14.98 1.66 16 2 C15.505 2.825 15.01 3.65 14.5 4.5 C12.67647919 8.75488188 12.76326311 11.42308671 13 16 C13.66 16 14.32 16 15 16 C15.33 17.32 15.66 18.64 16 20 C17.1446875 19.7525 17.1446875 19.7525 18.3125 19.5 C21 19 21 19 24 19 C24 17.68 24 16.36 24 15 C23.67 15.99 23.34 16.98 23 18 C22.34 18 21.68 18 21 18 C20.67 17.01 20.34 16.02 20 15 C19.67 15.99 19.34 16.98 19 18 C18.01 17.67 17.02 17.34 16 17 C16.14063135 14.70800823 16.28765943 12.41640814 16.4375 10.125 C16.51871094 8.84882813 16.59992188 7.57265625 16.68359375 6.2578125 C17 3 17 3 18 1 C19.32 1.33 20.64 1.66 22 2 C22.495 5.465 22.495 5.465 23 9 C23.99 6.69 24.98 4.38 26 2 C27.32 2.33 28.64 2.66 30 3 C29.67 8.28 29.34 13.56 29 19 C30.98 19.33 32.96 19.66 35 20 C34.01 20.33 33.02 20.66 32 21 C33.32 21 34.64 21 36 21 C36.99 21.66 37.98 22.32 39 23 C39 23.66 39 24.32 39 25 C39.66 25 40.32 25 41 25 C41 25.99 41 26.98 41 28 C40.21625 28.12375 39.4325 28.2475 38.625 28.375 C35.85942178 28.79117993 35.85942178 28.79117993 34 31 C33.40533936 30.80301514 32.81067871 30.60603027 32.19799805 30.40307617 C23.48394088 27.75407415 14.84008772 27.0297497 5.8125 26.3125 C4.2727073 26.18257543 2.73299263 26.05172245 1.19335938 25.91992188 C-2.53692317 25.60259117 -6.26809922 25.29777332 -10 25 C-10 24.67 -10 24.34 -10 24 C-4.72 24 0.56 24 6 24 C7.36283174 20.24020355 7.36283174 20.24020355 6.0625 17.75 C5.711875 17.1725 5.36125 16.595 5 16 C4.34 16 3.68 16 3 16 C3 15.01 3 14.02 3 13 C2.01 13 1.02 13 0 13 C-0.33 13.99 -0.66 14.98 -1 16 C-1.66 16 -2.32 16 -3 16 C-2.52013969 10.43109483 -1.70084819 5.32932432 0 0 Z " fill="#0B7A3D" transform="translate(116,134)"/>
<path d="M0 0 C1.9375 1.5 1.9375 1.5 3 3 C2.34 3 1.68 3 1 3 C1.33 3.66 1.66 4.32 2 5 C4.52733235 5.65555119 4.52733235 5.65555119 7 6 C7.33 7.65 7.66 9.3 8 11 C8.66 11 9.32 11 10 11 C10 12.32 10 13.64 10 15 C8.68 14.67 7.36 14.34 6 14 C6.33 13.34 6.66 12.68 7 12 C4.525 11.505 4.525 11.505 2 11 C1.67 9.68 1.34 8.36 1 7 C-1.0745356 6.8509288 -1.0745356 6.8509288 -3 8 C-2.67 8.99 -2.34 9.98 -2 11 C0.475 11.495 0.475 11.495 3 12 C2.67 12.99 2.34 13.98 2 15 C2.639375 15.226875 3.27875 15.45375 3.9375 15.6875 C6 17 6 17 6.75 19.625 C6.8325 20.40875 6.915 21.1925 7 22 C4.39417629 22.93065133 3.35801776 23.14917407 0.75 22.0625 C-0.11625 21.5365625 -0.11625 21.5365625 -1 21 C-1 20.01 -1 19.02 -1 18 C-2.65 17.67 -4.3 17.34 -6 17 C-4.01763192 18.69226544 -2.01891635 20.35227455 0 22 C1.4540625 23.2065625 1.4540625 23.2065625 2.9375 24.4375 C9.5370485 29.02785262 19.00203745 33.67756815 27.1875 33.1875 C42.14227886 30.31539015 55.91266365 20.72801413 64.82421875 8.49609375 C66.26161788 6.35507267 67.65542302 4.20021688 69 2 C69.99 2.495 69.99 2.495 71 3 C65.92346171 17.40916423 52.10581777 26.55196659 39 33 C32.55128008 35.93479365 26.83769171 38.00791547 19.828125 36.0859375 C2.85206288 29.56750481 -12.51327104 19.61984421 -21 3 C-18.81462633 2.49078672 -16.62657569 1.99305563 -14.4375 1.5 C-12.61025391 1.08234375 -12.61025391 1.08234375 -10.74609375 0.65625 C-7.05253014 0.00920236 -3.74025723 -0.2221935 0 0 Z " fill="#198040" transform="translate(82,161)"/>
<path d="M0 0 C2.16015625 1.40625 2.16015625 1.40625 4 4 C4.57313441 7.34264811 4.51240528 10.61718111 4.4375 14 C4.44458984 14.90234375 4.45167969 15.8046875 4.45898438 16.734375 C4.4126385 21.55434638 4.37685825 24.30505815 1 28 C-0.9375 28.53125 -0.9375 28.53125 -3 28.5 C-3.680625 28.5103125 -4.36125 28.520625 -5.0625 28.53125 C-7.83054983 27.77226859 -8.50309134 26.40170793 -10 24 C-10.60122939 20.68688096 -10.46391582 17.36201289 -10.4375 14 C-10.45748047 13.09765625 -10.47746094 12.1953125 -10.49804688 11.265625 C-10.49318715 4.6952787 -10.49318715 4.6952787 -8.16015625 1.40625 C-5.19556777 -0.52368102 -3.47002695 -0.57833783 0 0 Z " fill="#E2F0EA" transform="translate(96,84)"/>
<path d="M0 0 C2.16040039 1.2109375 2.16040039 1.2109375 4 3 C4.50170898 5.3125 4.50170898 5.3125 4.49609375 8 C4.49673828 8.969375 4.49738281 9.93875 4.49804688 10.9375 C4.47806641 11.948125 4.45808594 12.95875 4.4375 14 C4.44458984 15.010625 4.45167969 16.02125 4.45898438 17.0625 C4.39472563 24.49674198 4.39472563 24.49674198 2.59619141 26.78979492 C-0.39992144 29.06139654 -3.368149 28.28824214 -7 28 C-10.04103566 24.95896434 -9.29330847 21.95158914 -9.32226562 17.79492188 C-9.31904297 16.72822266 -9.31582031 15.66152344 -9.3125 14.5625 C-9.32861328 13.49966797 -9.34472656 12.43683594 -9.36132812 11.34179688 C-9.36197266 10.32279297 -9.36261719 9.30378906 -9.36328125 8.25390625 C-9.36775269 6.85120483 -9.36775269 6.85120483 -9.37231445 5.42016602 C-9 3 -9 3 -7.66088867 1.19506836 C-5.06755938 -0.67092413 -3.10286363 -0.37994249 0 0 Z " fill="#ECF5F1" transform="translate(113,84)"/>
<path d="M0 0 C0.99 0.495 0.99 0.495 2 1 C-3.07653829 15.40916423 -16.89418223 24.55196659 -30 31 C-36.44871992 33.93479365 -42.16230829 36.00791547 -49.171875 34.0859375 C-66.14793712 27.56750481 -81.51327104 17.61984421 -90 1 C-88.68 1 -87.36 1 -86 1 C-84.09080647 3.61630224 -83.02455574 5.92633278 -82 9 C-81.01 9.33 -80.02 9.66 -79 10 C-77.52734375 11.6015625 -77.52734375 11.6015625 -75.9375 13.625 C-68.19272004 22.64179164 -56.24651268 29.91448295 -44.23828125 31.32421875 C-30.04227203 30.52412161 -17.30439862 20.96208765 -7.79296875 11.09765625 C-4.83271064 7.63434775 -2.37264985 3.88251794 0 0 Z " fill="#029143" transform="translate(151,163)"/>
<path d="M0 0 C1.32 0 2.64 0 4 0 C4.33 0.66 4.66 1.32 5 2 C5.33 1.34 5.66 0.68 6 0 C6.99 0 7.98 0 9 0 C9.66 1.65 10.32 3.3 11 5 C11.66 3.68 12.32 2.36 13 1 C13.99 1.33 14.98 1.66 16 2 C15.505 2.825 15.01 3.65 14.5 4.5 C12.67647919 8.75488188 12.76326311 11.42308671 13 16 C13.66 16 14.32 16 15 16 C14.42647107 19.87132028 12.51295648 22.08172796 10 25 C9.01 24.67 8.02 24.34 7 24 C7 24.66 7 25.32 7 26 C1.39 25.67 -4.22 25.34 -10 25 C-10 24.67 -10 24.34 -10 24 C-4.72 24 0.56 24 6 24 C7.36283174 20.24020355 7.36283174 20.24020355 6.0625 17.75 C5.711875 17.1725 5.36125 16.595 5 16 C4.34 16 3.68 16 3 16 C3 15.01 3 14.02 3 13 C2.01 13 1.02 13 0 13 C-0.33 13.99 -0.66 14.98 -1 16 C-1.66 16 -2.32 16 -3 16 C-2.52013969 10.43109483 -1.70084819 5.32932432 0 0 Z " fill="#098039" transform="translate(116,134)"/>
<path d="M0 0 C8.57142857 0.85714286 8.57142857 0.85714286 12 3 C11.01 3.495 11.01 3.495 10 4 C10.33 5.98 10.66 7.96 11 10 C12.32 10.33 13.64 10.66 15 11 C13.02 11 11.04 11 9 11 C9 11.66 9 12.32 9 13 C9.99 13 10.98 13 12 13 C11.01 17.62 10.02 22.24 9 27 C8.67 26.34 8.34 25.68 8 25 C7.34 25 6.68 25 6 25 C5.67 24.34 5.34 23.68 5 23 C4.67 23.66 4.34 24.32 4 25 C3.01 25 2.02 25 1 25 C0.67 23.02 0.34 21.04 0 19 C-0.33 20.65 -0.66 22.3 -1 24 C-1.99 24 -2.98 24 -4 24 C-3.69075786 21.89535207 -3.3774944 19.7912947 -3.0625 17.6875 C-2.88847656 16.51574219 -2.71445313 15.34398437 -2.53515625 14.13671875 C-2 11 -2 11 -1 8 C1.5625 6.3125 1.5625 6.3125 4 5 C2.68 3.35 1.36 1.7 0 0 Z " fill="#379C54" transform="translate(159,131)"/>
<path d="M0 0 C6.93 0 13.86 0 21 0 C20.01 0.66 19.02 1.32 18 2 C17.01 1.67 16.02 1.34 15 1 C14.34 2.32 13.68 3.64 13 5 C11.02 5 9.04 5 7 5 C7 10.61 7 16.22 7 22 C6.34 21.01 5.68 20.02 5 19 C4.01 19.99 3.02 20.98 2 22 C2 21.34 2 20.68 2 20 C0.02 20 -1.96 20 -4 20 C-4 18.35 -4 16.7 -4 15 C-2.68 15 -1.36 15 0 15 C0 14.34 0 13.68 0 13 C-1.32 13 -2.64 13 -4 13 C-4 11.68 -4 10.36 -4 9 C-2.68 9 -1.36 9 0 9 C0 8.01 0 7.02 0 6 C-2.31 6 -4.62 6 -7 6 C-7 5.67 -7 5.34 -7 5 C-5.824375 4.87625 -5.824375 4.87625 -4.625 4.75 C-3.75875 4.5025 -2.8925 4.255 -2 4 C-1.34 2.68 -0.68 1.36 0 0 Z " fill="#169239" transform="translate(97,128)"/>
<path d="M0 0 C2.31 0.33 4.62 0.66 7 1 C7 1.66 7 2.32 7 3 C7.99 3.33 8.98 3.66 10 4 C11.1875 6.0625 11.1875 6.0625 12 8 C9 10 9 10 6 10 C5.86722656 10.90363281 5.73445312 11.80726563 5.59765625 12.73828125 C5.42105469 13.91777344 5.24445313 15.09726563 5.0625 16.3125 C4.88847656 17.48425781 4.71445313 18.65601563 4.53515625 19.86328125 C4 23 4 23 3 26 C3.99 26 4.98 26 6 26 C6.495 21.545 6.495 21.545 7 17 C7.33 17 7.66 17 8 17 C8.10655578 23.44070471 7.96205088 29.62641289 7 36 C4.69 35.67 2.38 35.34 0 35 C0 34.34 0 33.68 0 33 C1.65 33 3.3 33 5 33 C5 32.01 5 31.02 5 30 C4.34 30 3.68 30 3 30 C2.54625 29.484375 2.0925 28.96875 1.625 28.4375 C1.08875 27.963125 0.5525 27.48875 0 27 C-2.16299211 27.22757731 -2.16299211 27.22757731 -4 28 C-4 27.34 -4 26.68 -4 26 C-2.35 25.67 -0.7 25.34 1 25 C1 24.34 1 23.68 1 23 C-0.32 23 -1.64 23 -3 23 C-3 21.35 -3 19.7 -3 18 C-1.68 18 -0.36 18 1 18 C1 17.34 1 16.68 1 16 C0.01 16 -0.98 16 -2 16 C-1.67 14.35 -1.34 12.7 -1 11 C0.65 11.33 2.3 11.66 4 12 C3.67 11.01 3.34 10.02 3 9 C2.34 8.67 1.68 8.34 1 8 C1.020625 7.05125 1.04125 6.1025 1.0625 5.125 C1.22551826 2.09333717 1.22551826 2.09333717 0 0 Z " fill="#218B45" transform="translate(152,129)"/>
<path d="M0 0 C0.99 0.33 1.98 0.66 3 1 C0.82492874 7.41013064 -4.01498342 13.97850977 -10.1484375 17.08984375 C-12.0625 17.625 -12.0625 17.625 -15 18 C-15.33 17.34 -15.66 16.68 -16 16 C-16.61875 16.495 -17.2375 16.99 -17.875 17.5 C-20 19 -20 19 -22 19 C-21.7525 18.2575 -21.505 17.515 -21.25 16.75 C-21.1675 15.8425 -21.085 14.935 -21 14 C-22.83358335 11.66545339 -22.83358335 11.66545339 -25 10 C-23.68 9.67 -22.36 9.34 -21 9 C-21.33 9.99 -21.66 10.98 -22 12 C-20.39585785 10.81476003 -20.39585785 10.81476003 -19 9 C-18.74930087 6.37429296 -18.74930087 6.37429296 -19 4 C-17.68 3.67 -16.36 3.34 -15 3 C-15.99 3.495 -15.99 3.495 -17 4 C-16.34 5.32 -15.68 6.64 -15 8 C-14.01 8 -13.02 8 -12 8 C-11.67 7.01 -11.34 6.02 -11 5 C-8.67684969 4.2986716 -6.34210921 3.63514826 -4 3 C-3.2575 2.443125 -2.515 1.88625 -1.75 1.3125 C-1.1725 0.879375 -0.595 0.44625 0 0 Z " fill="#0F7A3D" transform="translate(147,163)"/>
<path d="M0 0 C-3.74287627 2.13181214 -5.78984129 1.95685425 -10 1 C-10 1.66 -10 2.32 -10 3 C-11.98 2.67 -13.96 2.34 -16 2 C-16 1.34 -16 0.68 -16 0 C-16.94875 0.495 -17.8975 0.99 -18.875 1.5 C-23.51587433 3.52978692 -28.02390572 3.27033108 -33 3 C-33 2.01 -33 1.02 -33 0 C-33.66 0 -34.32 0 -35 0 C-35 0.99 -35 1.98 -35 3 C-37.97 2.505 -37.97 2.505 -41 2 C-41 1.34 -41 0.68 -41 0 C-42.65 0.33 -44.3 0.66 -46 1 C-45.67 2.65 -45.34 4.3 -45 6 C-47.97 6 -50.94 6 -54 6 C-54 4.68 -54 3.36 -54 2 C-54.66 1.67 -55.32 1.34 -56 1 C-56 0.34 -56 -0.32 -56 -1 C-37.0241244 -2.09891317 -18.89103394 -2.32249813 0 0 Z " fill="#348D4A" transform="translate(138,161)"/>
<path d="M0 0 C-0.639375 0.268125 -1.27875 0.53625 -1.9375 0.8125 C-4.33131686 1.88667752 -4.33131686 1.88667752 -5 5 C-5.66 5 -6.32 5 -7 5 C-6.67 7.31 -6.34 9.62 -6 12 C-7.32 12 -8.64 12 -10 12 C-9.34 13.32 -8.68 14.64 -8 16 C-7.01 16 -6.02 16 -5 16 C-5 16.99 -5 17.98 -5 19 C-5.99 19 -6.98 19 -8 19 C-8 20.65 -8 22.3 -8 24 C-6.35 23.67 -4.7 23.34 -3 23 C-3 23.99 -3 24.98 -3 26 C-5.31 26 -7.62 26 -10 26 C-10.20496094 25.16855469 -10.40992188 24.33710938 -10.62109375 23.48046875 C-11.02521484 21.85044922 -11.02521484 21.85044922 -11.4375 20.1875 C-11.70433594 19.10855469 -11.97117187 18.02960938 -12.24609375 16.91796875 C-12.76077412 14.9259157 -13.34937175 12.95188476 -14 11 C-15.32 11 -16.64 11 -18 11 C-18.33 9.02 -18.66 7.04 -19 5 C-17.35 4.67 -15.7 4.34 -14 4 C-14 3.34 -14 2.68 -14 2 C-9.126739 0.4087311 -5.19209404 -0.21192221 0 0 Z " fill="#4CA251" transform="translate(62,130)"/>
<path d="M0 0 C0.99 0 1.98 0 3 0 C0.94661139 6.51470776 -1.49534683 12.78730029 -4.1875 19.0625 C-4.55552734 19.92810547 -4.92355469 20.79371094 -5.30273438 21.68554688 C-6.19872592 23.79170883 -7.09784655 25.89647192 -8 28 C-10.4375 27.625 -10.4375 27.625 -13 27 C-13.33 26.34 -13.66 25.68 -14 25 C-14.804375 25.99 -15.60875 26.98 -16.4375 28 C-18.46252012 30.06872559 -19.51828523 30.92010584 -22.40234375 31.3984375 C-24.62886959 31.37733299 -26.78991997 31.2652096 -29 31 C-29.33 30.34 -29.66 29.68 -30 29 C-28.7625 29.061875 -27.525 29.12375 -26.25 29.1875 C-23.58007872 29.32099606 -22.21071697 29.10836873 -19.8125 27.875 C-17.34171323 25.31901369 -17.20046969 23.30364012 -16.75 19.8125 C-16.60046875 18.72582031 -16.4509375 17.63914062 -16.296875 16.51953125 C-16.19890625 15.68808594 -16.1009375 14.85664062 -16 14 C-15.01 14.66 -14.02 15.32 -13 16 C-11.34450469 16.38499891 -9.6777567 16.72793135 -8 17 C-8.33 18.65 -8.66 20.3 -9 22 C-6.03 14.74 -3.06 7.48 0 0 Z " fill="#54A158" transform="translate(135,84)"/>
<path d="M0 0 C0.33 0 0.66 0 1 0 C1.02505615 0.61520508 1.0501123 1.23041016 1.07592773 1.86425781 C1.19218487 4.65970156 1.31477642 7.45483298 1.4375 10.25 C1.47681641 11.21808594 1.51613281 12.18617187 1.55664062 13.18359375 C1.59853516 14.11816406 1.64042969 15.05273438 1.68359375 16.015625 C1.72025146 16.87446289 1.75690918 17.73330078 1.79467773 18.61816406 C1.98703514 20.84960143 2.38846244 22.84982524 3 25 C-3.18104159 29.06182733 -7.35594994 29.03443855 -14.484375 28.19140625 C-17.83442456 27.93651118 -20.71258641 28.35681038 -24 29 C-28.39647067 22.405294 -27.11087461 13.52926127 -26 6 C-26.66 5.67 -27.32 5.34 -28 5 C-26.68 5 -25.36 5 -24 5 C-24 11.93 -24 18.86 -24 26 C-21.69 26 -19.38 26 -17 26 C-17 17.75 -17 9.5 -17 1 C-16.67 1 -16.34 1 -16 1 C-15.98598145 1.92280762 -15.98598145 1.92280762 -15.97167969 2.86425781 C-15.91788915 5.66031086 -15.83426181 8.4547062 -15.75 11.25 C-15.73582031 12.21808594 -15.72164062 13.18617187 -15.70703125 14.18359375 C-15.56750879 19.7555444 -15.56750879 19.7555444 -13.2109375 24.67578125 C-9.42272648 26.94469209 -7.22056247 26.02110382 -3 25 C-0.84250216 21.76375324 -0.71639512 20.65605934 -0.5859375 16.89453125 C-0.54726562 15.91162109 -0.50859375 14.92871094 -0.46875 13.91601562 C-0.4378125 12.89185547 -0.406875 11.86769531 -0.375 10.8125 C-0.33632812 9.77673828 -0.29765625 8.74097656 -0.2578125 7.67382812 C-0.16351704 5.11606378 -0.07791798 2.55830713 0 0 Z " fill="#3C9553" transform="translate(101,87)"/>
<path d="M0 0 C1.32 0.33 2.64 0.66 4 1 C4.33 3.31 4.66 5.62 5 8 C5.99 5.69 6.98 3.38 8 1 C9.32 1.33 10.64 1.66 12 2 C11.34 7.28 10.68 12.56 10 18 C9.01 18 8.02 18 7 18 C6.67 16.68 6.34 15.36 6 14 C5.67 14.99 5.34 15.98 5 17 C4.34 17 3.68 17 3 17 C2.67 16.01 2.34 15.02 2 14 C1.67 14.99 1.34 15.98 1 17 C0.01 16.67 -0.98 16.34 -2 16 C-1.85936865 13.70800823 -1.71234057 11.41640814 -1.5625 9.125 C-1.48128906 7.84882813 -1.40007812 6.57265625 -1.31640625 5.2578125 C-1 2 -1 2 0 0 Z " fill="#E5F2EB" transform="translate(134,135)"/>
<path d="M0 0 C0.99 0 1.98 0 3 0 C3 9.24 3 18.48 3 28 C1.68 28 0.36 28 -1 28 C-1 20.74 -1 13.48 -1 6 C-2.65 6 -4.3 6 -6 6 C-6 5.01 -6 4.02 -6 3 C-5.195625 2.690625 -4.39125 2.38125 -3.5625 2.0625 C-1.10919595 1.23664655 -1.10919595 1.23664655 0 0 Z " fill="#F8FCFA" transform="translate(79,84)"/>
<path d="M0 0 C2.875 -0.125 2.875 -0.125 6 0 C8 2 8 2 8.265625 4.53125 C8.26046875 5.5109375 8.2553125 6.490625 8.25 7.5 C8.25515625 8.4796875 8.2603125 9.459375 8.265625 10.46875 C8 13 8 13 6 15 C3.5 15.25 3.5 15.25 1 15 C-1 13 -1 13 -1.23046875 10.46875 C-1.21628906 9.4890625 -1.20210937 8.509375 -1.1875 7.5 C-1.18105469 6.5203125 -1.17460937 5.540625 -1.16796875 4.53125 C-1 2 -1 2 0 0 Z " fill="#CBE6DB" transform="translate(134,97)"/>
<path d="M0 0 C0.99 0.66 1.98 1.32 3 2 C3 2.66 3 3.32 3 4 C4.65 4.33 6.3 4.66 8 5 C7.67 5.99 7.34 6.98 7 8 C7.639375 8.226875 8.27875 8.45375 8.9375 8.6875 C11 10 11 10 11.75 12.625 C11.87375 13.800625 11.87375 13.800625 12 15 C9.39417629 15.93065133 8.35801776 16.14917407 5.75 15.0625 C5.1725 14.711875 4.595 14.36125 4 14 C4 13.01 4 12.02 4 11 C3.1646875 10.8453125 3.1646875 10.8453125 2.3125 10.6875 C-0.49459905 9.85295704 -2.60599609 8.68227302 -5 7 C-5.33 6.01 -5.66 5.02 -6 4 C-4.02 4 -2.04 4 0 4 C0 2.68 0 1.36 0 0 Z " fill="#0C783D" transform="translate(77,168)"/>
<path d="M0 0 C1.4540625 0.0309375 1.4540625 0.0309375 2.9375 0.0625 C4.30021133 2.78792267 4.10673601 5.02337274 4.125 8.0625 C4.13917969 9.135 4.15335938 10.2075 4.16796875 11.3125 C3.9375 14.0625 3.9375 14.0625 1.9375 16.0625 C-2.61805556 15.50694444 -2.61805556 15.50694444 -4.0625 14.0625 C-4.1614294 11.89769203 -4.192211 9.72956215 -4.1875 7.5625 C-4.19007812 6.3765625 -4.19265625 5.190625 -4.1953125 3.96875 C-4.01769192 0.08199371 -4.01769192 0.08199371 0 0 Z " fill="#E5F2EB" transform="translate(125.0625,83.9375)"/>
<path d="M0 0 C0.33 0.99 0.66 1.98 1 3 C1.66 3 2.32 3 3 3 C3 3.66 3 4.32 3 5 C4.32 5 5.64 5 7 5 C6.814375 5.928125 6.62875 6.85625 6.4375 7.8125 C5.75876119 11.01343771 5.75876119 11.01343771 7 14 C2.83861737 14.08159574 -0.9472484 13.98248524 -5 13 C-5 10.03 -5 7.06 -5 4 C-3.68 3.67 -2.36 3.34 -1 3 C-0.67 2.01 -0.34 1.02 0 0 Z " fill="#3B9C53" transform="translate(164,153)"/>
<path d="M0 0 C1.65 0.33 3.3 0.66 5 1 C3.7874262 4.72433382 2.49140021 8.37802806 1 12 C1.78375 12.12375 2.5675 12.2475 3.375 12.375 C6 13 6 13 8 15 C8.1953125 18.0390625 8.1953125 18.0390625 8.125 21.625 C8.10695312 22.81351563 8.08890625 24.00203125 8.0703125 25.2265625 C8.04710937 26.14179687 8.02390625 27.05703125 8 28 C7.34 28.33 6.68 28.66 6 29 C6 24.71 6 20.42 6 16 C3.69 15.34 1.38 14.68 -1 14 C-1.05386629 16.12472576 -1.09273071 18.24983652 -1.125 20.375 C-1.15980469 22.15003906 -1.15980469 22.15003906 -1.1953125 23.9609375 C-1.32866229 27.11153817 -1.32866229 27.11153817 1 29 C2.31747324 29.69748583 3.64914193 30.36959957 5 31 C0.50970874 31.36407767 0.50970874 31.36407767 -1.75 29.75 C-3.12041836 27.83141429 -3.6018827 26.30908032 -4 24 C-4.99 25.98 -5.98 27.96 -7 30 C-8.65 30 -10.3 30 -12 30 C-11.505 28.515 -11.505 28.515 -11 27 C-11 27.66 -11 28.32 -11 29 C-10.01 29 -9.02 29 -8 29 C-7.74802856 28.20057983 -7.74802856 28.20057983 -7.4909668 27.38500977 C-5.56540752 21.42783089 -3.27988634 15.68878571 -0.8125 9.9375 C-0.44447266 9.07189453 -0.07644531 8.20628906 0.30273438 7.31445312 C1.19872592 5.20829117 2.09784655 3.10352808 3 1 C2.01 0.67 1.02 0.34 0 0 Z " fill="#105D26" transform="translate(135,83)"/>
<path d="M0 0 C1.32 0.33 2.64 0.66 4 1 C4.10807131 2.93627769 4.1856225 4.87427756 4.25 6.8125 C4.29640625 7.89144531 4.3428125 8.97039062 4.390625 10.08203125 C4 13 4 13 1.984375 14.88671875 C1.32953125 15.25410156 0.6746875 15.62148437 0 16 C0 15.34 0 14.68 0 14 C-1.98 14 -3.96 14 -6 14 C-6 12.35 -6 10.7 -6 9 C-4.68 9 -3.36 9 -2 9 C-2 8.34 -2 7.68 -2 7 C-2.99 7 -3.98 7 -5 7 C-5 6.01 -5 5.02 -5 4 C-4.0409375 3.8453125 -4.0409375 3.8453125 -3.0625 3.6875 C-2.381875 3.460625 -1.70125 3.23375 -1 3 C-0.67 2.01 -0.34 1.02 0 0 Z " fill="#289F45" transform="translate(99,134)"/>
<path d="M0 0 C0.99 0.33 1.98 0.66 3 1 C3.33 2.65 3.66 4.3 4 6 C4.66 4.68 5.32 3.36 6 2 C6.99 2.33 7.98 2.66 9 3 C7.68 7.62 6.36 12.24 5 17 C4.01 17 3.02 17 2 17 C1.67 15.02 1.34 13.04 1 11 C0.67 12.65 0.34 14.3 0 16 C-0.99 16 -1.98 16 -3 16 C-2.69075786 13.89535207 -2.3774944 11.7912947 -2.0625 9.6875 C-1.88847656 8.51574219 -1.71445313 7.34398437 -1.53515625 6.13671875 C-1 3 -1 3 0 0 Z " fill="#F0F9F1" transform="translate(158,139)"/>
<path d="M0 0 C3.9492568 0.55105909 7.34920174 1.38935371 11 3 C10.34 3.66 9.68 4.32 9 5 C9.66 5.66 10.32 6.32 11 7 C11.24291992 8.99951172 11.24291992 8.99951172 11.23046875 11.4296875 C11.22853516 12.30753906 11.22660156 13.18539062 11.22460938 14.08984375 C11.20624023 15.46849609 11.20624023 15.46849609 11.1875 16.875 C11.18685547 17.78636719 11.18621094 18.69773437 11.18554688 19.63671875 C11.15940069 23.60512932 11.10015286 27.16455435 10 31 C9.34 30.67 8.68 30.34 8 30 C8.309375 28.824375 8.309375 28.824375 8.625 27.625 C8.97465626 24.24498948 8.74254261 22.30493608 8 19.0625 C6.9933163 14.62638048 7.03772618 11.42645959 8 7 C7.01 7 6.02 7 5 7 C5 6.01 5 5.02 5 4 C3.63875 4.309375 3.63875 4.309375 2.25 4.625 C-1.11027897 5.0127245 -2.24075815 4.80411967 -5 3 C-5 2.34 -5 1.68 -5 1 C-3.35 1 -1.7 1 0 1 C0 0.67 0 0.34 0 0 Z " fill="#07793B" transform="translate(156,81)"/>
<path d="M0 0 C2.475 0.495 2.475 0.495 5 1 C5 6.94 5 12.88 5 19 C3.35 19.33 1.7 19.66 0 20 C0 13.4 0 6.8 0 0 Z " fill="#237437" transform="translate(108,88)"/>
<path d="M0 0 C1.0219043 0.19625977 1.0219043 0.19625977 2.06445312 0.39648438 C5.44812608 1.08249838 7.653892 1.748428 10.5625 3.6875 C7.48058296 4.36082993 4.3967592 5.02498859 1.3125 5.6875 C0.43980469 5.87828125 -0.43289062 6.0690625 -1.33203125 6.265625 C-2.59853516 6.53632813 -2.59853516 6.53632813 -3.890625 6.8125 C-4.66567383 6.98007813 -5.44072266 7.14765625 -6.23925781 7.3203125 C-8.4375 7.6875 -8.4375 7.6875 -12.4375 7.6875 C-12.4375 7.0275 -12.4375 6.3675 -12.4375 5.6875 C-11.1175 5.3575 -9.7975 5.0275 -8.4375 4.6875 C-8.7675 3.0375 -9.0975 1.3875 -9.4375 -0.3125 C-6.29797793 -1.88226103 -3.30416844 -0.68694377 0 0 Z " fill="#2CB141" transform="translate(165.4375,166.3125)"/>
<path d="M0 0 C0.33 0 0.66 0 1 0 C1 2.31 1 4.62 1 7 C1.99 6.67 2.98 6.34 4 6 C5.82470637 9.64941274 4.97721452 13.93689129 4.8125 17.9375 C4.79380859 18.85724609 4.77511719 19.77699219 4.75585938 20.72460938 C4.71912109 21.60826172 4.68238281 22.49191406 4.64453125 23.40234375 C4.61721924 24.21179443 4.58990723 25.02124512 4.56176758 25.85522461 C4 28 4 28 0 31 C0 20.77 0 10.54 0 0 Z " fill="#40B451" transform="translate(40,81)"/>
<path d="M0 0 C0.67095703 0.58007812 0.67095703 0.58007812 1.35546875 1.171875 C1.96003906 1.69265625 2.56460938 2.2134375 3.1875 2.75 C3.82300781 3.29785156 4.45851563 3.84570312 5.11328125 4.41015625 C6.6625797 5.71567275 8.26264654 6.96070933 9.875 8.1875 C12 10 12 10 13 13 C12.01 13.495 12.01 13.495 11 14 C10.236875 13.690625 9.47375 13.38125 8.6875 13.0625 C5.8517142 11.94137538 4.01017912 11.92281592 1 12 C-0.34332728 11.70955086 -1.68225804 11.39044206 -3 11 C-2.44894091 7.0507432 -1.61064629 3.65079826 0 0 Z " fill="#0B773D" transform="translate(109,51)"/>
<path d="M0 0 C2.875 0.9375 2.875 0.9375 4.875 3.9375 C7.3072848 11.99444339 3.66819118 18.86007746 -0.125 25.9375 C-0.785 26.2675 -1.445 26.5975 -2.125 26.9375 C-1.135 23.4725 -1.135 23.4725 -0.125 19.9375 C-0.90875 19.669375 -1.6925 19.40125 -2.5 19.125 C-5.125 17.9375 -5.125 17.9375 -7.125 14.9375 C-7.76656194 10.05118526 -8.04400253 5.49273506 -5.5 1.1875 C-3.125 -0.0625 -3.125 -0.0625 0 0 Z M-5.125 2.9375 C-5.25037741 5.08057896 -5.30074364 7.22828886 -5.3125 9.375 C-5.32667969 10.54933594 -5.34085937 11.72367188 -5.35546875 12.93359375 C-5.44399256 16.05246902 -5.44399256 16.05246902 -3.125 17.9375 C0.18183466 17.64766731 0.18183466 17.64766731 2.875 15.9375 C2.97400199 13.96037193 3.00470773 11.97959962 3 10 C3.00257813 8.91847656 3.00515625 7.83695312 3.0078125 6.72265625 C3.06507789 3.98090337 3.06507789 3.98090337 1.875 1.9375 C-1.93121045 1.49902641 -1.93121045 1.49902641 -5.125 2.9375 Z " fill="#176A2E" transform="translate(126.125,82.0625)"/>
<path d="M0 0 C2.31 0 4.62 0 7 0 C8 1 8 1 8.0625 4.5625 C8.041875 5.696875 8.02125 6.83125 8 8 C6.35 8.33 4.7 8.66 3 9 C3 11.31 3 13.62 3 16 C2.01 16 1.02 16 0 16 C0 10.72 0 5.44 0 0 Z " fill="#99D0AA" transform="translate(104,134)"/>
<path d="M0 0 C1.32 0 2.64 0 4 0 C5.12862175 5.36095333 5.09688221 10.55306686 5 16 C4.34 16 3.68 16 3 16 C3 15.01 3 14.02 3 13 C2.01 13 1.02 13 0 13 C-0.33 13.99 -0.66 14.98 -1 16 C-1.66 16 -2.32 16 -3 16 C-2.52013969 10.43109483 -1.70084819 5.32932432 0 0 Z " fill="#E6F5EB" transform="translate(116,134)"/>
<path d="M0 0 C0.66 1.32 1.32 2.64 2 4 C2.99 4.33 3.98 4.66 5 5 C5.09038099 10.15171623 4.84681133 14.91913204 4 20 C4.66 20.33 5.32 20.66 6 21 C2.92463146 20.34099246 0.92264434 19.46132217 -2 18 C-1.34 12.06 -0.68 6.12 0 0 Z " fill="#30B246" transform="translate(168,114)"/>
<path d="M0 0 C0.99 0 1.98 0 3 0 C3.84612033 5.07672201 4.26193091 9.84869218 4 15 C3.34 15.66 2.68 16.32 2 17 C-2.55555556 16.44444444 -2.55555556 16.44444444 -4 15 C-4.23527773 12.65012738 -4.41386417 10.29443961 -4.5625 7.9375 C-4.64628906 6.64714844 -4.73007813 5.35679687 -4.81640625 4.02734375 C-4.87699219 3.02832031 -4.93757813 2.02929688 -5 1 C-4.34 1 -3.68 1 -3 1 C-2.34 5.29 -1.68 9.58 -1 14 C-0.34 14 0.32 14 1 14 C0.67 9.38 0.34 4.76 0 0 Z " fill="#D8EFDB" transform="translate(74,136)"/>
<path d="M0 0 C1.3303125 0.25716797 1.3303125 0.25716797 2.6875 0.51953125 C5 1.1875 5 1.1875 7 3.1875 C6.01 3.5175 5.02 3.8475 4 4.1875 C4 3.5275 4 2.8675 4 2.1875 C3.34 2.1875 2.68 2.1875 2 2.1875 C2.99 3.6725 2.99 3.6725 4 5.1875 C6.3260857 5.56813221 8.66055264 5.90019945 11 6.1875 C11.99 6.8475 12.98 7.5075 14 8.1875 C14 9.5075 14 10.8275 14 12.1875 C9.14144459 10.754562 5.03669364 8.71195309 0.6875 6.1875 C0.05521484 5.83171875 -0.57707031 5.4759375 -1.22851562 5.109375 C-5.87323778 2.44102444 -5.87323778 2.44102444 -7 0.1875 C-4.31943083 -1.15278459 -2.91141236 -0.58820686 0 0 Z " fill="#39B54B" transform="translate(137,64.8125)"/>
<path d="M0 0 C1.32 0.99 2.64 1.98 4 3 C3.67 3.99 3.34 4.98 3 6 C4.65 6.33 6.3 6.66 8 7 C8 7.66 8 8.32 8 9 C8.99 9.33 9.98 9.66 11 10 C11 9.34 11 8.68 11 8 C11.66 8 12.32 8 13 8 C13 8.66 13 9.32 13 10 C13.99 10.33 14.98 10.66 16 11 C15.67 12.65 15.34 14.3 15 16 C12.25 16.3125 12.25 16.3125 9 16 C6.75 13.5625 6.75 13.5625 5 11 C4.34 10.67 3.68 10.34 3 10 C2.67 9.01 2.34 8.02 2 7 C1.01 6.67 0.02 6.34 -1 6 C-2.1875 3.9375 -2.1875 3.9375 -3 2 C-2.01 2 -1.02 2 0 2 C0 1.34 0 0.68 0 0 Z " fill="#1E8046" transform="translate(81,166)"/>
<path d="M0 0 C-3.25559127 3.62765884 -5.16428704 5.3283732 -10 6 C-10.33 6.66 -10.66 7.32 -11 8 C-13.0625 8.625 -13.0625 8.625 -15 9 C-15.79953138 5.71303767 -16.09658936 4.28976808 -15 1 C-9.24649166 -2.40513759 -6.26302977 -2.08767659 0 0 Z " fill="#1D8443" transform="translate(146,163)"/>
<path d="M0 0 C1.65 0 3.3 0 5 0 C4.01 0.33 3.02 0.66 2 1 C2 2.65 2 4.3 2 6 C2.99 6 3.98 6 5 6 C5.33 4.35 5.66 2.7 6 1 C6.66 1.33 7.32 1.66 8 2 C7.98259766 2.90492188 7.98259766 2.90492188 7.96484375 3.828125 C7.95582031 4.62734375 7.94679688 5.4265625 7.9375 6.25 C7.92589844 7.03890625 7.91429688 7.8278125 7.90234375 8.640625 C7.99614694 10.90691002 8.36758937 12.8288895 9 15 C8.01 15 7.02 15 6 15 C5.34 13.35 4.68 11.7 4 10 C3.67 11.65 3.34 13.3 3 15 C2.01 15 1.02 15 0 15 C0 10.05 0 5.1 0 0 Z " fill="#E3F4E7" transform="translate(80,136)"/>
<path d="M0 0 C1.65038488 2.9887222 2.4885716 5.71367438 3.125 9.0625 C3.29257813 9.91972656 3.46015625 10.77695313 3.6328125 11.66015625 C4 14 4 14 4 17 C2.68 16.67 1.36 16.34 0 16 C0.33 14.35 0.66 12.7 1 11 C0.34 11 -0.32 11 -1 11 C-1 12.32 -1 13.64 -1 15 C-1.99 15 -2.98 15 -4 15 C-4.66 11.37 -5.32 7.74 -6 4 C-5.01 4 -4.02 4 -3 4 C-3 4.66 -3 5.32 -3 6 C-2.01 6 -1.02 6 0 6 C-0.2784375 4.7934375 -0.2784375 4.7934375 -0.5625 3.5625 C-0.706875 2.716875 -0.85125 1.87125 -1 1 C-0.67 0.67 -0.34 0.34 0 0 Z " fill="#2E9E3D" transform="translate(67,137)"/>
<path d="M0 0 C1.32 0 2.64 0 4 0 C4 6.6 4 13.2 4 20 C2.68 20 1.36 20 0 20 C0 13.4 0 6.8 0 0 Z " fill="#23742A" transform="translate(91,88)"/>
<path d="M0 0 C0.99 0 1.98 0 3 0 C0.94661139 6.51470776 -1.49534683 12.78730029 -4.1875 19.0625 C-4.55552734 19.92810547 -4.92355469 20.79371094 -5.30273438 21.68554688 C-6.19872592 23.79170883 -7.09784655 25.89647192 -8 28 C-8.99 27.67 -9.98 27.34 -11 27 C-7.37 18.09 -3.74 9.18 0 0 Z " fill="#E0F1E9" transform="translate(135,84)"/>
<path d="M0 0 C2.5625 0.1875 2.5625 0.1875 4.5625 2.1875 C4.5625 3.1775 4.5625 4.1675 4.5625 5.1875 C3.5725 5.1875 2.5825 5.1875 1.5625 5.1875 C1.5625 4.5275 1.5625 3.8675 1.5625 3.1875 C0.5725 3.1875 -0.4175 3.1875 -1.4375 3.1875 C-1.1075 4.26 -0.7775 5.3325 -0.4375 6.4375 C0.5625 10.1875 0.5625 10.1875 0.5625 14.1875 C1.5525 14.1875 2.5425 14.1875 3.5625 14.1875 C3.5625 12.8675 3.5625 11.5475 3.5625 10.1875 C4.2225 10.1875 4.8825 10.1875 5.5625 10.1875 C5.605221 11.85361905 5.60313832 13.52132885 5.5625 15.1875 C4.5625 16.1875 4.5625 16.1875 2.125 16.375 C-0.4375 16.1875 -0.4375 16.1875 -2.4375 14.1875 C-2.88671875 11.18359375 -2.88671875 11.18359375 -3.125 7.625 C-3.21136719 6.44808594 -3.29773437 5.27117187 -3.38671875 4.05859375 C-3.40347656 3.11113281 -3.42023437 2.16367188 -3.4375 1.1875 C-2.4375 0.1875 -2.4375 0.1875 0 0 Z " fill="#DCEFDF" transform="translate(62.4375,137.8125)"/>
<path d="M0 0 C0.61875 0.268125 1.2375 0.53625 1.875 0.8125 C2.205 1.8025 2.535 2.7925 2.875 3.8125 C1.225 3.4825 -0.425 3.1525 -2.125 2.8125 C-2.125 3.8025 -2.125 4.7925 -2.125 5.8125 C-1.361875 6.080625 -0.59875 6.34875 0.1875 6.625 C2.78745703 7.77381822 4.26385423 8.48528944 5.875 10.8125 C5.62353421 12.94995922 5.41574221 14.27175779 3.875 15.8125 C2.20882885 15.85313832 0.54111905 15.855221 -1.125 15.8125 C-1.125 14.4925 -1.125 13.1725 -1.125 11.8125 C-0.795 12.4725 -0.465 13.1325 -0.125 13.8125 C0.865 13.8125 1.855 13.8125 2.875 13.8125 C2.13547893 10.5324677 2.13547893 10.5324677 -1.125 8.9375 C-4.125 6.8125 -4.125 6.8125 -5 4.0625 C-5.04125 3.32 -5.0825 2.5775 -5.125 1.8125 C-2.125 -0.1875 -2.125 -0.1875 0 0 Z " fill="#E8F6E8" transform="translate(44.125,142.1875)"/>
<path d="M0 0 C2.31 0 4.62 0 7 0 C7 0.99 7 1.98 7 3 C5.68 3 4.36 3 3 3 C3 4.32 3 5.64 3 7 C4.32 7 5.64 7 7 7 C7 7.66 7 8.32 7 9 C5.68 9 4.36 9 3 9 C3 10.65 3 12.3 3 14 C4.65 14 6.3 14 8 14 C8 14.66 8 15.32 8 16 C5.69 16 3.38 16 1 16 C0.14701624 12.32612505 -0.10789471 8.9552607 -0.0625 5.1875 C-0.05347656 4.21167969 -0.04445313 3.23585937 -0.03515625 2.23046875 C-0.02355469 1.49441406 -0.01195313 0.75835937 0 0 Z " fill="#D4EFD8" transform="translate(90,134)"/>
<path d="M0 0 C0 0.66 0 1.32 0 2 C-1.32 2 -2.64 2 -4 2 C-3.34 3.32 -2.68 4.64 -2 6 C-1.01 6 -0.02 6 1 6 C1 6.99 1 7.98 1 9 C0.01 9 -0.98 9 -2 9 C-2 10.65 -2 12.3 -2 14 C-0.35 13.67 1.3 13.34 3 13 C3 13.99 3 14.98 3 16 C0.69 16 -1.62 16 -4 16 C-4.50435694 14.0636296 -5.00333874 12.12585854 -5.5 10.1875 C-5.7784375 9.10855469 -6.056875 8.02960938 -6.34375 6.91796875 C-7 4 -7 4 -7 1 C-4 0 -4 0 0 0 Z " fill="#E9F5E9" transform="translate(56,140)"/>
<path d="M0 0 C2.31 0 4.62 0 7 0 C7.33 0.99 7.66 1.98 8 3 C6.35 3.33 4.7 3.66 3 4 C2.67 4.99 2.34 5.98 2 7 C2.99 7 3.98 7 5 7 C5 7.66 5 8.32 5 9 C3.68 9 2.36 9 1 9 C1 10.65 1 12.3 1 14 C2.32 14 3.64 14 5 14 C5 14.66 5 15.32 5 16 C2.69 16 0.38 16 -2 16 C-1.34 10.72 -0.68 5.44 0 0 Z " fill="#DBF1E2" transform="translate(148,138)"/>
<path d="M0 0 C0.33 0 0.66 0 1 0 C1.02505615 0.61520508 1.0501123 1.23041016 1.07592773 1.86425781 C1.19218487 4.65970156 1.31477642 7.45483298 1.4375 10.25 C1.47681641 11.21808594 1.51613281 12.18617187 1.55664062 13.18359375 C1.59853516 14.11816406 1.64042969 15.05273438 1.68359375 16.015625 C1.72025146 16.87446289 1.75690918 17.73330078 1.79467773 18.61816406 C1.98703514 20.84960143 2.38846244 22.84982524 3 25 C-3.36115489 29.1801875 -7.70210155 29.11323875 -15 28 C-14.67 26.68 -14.34 25.36 -14 24 C-12.515 24.99 -12.515 24.99 -11 26 C-9.00281193 26.13871359 -9.00281193 26.13871359 -6.9375 25.8125 C-6.24527344 25.73644531 -5.55304688 25.66039063 -4.83984375 25.58203125 C-2.605462 25.0863543 -2.605462 25.0863543 -1 22 C-0.6336141 19.58286521 -0.6336141 19.58286521 -0.5859375 16.89453125 C-0.54726562 15.91162109 -0.50859375 14.92871094 -0.46875 13.91601562 C-0.4378125 12.89185547 -0.406875 11.86769531 -0.375 10.8125 C-0.33632812 9.77673828 -0.29765625 8.74097656 -0.2578125 7.67382812 C-0.16351704 5.11606378 -0.07791798 2.55830713 0 0 Z " fill="#4FA25A" transform="translate(101,87)"/>
<path d="M0 0 C0.66 0.33 1.32 0.66 2 1 C2 1.66 2 2.32 2 3 C3.32 3 4.64 3 6 3 C5.34 5.31 4.68 7.62 4 10 C1.69 10 -0.62 10 -3 10 C-3.66 7.69 -4.32 5.38 -5 3 C-3.68 3 -2.36 3 -1 3 C-0.67 2.01 -0.34 1.02 0 0 Z " fill="#EBF3F0" transform="translate(107,179)"/>
<path d="M0 0 C0.99 0.33 1.98 0.66 3 1 C3.33 1.99 3.66 2.98 4 4 C4.66 2.68 5.32 1.36 6 0 C6.99 0.33 7.98 0.66 9 1 C8.54625 1.804375 8.0925 2.60875 7.625 3.4375 C5.7414944 7.56672383 4.83834096 11.56172434 4 16 C3.34 16 2.68 16 2 16 C1.34 10.72 0.68 5.44 0 0 Z " fill="#EFF8F2" transform="translate(123,135)"/>
<path d="M0 0 C0.8971875 0.5259375 0.8971875 0.5259375 1.8125 1.0625 C1.4825 3.0425 1.1525 5.0225 0.8125 7.0625 C1.8025 7.3925 2.7925 7.7225 3.8125 8.0625 C2.554375 8.10375 1.29625 8.145 0 8.1875 C-0.70769531 8.21070313 -1.41539062 8.23390625 -2.14453125 8.2578125 C-4.1875 8.0625 -4.1875 8.0625 -7.1875 6.0625 C-6.375 3.125 -6.375 3.125 -5.1875 0.0625 C-2.1875 -0.9375 -2.1875 -0.9375 0 0 Z " fill="#158144" transform="translate(152.1875,129.9375)"/>
<path d="M0 0 C0 0.66 0 1.32 0 2 C-1.73835057 3.06099328 -3.49119804 4.09826483 -5.25 5.125 C-6.71179688 5.99511719 -6.71179688 5.99511719 -8.203125 6.8828125 C-11 8 -11 8 -13.359375 7.1796875 C-13.90078125 6.79039063 -14.4421875 6.40109375 -15 6 C-14.01 5.67 -13.02 5.34 -12 5 C-12 4.34 -12 3.68 -12 3 C-11.01 3 -10.02 3 -9 3 C-9.33 2.01 -9.66 1.02 -10 0 C-6.7169902 -1.6415049 -3.57454967 -0.51888624 0 0 Z " fill="#3AB54E" transform="translate(81,67)"/>
<path d="M0 0 C6.75 0.75 6.75 0.75 9 3 C7.68 3.33 6.36 3.66 5 4 C4.86722656 4.69867188 4.73445312 5.39734375 4.59765625 6.1171875 C4.42105469 7.02726563 4.24445313 7.93734375 4.0625 8.875 C3.88847656 9.77992188 3.71445313 10.68484375 3.53515625 11.6171875 C3 14 3 14 2 16 C1.34 16 0.68 16 0 16 C0.51405169 11.03083364 1.23384882 6.70973649 3 2 C2.01 2 1.02 2 0 2 C0 1.34 0 0.68 0 0 Z " fill="#E6F4E8" transform="translate(168,142)"/>
<path d="M0 0 C1.32 0.33 2.64 0.66 4 1 C4.12375 1.969375 4.2475 2.93875 4.375 3.9375 C4.58125 4.948125 4.7875 5.95875 5 7 C5.66 7.33 6.32 7.66 7 8 C7 6.35 7 4.7 7 3 C9 5 9 5 9 8 C9.66 8 10.32 8 11 8 C11.33 6.35 11.66 4.7 12 3 C12.33 3 12.66 3 13 3 C13.1875 5.875 13.1875 5.875 13 9 C10 11 10 11 7.9375 10.625 C7.298125 10.41875 6.65875 10.2125 6 10 C5.34 10 4.68 10 4 10 C3.67 8.68 3.34 7.36 3 6 C2.34 6 1.68 6 1 6 C0.67 4.02 0.34 2.04 0 0 Z " fill="#087133" transform="translate(128,144)"/>
<path d="M0 0 C0.33 0.515625 0.66 1.03125 1 1.5625 C3.46229584 3.33227513 4.25492998 3.07158882 7.1875 2.6875 C8.445625 2.460625 9.70375 2.23375 11 2 C11.33 3.98 11.66 5.96 12 8 C14.97 8.495 14.97 8.495 18 9 C15.23547417 10.08724757 14.04676607 10.01466666 11.16015625 9.109375 C9.62681641 8.43648437 9.62681641 8.43648437 8.0625 7.75 C7.04285156 7.31171875 6.02320312 6.8734375 4.97265625 6.421875 C2.19756842 5.09450053 -0.39442828 3.63148137 -3 2 C-2.01 1.34 -1.02 0.68 0 0 Z " fill="#2CB040" transform="translate(86,192)"/>
<path d="M0 0 C0.33 0.99 0.66 1.98 1 3 C1.66 3 2.32 3 3 3 C2 5 2 5 -1 7 C-0.67 8.98 -0.34 10.96 0 13 C-1.65 13 -3.3 13 -5 13 C-5 10.03 -5 7.06 -5 4 C-3.68 3.67 -2.36 3.34 -1 3 C-0.67 2.01 -0.34 1.02 0 0 Z " fill="#2E964C" transform="translate(164,153)"/>
<path d="M0 0 C0.33 0 0.66 0 1 0 C1 3.63 1 7.26 1 11 C1.99 11 2.98 11 4 11 C4 8.03 4 5.06 4 2 C4.66 2.33 5.32 2.66 6 3 C6.02689216 4.47906892 6.04634621 5.95827483 6.0625 7.4375 C6.07410156 8.26121094 6.08570313 9.08492187 6.09765625 9.93359375 C6 12 6 12 5 13 C2.5 13.125 2.5 13.125 0 13 C-1 12 -1 12 -1.1328125 9.53125 C-1.13023437 8.5309375 -1.12765625 7.530625 -1.125 6.5 C-1.12757813 5.4996875 -1.13015625 4.499375 -1.1328125 3.46875 C-1 1 -1 1 0 0 Z " fill="#F7FCF8" transform="translate(135,99)"/>
<path d="M0 0 C1.32 0.66 2.64 1.32 4 2 C3.67 2.99 3.34 3.98 3 5 C2.01 5 1.02 5 0 5 C-0.33 5.66 -0.66 6.32 -1 7 C-2.99541868 7.68025637 -4.99617991 8.34490497 -7 9 C-8.69207001 9.9563874 -10.36816893 10.94410931 -12 12 C-10.52739378 8.35469608 -8.57140363 6.63148808 -5.4375 4.3125 C-4.63183594 3.71050781 -3.82617188 3.10851562 -2.99609375 2.48828125 C-2.33738281 1.99714844 -1.67867187 1.50601563 -1 1 C-0.67 0.67 -0.34 0.34 0 0 Z " fill="#147D41" transform="translate(94,61)"/>
<path d="M0 0 C0.99 0.33 1.98 0.66 3 1 C3 2.65 3 4.3 3 6 C2.34 6 1.68 6 1 6 C1 9.63 1 13.26 1 17 C0.01 16.67 -0.98 16.34 -2 16 C-1.85936865 13.70800823 -1.71234057 11.41640814 -1.5625 9.125 C-1.48128906 7.84882813 -1.40007812 6.57265625 -1.31640625 5.2578125 C-1 2 -1 2 0 0 Z " fill="#D9ECE2" transform="translate(134,135)"/>
<path d="M0 0 C0.33 0 0.66 0 1 0 C1.07347656 1.15628906 1.07347656 1.15628906 1.1484375 2.3359375 C1.22320312 3.33882813 1.29796875 4.34171875 1.375 5.375 C1.44460937 6.37273437 1.51421875 7.37046875 1.5859375 8.3984375 C1.76363964 11.15508879 1.76363964 11.15508879 4 13 C5.31747324 13.69748583 6.64914193 14.36959957 8 15 C3.50970874 15.36407767 3.50970874 15.36407767 1.25 13.75 C-0.12041836 11.83141429 -0.6018827 10.30908032 -1 8 C-1.99 9.98 -2.98 11.96 -4 14 C-5.65 14 -7.3 14 -9 14 C-8.67 13.01 -8.34 12.02 -8 11 C-8 11.66 -8 12.32 -8 13 C-7.01 13 -6.02 13 -5 13 C-4.80664062 12.39671875 -4.61328125 11.7934375 -4.4140625 11.171875 C-4.02347656 9.97304687 -4.02347656 9.97304687 -3.625 8.75 C-3.36976563 7.96109375 -3.11453125 7.1721875 -2.8515625 6.359375 C-2.04826333 4.13372042 -1.10288338 2.09068328 0 0 Z " fill="#045114" transform="translate(132,99)"/>
<path d="M0 0 C3.75257718 -0.34907695 5.56588078 -0.27011863 8.8125 1.75 C10.96634616 3.96538462 11.67715014 4.98673462 12 8 C10.68 8 9.36 8 8 8 C7.67 7.34 7.34 6.68 7 6 C5.05396726 5.40929986 5.05396726 5.40929986 3 5 C2.34 4.67 1.68 4.34 1 4 C0.375 1.9375 0.375 1.9375 0 0 Z " fill="#058B43" transform="translate(127,67)"/>
<path d="M0 0 C0.66 0.33 1.32 0.66 2 1 C1 4 1 4 -0.84765625 5.16796875 C-1.57855469 5.50441406 -2.30945313 5.84085938 -3.0625 6.1875 C-3.79597656 6.53167969 -4.52945313 6.87585937 -5.28515625 7.23046875 C-5.85105469 7.48441406 -6.41695313 7.73835938 -7 8 C-6.67 9.32 -6.34 10.64 -6 12 C-8.64 11.67 -11.28 11.34 -14 11 C-11.14325205 7.98306057 -8.17651069 5.59445469 -4.75 3.25 C-3.85796875 2.63640625 -2.9659375 2.0228125 -2.046875 1.390625 C-1.03367187 0.70226563 -1.03367187 0.70226563 0 0 Z " fill="#27B037" transform="translate(88,56)"/>
<path d="M0 0 C0.66 0 1.32 0 2 0 C4.6875 2.8125 4.6875 2.8125 7 6 C6.67 6.99 6.34 7.98 6 9 C7.32 9.33 8.64 9.66 10 10 C9.67 10.99 9.34 11.98 9 13 C7.0625 12.1875 7.0625 12.1875 5 11 C4.67 10.01 4.34 9.02 4 8 C3.34 8 2.68 8 2 8 C0.375 5.5 0.375 5.5 -1 3 C-0.34 3 0.32 3 1 3 C0.67 2.01 0.34 1.02 0 0 Z " fill="#38B54C" transform="translate(109,42)"/>
<path d="M0 0 C3 0 3 0 6 1 C1.53174216 4.60636039 -2.32146365 7.58036591 -8 9 C-6.68 6.69 -5.36 4.38 -4 2 C-3.01 2 -2.02 2 -1 2 C-0.67 1.34 -0.34 0.68 0 0 Z " fill="#2FB23F" transform="translate(133,188)"/>
<path d="M0 0 C2.31 1.98 4.62 3.96 7 6 C5 8 5 8 3.0546875 8.1953125 C1.03645833 8.13020833 -0.98177083 8.06510417 -3 8 C-2.01 5.36 -1.02 2.72 0 0 Z " fill="#027238" transform="translate(109,51)"/>
<path d="M0 0 C1.32 0 2.64 0 4 0 C4 0.99 4 1.98 4 3 C3.34 3 2.68 3 2 3 C2.165 3.598125 2.33 4.19625 2.5 4.8125 C3.3841537 8.68067243 2.81681385 12.1609749 2 16 C1.34 16.66 0.68 17.32 0 18 C0 12.06 0 6.12 0 0 Z " fill="#07733C" transform="translate(48,90)"/>
<path d="M0 0 C0.66 0 1.32 0 2 0 C2 0.66 2 1.32 2 2 C2.99 2.33 3.98 2.66 5 3 C4.67 4.65 4.34 6.3 4 8 C2.02 8 0.04 8 -2 8 C-2.33 6.02 -2.66 4.04 -3 2 C-2.01 2 -1.02 2 0 2 C0 1.34 0 0.68 0 0 Z " fill="#D6EADF" transform="translate(92,174)"/>
<path d="M0 0 C0.33 0 0.66 0 1 0 C1 2.64 1 5.28 1 8 C1.33 8 1.66 8 2 8 C1.67 11.3 1.34 14.6 1 18 C-0.98 17.67 -2.96 17.34 -5 17 C-4.01 16.67 -3.02 16.34 -2 16 C-1.34 10.72 -0.68 5.44 0 0 Z " fill="#08833D" transform="translate(165,114)"/>
<path d="M0 0 C0.66 0.33 1.32 0.66 2 1 C2 1.66 2 2.32 2 3 C2.99 3.33 3.98 3.66 5 4 C4.34 5.32 3.68 6.64 3 8 C1.35 8 -0.3 8 -2 8 C-2.66 6.35 -3.32 4.7 -4 3 C-3.01 2.67 -2.02 2.34 -1 2 C-0.67 1.34 -0.34 0.68 0 0 Z " fill="#DDEFE4" transform="translate(122,173)"/>
<path d="M0 0 C0.99 0.33 1.98 0.66 3 1 C3.05391993 2.79133978 3.09275571 4.58313899 3.125 6.375 C3.14820312 7.37273437 3.17140625 8.37046875 3.1953125 9.3984375 C3 12 3 12 1 14 C-0.38226016 11.23547967 -0.09525387 8.9538637 -0.0625 5.875 C-0.05347656 4.77929688 -0.04445313 3.68359375 -0.03515625 2.5546875 C-0.02355469 1.71164063 -0.01195313 0.86859375 0 0 Z " fill="#FAFEFC" transform="translate(113,91)"/>
<path d="M0 0 C0.99 0.33 1.98 0.66 3 1 C2.67 2.98 2.34 4.96 2 7 C2.99 7.33 3.98 7.66 5 8 C4.01 8 3.02 8 2 8 C2 10.31 2 12.62 2 15 C1.34 15 0.68 15 0 15 C0 10.05 0 5.1 0 0 Z " fill="#F8FDF8" transform="translate(105,135)"/>
<path d="M0 0 C0.66 0 1.32 0 2 0 C1.54857225 1.77260631 1.08859477 3.5430368 0.625 5.3125 C0.36976563 6.29863281 0.11453125 7.28476563 -0.1484375 8.30078125 C-1 11 -1 11 -3 14 C-4.16516703 10.60548006 -3.83093313 8.65924103 -2.625 5.3125 C-2.34914062 4.52488281 -2.07328125 3.73726562 -1.7890625 2.92578125 C-1 1 -1 1 0 0 Z " fill="#5DB45F" transform="translate(183,143)"/>
<path d="M0 0 C2.475 0.495 2.475 0.495 5 1 C5 9.58 5 18.16 5 27 C4.67 27 4.34 27 4 27 C3.98541748 26.2886792 3.97083496 25.5773584 3.95581055 24.84448242 C3.88138994 21.62493668 3.78471 18.40643482 3.6875 15.1875 C3.66494141 14.06794922 3.64238281 12.94839844 3.61914062 11.79492188 C3.58369141 10.72177734 3.54824219 9.64863281 3.51171875 8.54296875 C3.48553467 7.55321045 3.45935059 6.56345215 3.43237305 5.54370117 C2.94478784 2.67518042 2.25128105 1.76905088 0 0 Z " fill="#00964B" transform="translate(163,85)"/>
<path d="M0 0 C0.66 0.66 1.32 1.32 2 2 C0.47005208 3.20442708 -1.05989583 4.40885417 -2.58984375 5.61328125 C-4.27155077 7.05683091 -4.27155077 7.05683091 -5 10 C-7.4375 11.75 -7.4375 11.75 -10 13 C-10.66 12.67 -11.32 12.34 -12 12 C-8.04 8.04 -4.08 4.08 0 0 Z " fill="#026F33" transform="translate(107,49)"/>
<path d="M0 0 C0.99 0.33 1.98 0.66 3 1 C3 4.3 3 7.6 3 11 C2.01 11 1.02 11 0 11 C0 7.37 0 3.74 0 0 Z " fill="#0C683C" transform="translate(136,99)"/>
<path d="M0 0 C1.67542976 0.28604898 3.34385343 0.61781233 5 1 C3.6875 3.9375 3.6875 3.9375 2 7 C1.01 7.33 0.02 7.66 -1 8 C-1.04241723 5.66705225 -1.04092937 3.33297433 -1 1 C-0.67 0.67 -0.34 0.34 0 0 Z " fill="#2AB03C" transform="translate(42,80)"/>
<path d="M0 0 C0.33 1.32 0.66 2.64 1 4 C1.66 4 2.32 4 3 4 C3.33 3.01 3.66 2.02 4 1 C4 4.3 4 7.6 4 11 C3.34 11 2.68 11 2 11 C2 10.01 2 9.02 2 8 C1.01 7.67 0.02 7.34 -1 7 C-0.67 4.69 -0.34 2.38 0 0 Z " fill="#AED7BD" transform="translate(117,139)"/>
<path d="M0 0 C0.33 0 0.66 0 1 0 C1.20625 1.11375 1.4125 2.2275 1.625 3.375 C2.61628301 7.26599195 2.61628301 7.26599195 6.125 8.4375 C7.07375 8.623125 8.0225 8.80875 9 9 C9 9.33 9 9.66 9 10 C6.69 10 4.38 10 2 10 C2 9.34 2 8.68 2 8 C0.35 8 -1.3 8 -3 8 C-2.01 5.36 -1.02 2.72 0 0 Z " fill="#4A9D58" transform="translate(131,105)"/>
<path d="M0 0 C0.66 0 1.32 0 2 0 C2 3.63 2 7.26 2 11 C1.01 10.67 0.02 10.34 -1 10 C-1.02689216 8.52093108 -1.04634621 7.04172517 -1.0625 5.5625 C-1.07410156 4.73878906 -1.08570312 3.91507812 -1.09765625 3.06640625 C-1 1 -1 1 0 0 Z " fill="#266B33" transform="translate(124,86)"/>
<path d="M0 0 C0.66 0 1.32 0 2 0 C3.00496852 3.01490557 3.10335303 5.04181692 3.0625 8.1875 C3.05347656 9.08855469 3.04445313 9.98960937 3.03515625 10.91796875 C3.02355469 11.60503906 3.01195313 12.29210937 3 13 C2.34 13 1.68 13 1 13 C0.67 8.71 0.34 4.42 0 0 Z " fill="#F0F9F0" transform="translate(69,137)"/>
<path d="M0 0 C-0.33 1.32 -0.66 2.64 -1 4 C-2.65 4.33 -4.3 4.66 -6 5 C-6.66 3.35 -7.32 1.7 -8 0 C-4.94736336 -0.98120464 -3.05263664 -0.98120464 0 0 Z " fill="#187D3F" transform="translate(115,177)"/>
<path d="M0 0 C1.65 0 3.3 0 5 0 C4.01 0.33 3.02 0.66 2 1 C2 2.65 2 4.3 2 6 C3.65 6 5.3 6 7 6 C7 6.66 7 7.32 7 8 C4.69 8 2.38 8 0 8 C0 5.36 0 2.72 0 0 Z " fill="#F6FDF8" transform="translate(91,142)"/>
<path d="M0 0 C2.31 0 4.62 0 7 0 C7 2.62113708 6.68707555 4.50935112 6 7 C5.01 7 4.02 7 3 7 C3 5.35 3 3.7 3 2 C2.34 1.67 1.68 1.34 1 1 C0.67 2.32 0.34 3.64 0 5 C0 3.35 0 1.7 0 0 Z " fill="#83CA8C" transform="translate(79,135)"/>
<path d="M0 0 C4.455 1.98 4.455 1.98 9 4 C7 6 7 6 4.5 6.3125 C3.675 6.209375 2.85 6.10625 2 6 C0 3 0 3 0 0 Z " fill="#39B84F" transform="translate(87,190)"/>
<path d="M0 0 C0.99 0.33 1.98 0.66 3 1 C2.34 3.64 1.68 6.28 1 9 C-0.32 9 -1.64 9 -3 9 C-3 7.35 -3 5.7 -3 4 C-2.34 3.67 -1.68 3.34 -1 3 C-0.67 2.01 -0.34 1.02 0 0 Z " fill="#D3EBDB" transform="translate(164,141)"/>
<path d="M0 0 C0.33 0 0.66 0 1 0 C1.33 3.96 1.66 7.92 2 12 C1.34 11.01 0.68 10.02 0 9 C-0.99 9.495 -0.99 9.495 -2 10 C-2.6875 8.375 -2.6875 8.375 -3 6 C-1.5625 2.75 -1.5625 2.75 0 0 Z " fill="#167F43" transform="translate(131,136)"/>
<path d="M0 0 C2.31 0 4.62 0 7 0 C6.01 0.495 6.01 0.495 5 1 C4.09274566 3.11327425 4.09274566 3.11327425 3.375 5.5625 C3.11460937 6.38878906 2.85421875 7.21507812 2.5859375 8.06640625 C2.39257812 8.70449219 2.19921875 9.34257812 2 10 C1.67 10 1.34 10 1 10 C0.67 6.7 0.34 3.4 0 0 Z " fill="#0A6F31" transform="translate(137,135)"/>
<path d="M0 0 C1.485 0.99 1.485 0.99 3 2 C6.14221967 1.68493373 6.14221967 1.68493373 9 1 C8.39301257 5.12751449 6.96189209 8.3321148 5 12 C4.67 11.34 4.34 10.68 4 10 C4.9375 7.375 4.9375 7.375 6 5 C5.195625 4.731875 4.39125 4.46375 3.5625 4.1875 C2.716875 3.795625 1.87125 3.40375 1 3 C0.67 2.01 0.34 1.02 0 0 Z " fill="#045113" transform="translate(120,97)"/>
<path d="M0 0 C0.99 0.495 0.99 0.495 2 1 C3.00976752 6.0488376 3.48895013 9.3149174 1 14 C0.67 14 0.34 14 0 14 C0 9.38 0 4.76 0 0 Z " fill="#08622A" transform="translate(129,85)"/>
<path d="M0 0 C0.66 0.33 1.32 0.66 2 1 C0.68 3.31 -0.64 5.62 -2 8 C-2.33 7.34 -2.66 6.68 -3 6 C-3.66 6 -4.32 6 -5 6 C-5.33 5.01 -5.66 4.02 -6 3 C-4.03533587 1.93224776 -2.03144641 0.93446535 0 0 Z " fill="#38B64E" transform="translate(127,190)"/>
<path d="M0 0 C0.639375 0.2475 1.27875 0.495 1.9375 0.75 C2.2675 1.74 2.5975 2.73 2.9375 3.75 C1.2875 3.42 -0.3625 3.09 -2.0625 2.75 C-2.3925 3.41 -2.7225 4.07 -3.0625 4.75 C-4.0525 5.245 -4.0525 5.245 -5.0625 5.75 C-4.6875 3.3125 -4.6875 3.3125 -4.0625 0.75 C-2.0625 -0.25 -2.0625 -0.25 0 0 Z " fill="#DCEFDD" transform="translate(44.0625,142.25)"/>
<path d="M0 0 C0.99 0.33 1.98 0.66 3 1 C2.34 1 1.68 1 1 1 C1.0721875 1.59167969 1.144375 2.18335938 1.21875 2.79296875 C1.69910023 6.88261722 2.13310151 10.8738531 2 15 C0.14223235 11.86501708 -0.20140476 9.62528568 0 6 C-0.66 5.67 -1.32 5.34 -2 5 C-1.34 3.35 -0.68 1.7 0 0 Z " fill="#1D8F48" transform="translate(122,134)"/>
<path d="M0 0 C0.33 0 0.66 0 1 0 C1.1953125 2.01822917 1.390625 4.03645833 1.5859375 6.0546875 C1.86374749 8.22668245 1.86374749 8.22668245 4 10 C2.0625 10.5625 2.0625 10.5625 0 11 C-1 10 -1 10 -1.1328125 7.96875 C-1.13023438 7.1540625 -1.12765625 6.339375 -1.125 5.5 C-1.12757812 4.6853125 -1.13015625 3.870625 -1.1328125 3.03125 C-1 1 -1 1 0 0 Z " fill="#F5FBF7" transform="translate(122,88)"/>
<path d="M0 0 C0.40863281 0.44988281 0.81726563 0.89976562 1.23828125 1.36328125 C3.12546013 3.1165583 4.86807658 4.08482329 7.1875 5.1875 C7.90292969 5.53167969 8.61835937 5.87585938 9.35546875 6.23046875 C10.16951172 6.61138672 10.16951172 6.61138672 11 7 C8 8 8 8 5.30078125 6.78515625 C4.31464844 6.21667969 3.32851562 5.64820313 2.3125 5.0625 C1.31863281 4.49660156 0.32476562 3.93070313 -0.69921875 3.34765625 C-1.45847656 2.90292969 -2.21773438 2.45820313 -3 2 C-2.01 1.34 -1.02 0.68 0 0 Z " fill="#21AF33" transform="translate(86,192)"/>
<path d="M0 0 C0.66 0 1.32 0 2 0 C2.33 1.65 2.66 3.3 3 5 C5.31 5 7.62 5 10 5 C6.5980513 7.09350689 3.94727588 7.17942163 0 7 C0 4.69 0 2.38 0 0 Z " fill="#339B3C" transform="translate(49,151)"/>
<path d="M0 0 C0.66 0.66 1.32 1.32 2 2 C1.9765625 4.3828125 1.9765625 4.3828125 1.625 7.125 C1.51414063 8.03507813 1.40328125 8.94515625 1.2890625 9.8828125 C1.19367188 10.58148438 1.09828125 11.28015625 1 12 C0.34 11.67 -0.32 11.34 -1 11 C-1.14285714 3.57142857 -1.14285714 3.57142857 0 0 Z " fill="#0A7128" transform="translate(145,142)"/>
<path d="M0 0 C0.99 0 1.98 0 3 0 C3 0.66 3 1.32 3 2 C4.65 1.67 6.3 1.34 8 1 C8 1.99 8 2.98 8 4 C8.66 4.66 9.32 5.32 10 6 C4.68559972 6 3.78319167 4.52524678 0 1 C0 0.67 0 0.34 0 0 Z " fill="#37B94D" transform="translate(120,57)"/>
<path d="M0 0 C0.99 0.33 1.98 0.66 3 1 C3.33 1.99 3.66 2.98 4 4 C4.33 4.66 4.66 5.32 5 6 C4.34 6 3.68 6 3 6 C2.67 7.32 2.34 8.64 2 10 C0.35 9.67 -1.3 9.34 -3 9 C-1.68 8.01 -0.36 7.02 1 6 C0.67 4.02 0.34 2.04 0 0 Z " fill="#117C40" transform="translate(96,175)"/>
<path d="M0 0 C0.66 0 1.32 0 2 0 C2.042721 1.66611905 2.04063832 3.33382885 2 5 C1 6 1 6 -1.5625 6.0625 C-2.7690625 6.0315625 -2.7690625 6.0315625 -4 6 C-4.33 4.68 -4.66 3.36 -5 2 C-4.34 2 -3.68 2 -3 2 C-3 2.66 -3 3.32 -3 4 C-2.01 4 -1.02 4 0 4 C0 2.68 0 1.36 0 0 Z " fill="#EFF9F0" transform="translate(66,148)"/>
<path d="M0 0 C2.31 0 4.62 0 7 0 C7.33 0.99 7.66 1.98 8 3 C5.36 3.33 2.72 3.66 0 4 C0 2.68 0 1.36 0 0 Z " fill="#D9ECDE" transform="translate(148,138)"/>
<path d="M0 0 C2.475 0.495 2.475 0.495 5 1 C4.01 1.495 4.01 1.495 3 2 C3 3.65 3 5.3 3 7 C2.01 7 1.02 7 0 7 C0 4.69 0 2.38 0 0 Z " fill="#409E52" transform="translate(166,133)"/>
<path d="M0 0 C3.16115776 1.36983503 3.9927092 1.9890638 6 5 C5.34 5.66 4.68 6.32 4 7 C3.01 6.67 2.02 6.34 1 6 C0.67 4.02 0.34 2.04 0 0 Z " fill="#35B143" transform="translate(122,53)"/>
<path d="M0 0 C1.32 0.99 2.64 1.98 4 3 C3.67 3.99 3.34 4.98 3 6 C1.68 6 0.36 6 -1 6 C-1.66 4.68 -2.32 3.36 -3 2 C-2.01 2 -1.02 2 0 2 C0 1.34 0 0.68 0 0 Z " fill="#DEF1E4" transform="translate(81,166)"/>
<path d="M0 0 C-0.33 1.32 -0.66 2.64 -1 4 C-2.32 4.33 -3.64 4.66 -5 5 C-5.33 3.35 -5.66 1.7 -6 0 C-3.50907189 -1.24546405 -2.58919267 -0.7767578 0 0 Z " fill="#DBEFE2" transform="translate(136,167)"/>
<path d="M0 0 C2.97 0.495 2.97 0.495 6 1 C6 2.65 6 4.3 6 6 C5.01 6 4.02 6 3 6 C2.67 5.01 2.34 4.02 2 3 C1.01 3 0.02 3 -1 3 C-0.67 2.01 -0.34 1.02 0 0 Z " fill="#61B662" transform="translate(180,136)"/>
<path d="M0 0 C0.99 0.33 1.98 0.66 3 1 C2.525625 1.886875 2.05125 2.77375 1.5625 3.6875 C0.20262851 6.57042756 -0.54060386 8.87610623 -1 12 C-1.33 12 -1.66 12 -2 12 C-3.35384615 5.72307692 -3.35384615 5.72307692 -1.5625 2.0625 C-1.046875 1.381875 -0.53125 0.70125 0 0 Z " fill="#E0F4E7" transform="translate(129,135)"/>
<path d="M0 0 C0.6875 1.8125 0.6875 1.8125 1 4 C-0.84159673 6.48615558 -2.00470711 7.00156904 -5 8 C-5 6.35 -5 4.7 -5 3 C-4.360625 2.87625 -3.72125 2.7525 -3.0625 2.625 C-2.0415625 2.315625 -2.0415625 2.315625 -1 2 C-0.67 1.34 -0.34 0.68 0 0 Z " fill="#4EA556" transform="translate(59,146)"/>
<path d="M0 0 C2 2 2 2 2.1953125 3.9453125 C2.13020833 5.96354167 2.06510417 7.98177083 2 10 C1.01 10 0.02 10 -1 10 C-0.67 6.7 -0.34 3.4 0 0 Z " fill="#0FA129" transform="translate(88,137)"/>
<path d="M0 0 C1.98 0 3.96 0 6 0 C6.33 1.65 6.66 3.3 7 5 C6.01 5 5.02 5 4 5 C3.67 4.34 3.34 3.68 3 3 C2.01 3 1.02 3 0 3 C0 2.01 0 1.02 0 0 Z " fill="#33945C" transform="translate(150,142)"/>
<path d="M0 0 C0 0.66 0 1.32 0 2 C-1.32 2 -2.64 2 -4 2 C-4.33 3.65 -4.66 5.3 -5 7 C-7 4 -7 4 -7 1 C-4 0 -4 0 0 0 Z " fill="#F2FBF1" transform="translate(56,140)"/>
<path d="M0 0 C0.33 0 0.66 0 1 0 C1.07654536 4.51617599 1.10228696 8.59085217 0 13 C-2 11 -2 11 -2.125 7.875 C-2.08375 6.92625 -2.0425 5.9775 -2 5 C-1.34 5 -0.68 5 0 5 C0 3.35 0 1.7 0 0 Z " fill="#B3D7C5" transform="translate(137,136)"/>
<path d="M0 0 C0.66 0 1.32 0 2 0 C2 3.3 2 6.6 2 10 C1.01 10.33 0.02 10.66 -1 11 C-1.33 11.66 -1.66 12.32 -2 13 C-1.67 11.02 -1.34 9.04 -1 7 C-0.34 7 0.32 7 1 7 C0.67 4.69 0.34 2.38 0 0 Z " fill="#20B133" transform="translate(172,81)"/>
<path d="M0 0 C0.66 0.33 1.32 0.66 2 1 C2 1.66 2 2.32 2 3 C0.68 3.33 -0.64 3.66 -2 4 C-2 4.66 -2 5.32 -2 6 C-2.99 6 -3.98 6 -5 6 C-5 4.68 -5 3.36 -5 2 C-3.35 2 -1.7 2 0 2 C0 1.34 0 0.68 0 0 Z " fill="#168540" transform="translate(154,145)"/>
<path d="M0 0 C0.99 0.33 1.98 0.66 3 1 C2.67 3.31 2.34 5.62 2 8 C1.01 8 0.02 8 -1 8 C-0.67 5.36 -0.34 2.72 0 0 Z " fill="#E3F5EB" transform="translate(156,147)"/>
<path d="M0 0 C1.32 0.33 2.64 0.66 4 1 C4 3.31 4 5.62 4 8 C3.67 7.34 3.34 6.68 3 6 C2.34 6 1.68 6 1 6 C0.67 4.02 0.34 2.04 0 0 Z " fill="#067121" transform="translate(128,144)"/>
<path d="M0 0 C0.99 0 1.98 0 3 0 C2.649375 1.11375 2.29875 2.2275 1.9375 3.375 C0.62760669 6.80264476 0.62760669 6.80264476 2 9 C1.34 9.66 0.68 10.32 0 11 C-1.16461426 7.50615721 -1.13568319 4.66344611 -1 1 C-0.67 0.67 -0.34 0.34 0 0 Z " fill="#187D40" transform="translate(51,117)"/>
<path d="M0 0 C3.63559661 3.43361902 6.36113346 6.7973607 9 11 C4.93146657 9.64382219 3.53149125 7.39752774 1 4 C0.1875 1.625 0.1875 1.625 0 0 Z " fill="#25B031" transform="translate(109,38)"/>
<path d="M0 0 C1.32 0.66 2.64 1.32 4 2 C2.71034824 3.37562854 1.37310707 4.70766393 0 6 C-0.66 6 -1.32 6 -2 6 C-1.125 1.125 -1.125 1.125 0 0 Z " fill="#1C814D" transform="translate(127,176)"/>
<path d="M0 0 C3 3 3 3 3.1875 6.1875 C3.0946875 7.5796875 3.0946875 7.5796875 3 9 C2.01 9 1.02 9 0 9 C0 6.03 0 3.06 0 0 Z " fill="#ACD3C2" transform="translate(141,144)"/>
<path d="M0 0 C1.98 0 3.96 0 6 0 C6 0.99 6 1.98 6 3 C5.01 3 4.02 3 3 3 C2.67 3.66 2.34 4.32 2 5 C2 4.34 2 3.68 2 3 C1.01 2.67 0.02 2.34 -1 2 C-0.67 1.34 -0.34 0.68 0 0 Z " fill="#D4E9D5" transform="translate(51,146)"/>
<path d="M0 0 C1.32 1.65 2.64 3.3 4 5 C2.68 5.33 1.36 5.66 0 6 C0 5.01 0 4.02 0 3 C-1.32 2.67 -2.64 2.34 -4 2 C-2.68 1.34 -1.36 0.68 0 0 Z " fill="#299C36" transform="translate(59,150)"/>
<path d="M0 0 C1.42944945 2.35438733 2.08661261 3.48032433 1.625 6.25 C1.41875 6.8275 1.2125 7.405 1 8 C0.34 8 -0.32 8 -1 8 C-1.625 5.6875 -1.625 5.6875 -2 3 C-1.34 2.01 -0.68 1.02 0 0 Z " fill="#489851" transform="translate(123,103)"/>
<path d="M0 0 C2.475 0.99 2.475 0.99 5 2 C4.67 3.32 4.34 4.64 4 6 C3.01 5.67 2.02 5.34 1 5 C0.67 3.35 0.34 1.7 0 0 Z " fill="#3CB84D" transform="translate(97,195)"/>
<path d="M0 0 C0.66 1.32 1.32 2.64 2 4 C1 5 1 5 -1.5625 5.0625 C-2.7690625 5.0315625 -2.7690625 5.0315625 -4 5 C-4 3.68 -4 2.36 -4 1 C-3.67 1.66 -3.34 2.32 -3 3 C-2.01 3 -1.02 3 0 3 C0 2.01 0 1.02 0 0 Z " fill="#EFFAEE" transform="translate(47,153)"/>
<path d="M0 0 C-0.57344937 2.86724686 -0.8614515 3.8614515 -3 6 C-3 5.34 -3 4.68 -3 4 C-4.32 3.67 -5.64 3.34 -7 3 C-6.01 3 -5.02 3 -4 3 C-4 2.34 -4 1.68 -4 1 C-2 0 -2 0 0 0 Z " fill="#2F8C53" transform="translate(156,148)"/>
<path d="M0 0 C3 0 3 0 6 1 C4.35 2.32 2.7 3.64 1 5 C0.34 4.67 -0.32 4.34 -1 4 C-0.67 2.68 -0.34 1.36 0 0 Z " fill="#25B030" transform="translate(133,188)"/>
<path d="M0 0 C1.98 0 3.96 0 6 0 C6 0.99 6 1.98 6 3 C4.35 3 2.7 3 1 3 C0.67 2.01 0.34 1.02 0 0 Z " fill="#37B049" transform="translate(164,167)"/>
<path d="M0 0 C1.65 0 3.3 0 5 0 C4.67 1.98 4.34 3.96 4 6 C1 4 1 4 0.3125 1.875 C0.209375 1.25625 0.10625 0.6375 0 0 Z " fill="#097838" transform="translate(64,163)"/>
<path d="M0 0 C2.15377564 2.62198774 3.40072174 4.64404172 4 8 C3.01 8 2.02 8 1 8 C0.67 5.36 0.34 2.72 0 0 Z " fill="#EAFAEE" transform="translate(85,143)"/>
<path d="M0 0 C0.33 1.32 0.66 2.64 1 4 C1.99 4 2.98 4 4 4 C4 4.66 4 5.32 4 6 C2.35 6 0.7 6 -1 6 C-1.042721 4.33388095 -1.04063832 2.66617115 -1 1 C-0.67 0.67 -0.34 0.34 0 0 Z " fill="#F9FCFA" transform="translate(149,141)"/>
<path d="M0 0 C2.0625 0.4375 2.0625 0.4375 4 1 C4.33 2.32 4.66 3.64 5 5 C4.01 5 3.02 5 2 5 C2 4.01 2 3.02 2 2 C1.01 1.67 0.02 1.34 -1 1 C-0.67 0.67 -0.34 0.34 0 0 Z " fill="#E3F4E6" transform="translate(62,138)"/>
<path d="M0 0 C0.33 0 0.66 0 1 0 C1.33 2.31 1.66 4.62 2 7 C0.68 7 -0.64 7 -2 7 C-1.125 2.25 -1.125 2.25 0 0 Z " fill="#33914F" transform="translate(138,88)"/>
<path d="M0 0 C0.66 0.66 1.32 1.32 2 2 C1.625 4.625 1.625 4.625 1 7 C0.01 6.67 -0.98 6.34 -2 6 C-1.34 4.02 -0.68 2.04 0 0 Z " fill="#37924E" transform="translate(102,81)"/>
<path d="M0 0 C2 0 2 0 3.4375 1.375 C3.953125 1.91125 4.46875 2.4475 5 3 C5.99 3.66 6.98 4.32 8 5 C6.1875 5.625 6.1875 5.625 4 6 C1 4 1 4 0.3125 1.875 C0.209375 1.25625 0.10625 0.6375 0 0 Z " fill="#177E3F" transform="translate(127,67)"/>
</svg>
