<?xml version="1.0" encoding="UTF-8"?>
<svg version="1.1" xmlns="http://www.w3.org/2000/svg" width="512" height="512">
<path d="M0 0 C0.85609863 0.20898926 1.71219727 0.41797852 2.59423828 0.63330078 C32.86364219 8.3230542 61.11721008 23.5492392 83.42626953 45.45703125 C85.05005037 47.04907204 86.69391029 48.61839903 88.33984375 50.1875 C115.63780197 76.4973507 132.93168251 112.20516152 139.3125 149.375 C139.48410645 150.36105225 139.65571289 151.34710449 139.83251953 152.36303711 C139.9870459 153.32346924 140.14157227 154.28390137 140.30078125 155.2734375 C140.43653564 156.11310059 140.57229004 156.95276367 140.7121582 157.81787109 C141.13812542 162.52699463 141 167.27165012 141 172 C19.56 172 -101.88 172 -227 172 C-227 139.01150631 -216.13245487 106.46600999 -198 79 C-197.61231445 78.41025391 -197.22462891 77.82050781 -196.82519531 77.21289062 C-190.69470896 68.00460891 -183.6951463 59.92414011 -176 52 C-175.4750293 51.44924805 -174.95005859 50.89849609 -174.40917969 50.33105469 C-149.21714461 23.91238369 -116.47185786 6.99355239 -81 -1 C-80.31583008 -1.16516113 -79.63166016 -1.33032227 -78.92675781 -1.50048828 C-54.18859242 -7.30393465 -24.50278433 -6.00942183 0 0 Z " fill="#000000" transform="translate(299,220)"/>
<path d="M0 0 C0.7547634 -0.00581376 1.50952681 -0.01162753 2.28716183 -0.01761746 C4.81892275 -0.03222759 7.34971571 -0.01832799 9.88146973 -0.00457001 C11.71378831 -0.00917853 13.5461032 -0.01553112 15.37841034 -0.02347898 C20.41566974 -0.0402021 25.45262664 -0.03191234 30.48988724 -0.01953411 C35.92146115 -0.01049817 41.35298239 -0.02444612 46.7845459 -0.0354538 C57.42583641 -0.05325915 68.0670142 -0.04939004 78.70830917 -0.03780323 C87.35515011 -0.02877712 96.00195942 -0.02754135 104.64880371 -0.0318985 C105.87851882 -0.03251143 107.10823394 -0.03312436 108.37521315 -0.03375587 C110.87319756 -0.03503474 113.37118197 -0.0363316 115.86916637 -0.03764623 C138.63559834 -0.0487325 161.40197274 -0.03722711 184.16839492 -0.01627585 C204.95364553 0.00270675 225.73879811 0.00100824 246.52404785 -0.01811981 C269.87378691 -0.03953604 293.22347176 -0.04795925 316.5732193 -0.03567076 C319.06211852 -0.03439653 321.55101775 -0.03313905 324.03991699 -0.0318985 C325.26456775 -0.0312814 326.48921851 -0.03066429 327.7509799 -0.03002849 C336.38946058 -0.02657186 345.02790653 -0.03241068 353.66638184 -0.04181671 C364.19090511 -0.05302424 374.71530901 -0.05002285 385.23981857 -0.02869374 C390.61167726 -0.01816659 395.98333679 -0.0140899 401.35519409 -0.02729034 C406.27013164 -0.03918551 411.18468489 -0.03269916 416.09958744 -0.01138014 C417.88011831 -0.00690187 419.66068146 -0.00920769 421.44119167 -0.01888329 C423.85749929 -0.03100944 426.27248271 -0.01861171 428.6887207 0 C429.38357291 -0.00936466 430.07842512 -0.01872933 430.79433346 -0.02837777 C435.74324584 0.04805657 438.50921064 1.45130138 442.34436035 4.50336456 C445.97269699 8.32266628 446.65436493 11.38615462 446.84436035 16.50336456 C446.65436493 21.6205745 445.97269699 24.68406284 442.34436035 28.50336456 C437.80488555 32.11593902 434.36525629 33.08323295 428.6887207 33.00672913 C427.9339573 33.01254289 427.1791939 33.01835665 426.40155888 33.02434659 C423.86979796 33.03895672 421.33900499 33.02505711 418.80725098 33.01129913 C416.97493239 33.01590765 415.1426175 33.02226024 413.31031036 33.03020811 C408.27305096 33.04693123 403.23609406 33.03864147 398.19883347 33.02626324 C392.76725956 33.0172273 387.33573831 33.03117524 381.9041748 33.04218292 C371.26288429 33.05998828 360.6217065 33.05611916 349.98041153 33.04453236 C341.33357059 33.03550625 332.68676129 33.03427048 324.03991699 33.03862762 C322.81020188 33.03924056 321.58048676 33.03985349 320.31350756 33.04048499 C317.81552314 33.04176387 315.31753873 33.04306072 312.81955433 33.04437536 C290.05312236 33.05546162 267.28674796 33.04395624 244.52032578 33.02300497 C223.73507518 33.00402238 202.9499226 33.00572088 182.16467285 33.02484894 C158.8149338 33.04626516 135.46524895 33.05468838 112.1155014 33.04239988 C109.62660218 33.04112566 107.13770295 33.03986818 104.64880371 33.03862762 C103.42415295 33.03801052 102.19950219 33.03739342 100.9377408 33.03675762 C92.29926012 33.03330099 83.66081417 33.03913981 75.02233887 33.04854584 C64.4978156 33.05975337 53.97341169 33.05675198 43.44890213 33.03542286 C38.07704344 33.02489572 32.70538392 33.02081902 27.33352661 33.03401947 C22.41858907 33.04591463 17.50403581 33.03942829 12.58913326 33.01810926 C10.80860239 33.01363099 9.02803924 33.01593682 7.24752903 33.02561241 C4.83122141 33.03773856 2.416238 33.02534083 0 33.00672913 C-1.04227831 33.02077612 -1.04227831 33.02077612 -2.10561275 33.0351069 C-7.05452513 32.95867256 -9.82048993 31.55542774 -13.65563965 28.50336456 C-17.28397628 24.68406284 -17.96564423 21.6205745 -18.15563965 16.50336456 C-17.96564423 11.38615462 -17.28397628 8.32266628 -13.65563965 4.50336456 C-9.11616485 0.89079011 -5.67653558 -0.07650382 0 0 Z " fill="#000000" transform="translate(41.6556396484375,407.4966354370117)"/>
<path d="M0 0 C132.99 0 265.98 0 403 0 C399.535 5.445 399.535 5.445 396 11 C394.93458984 12.70929688 394.93458984 12.70929688 393.84765625 14.453125 C388.91839043 22.17600099 383.93426306 28.96872806 375 32 C372.15682667 32.25299966 372.15682667 32.25299966 368.97226238 32.25726891 C367.75501907 32.2637178 366.53777576 32.27016669 365.28364629 32.276811 C363.93614199 32.27386884 362.5886381 32.27073342 361.24113464 32.26742554 C359.80708795 32.27116229 358.37304329 32.27576392 356.93900186 32.28115618 C352.99797248 32.29339853 349.05702791 32.29312427 345.11598384 32.29076743 C340.86569526 32.29035958 336.61543397 32.30139542 332.36515808 32.31088257 C324.037863 32.32750033 315.71059623 32.33299247 307.38328596 32.33410732 C300.61478107 32.33505743 293.84628552 32.33916588 287.07778358 32.34550858 C267.890385 32.36312313 248.7030088 32.37234712 229.51560207 32.37084763 C228.48105642 32.37076772 227.44651076 32.3706878 226.38061523 32.37060547 C225.34480728 32.37052371 224.30899934 32.37044195 223.24180327 32.37035771 C206.4539179 32.36954475 189.66612225 32.38868421 172.87826284 32.4168822 C155.64311038 32.4456032 138.40800168 32.45942293 121.17282468 32.45769465 C111.49557636 32.45703048 101.81842208 32.46253478 92.1411953 32.48405075 C83.90187433 32.50225224 75.66269004 32.50661839 67.42335769 32.4930319 C63.21980805 32.48649701 59.01652068 32.48640373 54.81299591 32.5037384 C50.96311959 32.51945135 47.1137139 32.51662401 43.26384918 32.49917014 C41.8728809 32.49609629 40.48187766 32.49974723 39.09095063 32.51089029 C30.26550404 32.57689728 23.8087217 32.17449942 16.91381836 26.18896484 C16.41503174 25.57746582 15.91624512 24.9659668 15.40234375 24.3359375 C14.83499512 23.64081055 14.26764648 22.94568359 13.68310547 22.22949219 C10.83149762 18.45216657 8.15952475 14.58081937 5.5625 10.625 C5.02173828 9.81933594 4.48097656 9.01367188 3.92382812 8.18359375 C0 2.26064712 0 2.26064712 0 0 Z " fill="#000000" transform="translate(55,456)"/>
<path d="M0 0 C1.02486511 -0.01606293 2.04973022 -0.03212585 3.10565186 -0.04867554 C7.80708291 -0.09298706 12.50836994 -0.13420395 17.20996094 -0.15722656 C19.69117617 -0.17378098 22.17234383 -0.20106383 24.65332031 -0.23925781 C28.22388548 -0.29397729 31.79332999 -0.31589566 35.36425781 -0.33056641 C36.47275085 -0.35323578 37.5812439 -0.37590515 38.72332764 -0.39926147 C47.30178801 -0.37569565 47.30178801 -0.37569565 50.36914062 2.66308594 C50.97081055 3.49791504 51.57248047 4.33274414 52.19238281 5.19287109 C52.68738281 5.68787109 52.68738281 5.68787109 53.19238281 6.19287109 C54.50064253 14.63297095 51.56533236 20.83638981 47.75488281 28.19287109 C47.23861328 29.22798828 46.72234375 30.26310547 46.19042969 31.32958984 C44.87517699 33.96009523 43.5396085 36.57865006 42.19238281 39.19287109 C41.69738281 40.18287109 41.69738281 40.18287109 41.19238281 41.19287109 C27.99238281 41.19287109 14.79238281 41.19287109 1.19238281 41.19287109 C-4.24511719 29.81787109 -4.24511719 29.81787109 -5.95776367 26.234375 C-6.40192627 25.30544434 -6.84608887 24.37651367 -7.30371094 23.41943359 C-7.75931396 22.46633301 -8.21491699 21.51323242 -8.68432617 20.53125 C-9.38147644 19.07997739 -10.08758792 17.63292962 -10.80761719 16.19287109 C-11.22710345 12.8070177 -11.30176241 9.57218678 -10.80761719 6.19287109 C-8.37011719 3.13037109 -8.37011719 3.13037109 -5.80761719 1.19287109 C-4.165192 -0.4495541 -2.26467198 0.03212961 0 0 Z " fill="#000000" transform="translate(234.8076171875,159.80712890625)"/>
<path d="M0 0 C5.00099548 2.65848126 9.7045025 5.25876024 14 9 C12.39538229 13.74966842 9.75971753 17.53737518 6.9375 21.625 C6.02675382 22.94832825 5.11906999 24.27377066 4.21484375 25.6015625 C3.81386475 26.18244629 3.41288574 26.76333008 2.99975586 27.36181641 C0.24254832 31.87973157 0.46535745 36.89798255 1 42 C2.86923665 47.90048197 6.91375302 53.09121556 10.31640625 58.19140625 C15.68794527 67.15227992 16.52067349 75.79071099 15 86 C11.64919201 96.42831589 4.53878223 105.34302071 -2 114 C-7.00099548 111.34151874 -11.7045025 108.74123976 -16 105 C-14.39538229 100.25033158 -11.75971753 96.46262482 -8.9375 92.375 C-8.02675382 91.05167175 -7.11906999 89.72622934 -6.21484375 88.3984375 C-5.81386475 87.81755371 -5.41288574 87.23666992 -4.99975586 86.63818359 C-2.24254832 82.12026843 -2.46535745 77.10201745 -3 72 C-4.86923665 66.09951803 -8.91375302 60.90878444 -12.31640625 55.80859375 C-17.68794527 46.84772008 -18.52067349 38.20928901 -17 28 C-13.64919201 17.57168411 -6.53878223 8.65697929 0 0 Z " fill="#000000" transform="translate(321,11)"/>
<path d="M0 0 C5.00099548 2.65848126 9.7045025 5.25876024 14 9 C12.39538229 13.74966842 9.75971753 17.53737518 6.9375 21.625 C6.02675382 22.94832825 5.11906999 24.27377066 4.21484375 25.6015625 C3.81386475 26.18244629 3.41288574 26.76333008 2.99975586 27.36181641 C0.24254832 31.87973157 0.46535745 36.89798255 1 42 C2.86923665 47.90048197 6.91375302 53.09121556 10.31640625 58.19140625 C15.68794527 67.15227992 16.52067349 75.79071099 15 86 C11.64919201 96.42831589 4.53878223 105.34302071 -2 114 C-7.00099548 111.34151874 -11.7045025 108.74123976 -16 105 C-14.39538229 100.25033158 -11.75971753 96.46262482 -8.9375 92.375 C-8.02675382 91.05167175 -7.11906999 89.72622934 -6.21484375 88.3984375 C-5.81386475 87.81755371 -5.41288574 87.23666992 -4.99975586 86.63818359 C-2.24254832 82.12026843 -2.46535745 77.10201745 -3 72 C-4.86923665 66.09951803 -8.91375302 60.90878444 -12.31640625 55.80859375 C-17.68794527 46.84772008 -18.52067349 38.20928901 -17 28 C-13.64919201 17.57168411 -6.53878223 8.65697929 0 0 Z " fill="#000000" transform="translate(257,11)"/>
<path d="M0 0 C5.00099548 2.65848126 9.7045025 5.25876024 14 9 C12.39538229 13.74966842 9.75971753 17.53737518 6.9375 21.625 C6.02675382 22.94832825 5.11906999 24.27377066 4.21484375 25.6015625 C3.81386475 26.18244629 3.41288574 26.76333008 2.99975586 27.36181641 C0.24254832 31.87973157 0.46535745 36.89798255 1 42 C2.86923665 47.90048197 6.91375302 53.09121556 10.31640625 58.19140625 C15.68794527 67.15227992 16.52067349 75.79071099 15 86 C11.64919201 96.42831589 4.53878223 105.34302071 -2 114 C-7.00099548 111.34151874 -11.7045025 108.74123976 -16 105 C-14.39538229 100.25033158 -11.75971753 96.46262482 -8.9375 92.375 C-8.02675382 91.05167175 -7.11906999 89.72622934 -6.21484375 88.3984375 C-5.81386475 87.81755371 -5.41288574 87.23666992 -4.99975586 86.63818359 C-2.24254832 82.12026843 -2.46535745 77.10201745 -3 72 C-4.86923665 66.09951803 -8.91375302 60.90878444 -12.31640625 55.80859375 C-17.68794527 46.84772008 -18.52067349 38.20928901 -17 28 C-13.64919201 17.57168411 -6.53878223 8.65697929 0 0 Z " fill="#000000" transform="translate(193,11)"/>
</svg>
