<?xml version="1.0" encoding="UTF-8"?>
<svg id="Layer_1" data-name="Layer 1" xmlns="http://www.w3.org/2000/svg" viewBox="0 0 512 512">
  <defs>
    <style>
      .cls-1 {
        fill: #fff;
      }
    </style>
  </defs>
  <path id="Path_117" data-name="Path 117" class="cls-1" d="M269.05,126.06c-25.85,0-46.81,20.96-46.81,46.81v37.12h-23.33c-1.8,0-3.27,1.46-3.28,3.26v38.47c0,1.8,1.47,3.26,3.28,3.26h23.33v127.68c0,1.8,1.46,3.26,3.26,3.26h46.66c1.8,0,3.26-1.46,3.26-3.26v-127.68h33.88c1.7,0,3.12-1.29,3.26-2.99l3.25-38.48c.15-1.8-1.2-3.38-3-3.53-.09,0-.18-.01-.26-.01h-37.12v-27.31c0-6.4,5.19-11.59,11.59-11.59h26.07c1.81,0,3.28-1.47,3.28-3.28v-38.48c0-1.8-1.46-3.26-3.26-3.26,0,0,0,0-.01,0h-44.05Z"/>
  <path id="Path_118" data-name="Path 118" class="cls-1" d="M25.28,256c0-127.45,103.32-230.76,230.76-230.76s230.76,103.32,230.76,230.76-103.32,230.76-230.76,230.76h-.04c-127.37-.17-230.58-103.39-230.73-230.76M256.01,6C117.94,5.99,6.01,117.92,6,255.99c0,138.07,111.92,250.01,249.99,250.01,138.07,0,250.01-111.92,250.01-249.99h0c-.15-138.02-111.98-249.85-249.99-250.01Z"/>
</svg>