<?xml version="1.0" encoding="UTF-8"?>
<svg id="Layer_1" data-name="Layer 1" xmlns="http://www.w3.org/2000/svg" viewBox="0 0 512 512">
  <defs>
    <style>
      .cls-1 {
        fill: #c00;
      }
    </style>
  </defs>
  <g id="Group_85" data-name="Group 85">
    <path id="Path_96" data-name="Path 96" class="cls-1" d="M87.1,500.94c-1.5,5.29-12.03,6.67-15.28.91-4.07-7.24,2.42-47.98-.18-50.65-7.96-1.85-18.63.11-24-7.31L6.8,362.58c-5.94-19.89,22.75-55.32,35.63-69.54,10.59-11.7,23.66-21.95,33.22-34.19-2.17-3.94-4.51-8.08-1.97-12.59l30.77-31.95c.46-1.74-6.18-9.98-7.61-12.6-1.61-2.95-6.26-15.59-6.89-16.21-.46-.45-8.14-2.34-10.36-3.51-19.12-10.02-20.2-36.15-9.02-52.54-3.49-3.83-5.91-8.51-6.99-13.58-1.89-13.8-1.09-53.38,3.51-66.11C78.81,17.46,118.25,7.15,149.22,5.62c42.17-2.07,78,12.24,85.8,57.37,26.69.06,54.08-4.34,68.21,23.68,18.77,37.23-31.25,52.38-59.07,50.34-.72,29.32-4.57,62.76-25.59,84.84-.26.93.5,1.32.89,1.94,1.22,1.82,19.07,19.51,20.67,20.43,6.56,2.53,13.45,4.11,20.46,4.7v-56.98c1.44-3.5,4.89-5.77,8.67-5.69h229.02c3.05-.1,6.97,1.23,7.63,4.69l.07,224.85c.27,3.29-1.47,6.41-4.42,7.9l-61.34.77c1,22.25-18.04,31.57-37.43,32.9-33.58,2.34-69.01-4.34-102.08,4.16-1.39,1.63,1.37,33.82-.56,39.99-2.57,8.2-15.97,5.51-15.97-1.59v-34.39c-28.27,9.16-55.9,20.55-84.42,29.02-18.81,5.58-43.18,12.95-62.77,10.89-19.38-2.03-37.52-16.6-49.92-30.67-1.24,6.81,1.67,20.3,0,26.18M218.48,63.1c-5.43-32.14-45.15-52.44-72.33-30.77-12.64,10.08-16.51,27.48-17.74,42.83-2.18,4.09-7.27,5.64-11.36,3.45-1.96-1.05-3.43-2.83-4.08-4.96-3.13-13.91,7.52-38.24,17.23-48.54-20.55,2.62-43.45,12.78-48.97,34.68-2.23,17.93-2.65,36.03-1.27,54.04.77,4.94,4.14,6.38,8.61,6.78,37.04,3.31,38.06-23.91,61.67-43.14,6.11-4.98,23.18-14.39,30.78-14.39h37.45ZM222.59,79.53h-40.53c-4.72,1.47-9.26,3.48-13.53,5.98-14.46,8.23-23.28,22.27-33.19,35.08h44.66c9.75,0,23.8-20.94,29.76-27.73,4.03-4.61,9.23-8.33,12.85-13.33M243.15,120.58c16.74.41,62.14-4.35,42.06-30.25-13.22-17.04-31.88-11.48-47.11-.88l5.05,31.13ZM223.6,102.11c-11.53,14.15-21.55,30.57-41,34.44l-95.81.68c-9.02,5.32-9.56,23.39-1.09,29.41,5.58,3.97,13.33,1.82,17.22,6.39,2.4,4.7,4.36,9.6,5.88,14.65,14.99,31.84,45.23,48.61,79.91,35.03,42.71-16.73,43.49-83.15,34.91-120.6M342.72,202.72h-65.7v188.89c11.12-2.36,23.05-7.27,34.41-8.2,21.5-1.56,43.08-1.53,64.57.08,11.92,2.24,20.69,12.44,21.13,24.56h93.42v-205.32h-65.7v60.06c0,3.26-6.01,6.14-9.52,5.46-6.79-1.34-25.91-15.15-31.07-15.14-8.39,2.27-24.32,14.37-31.91,15.31-4.08.5-9.66-2.77-9.66-6.65l.04-59.03ZM408.42,202.72h-49.28v44.15c6.4-2,19.04-11.63,25.13-11.37,5.88.26,17.89,9.49,24.15,11.37v-44.15ZM149.72,253.04l-35.44-22.6c-3.09,1.75-22.34,20.45-22.01,21.98l35.38,29.36,22.07-28.74ZM216.48,268.41c2.51,1.76,8.26-12.69,9.06-14.73l-17.28-17.08-3.96,13.63,12.19,18.19ZM189.76,239.68l-25.65,4.11,5.31,5.44c2.37,3.65,7.16,19.34,8.02,20.21,1.77,1.76,1.73-.66,2.13-1.45,3.92-9.24,7.31-18.69,10.17-28.31M258.53,266.37l-20.58-3.66c-1.19.84-9.93,22.36-12.85,26.19-10.57,13.88-21.14-10.94-27.32-17.73-.91-1-.95-2.19-2.89-1.72-2.63,5.68-8.29,27.15-12.77,29.83-2.41,1.31-5.28,1.49-7.84.5-5.78-1.93-11.11-26-15.85-31.35-1.9,0-19.8,26.23-23.55,29.79-4.83,4.56-7.72,3.85-12.77.39-4.74-3.24-30.88-27.42-33.31-27.01-24.24,25.79-57.04,48.64-66.35,84.53l38.67,78.37c16.45,3.57,36.08-.73,47.48-13.67,3.83-4.35,11.66-16.1,9.52-21.74l-22.61-36.95c-1.71-10.55,7.74-15.75,15.03-6.79,19.45,23.97,28.99,78.99,68.98,68.63l79.02-26.2-.02-131.4ZM380.71,408.04c-.67-4.05-3.75-7.28-7.76-8.15-19.78,1.21-41.92-1.89-61.41.07-37.34,3.75-86.4,29.43-124.08,39.15-23.78,6.14-41.29,0-56.73-18.73-6.85,11.21-16.92,20.1-28.89,25.5-2,.9-11.57,3.57-11.64,4.76,11.1,17.34,29.14,37.24,50.92,39.4,34.13,3.39,108.25-30.81,144.33-41.21,43.14-12.42,75.13-4.59,117.36-7.91,9.68-.76,20.98-4.34,22.05-15.43l-68.07-1.25c-9.4-2.1-5.76-16.21-.22-16.21h24.13Z"/>
    <path id="Path_97" data-name="Path 97" class="cls-1" d="M307.52,350.77c12.5-.91,25.05-.91,37.55,0,4.4,1.32,6.9,5.96,5.58,10.36-.89,2.98-3.38,5.22-6.45,5.79-12.21.87-24.47.81-36.68-.16-4.41-1.36-6.89-6.04-5.53-10.46.81-2.64,2.89-4.72,5.53-5.53"/>
    <path id="Path_98" data-name="Path 98" class="cls-1" d="M307.52,326.13c7.29-.74,14.64-.66,21.9.24,4.26,1.77,6.27,6.65,4.51,10.91-1.08,2.6-3.4,4.48-6.16,5-7.01.62-14.07.48-21.05-.4-4.27-1.81-6.26-6.74-4.45-11,.96-2.28,2.88-4.01,5.24-4.74"/>
  </g>
</svg>