<?xml version="1.0" encoding="UTF-8"?>
<svg id="Layer_1" data-name="Layer 1" xmlns="http://www.w3.org/2000/svg" viewBox="0 0 512 512">
  <defs>
    <style>
      .cls-1 {
        fill: #333;
      }
    </style>
  </defs>
  <g id="Group_19-2" data-name="Group 19-2">
    <path id="Path_12" data-name="Path 12" class="cls-1" d="M431.48,504.28h-7.64c-8.2-1.91-14.35-8.72-15.41-17.07-.35-24.98-6.78-49.51-18.74-71.45-34.11-59.21-92.02-72.57-156.4-68.55-65.43,4.49-118.89,53.98-128.4,118.87-1.91,15.39,2.71,32.77-16.6,38.2h-7.77c-19.1-5.44-16.23-24.22-14.42-40.11,8.49-69.59,57.13-127.67,124.14-148.26,43.13-10.91,88.29-10.91,131.42,0,70.67,21.81,120.53,85,125.31,158.81.67,14.11-.4,24.83-15.51,29.56"/>
    <path id="Path_13" data-name="Path 13" class="cls-1" d="M244.22,8.08c72.14-5.45,135.05,48.61,140.5,120.75,5.45,72.14-48.61,135.05-120.75,140.5-44.22,3.34-87.12-15.91-114.02-51.16-43.77-57.78-32.41-140.1,25.37-183.87,19.99-15.14,43.9-24.24,68.9-26.22M245.19,46.87c-50.65,4.95-87.7,50.03-82.75,100.68,4.95,50.65,50.03,87.7,100.68,82.75,29.23-2.86,55.35-19.48,70.32-44.75,25.79-44.02,11-100.62-33.02-126.4-16.67-9.77-35.99-14.06-55.23-12.27"/>
  </g>
</svg>