<?xml version="1.0" encoding="UTF-8"?>
<svg id="Layer_1" data-name="Layer 1" xmlns="http://www.w3.org/2000/svg" viewBox="0 0 512 512">
  <defs>
    <style>
      .cls-1 {
        fill: #464646;
      }
    </style>
  </defs>
  <g id="Group_145" data-name="Group 145">
    <path id="Path_201" data-name="Path 201" class="cls-1" d="M6,30.93V5.93h500v25c-4.63,25.36-19.43,47.72-40.96,61.9-10.47,5.65-21.56,10.04-33.06,13.07h-125.97v50.13h122.14c4.52,1.73,8.91,3.76,13.15,6.08,10.77,7.16,17.48,19.03,18.05,31.96,15.13,87.97,16.51,182.22,31.32,270.7,1.92,20.83-13.41,39.28-34.24,41.2-1.06.1-2.13.15-3.2.16H56.88c-20.66-1.23-36.49-18.83-35.55-39.5,14.22-88.92,16.51-182.69,31.05-271.09.36-13,6.7-25.1,17.18-32.79,4.57-2.66,9.37-4.9,14.34-6.72h122.1v-50.09h-124.03c-8.49-1.79-16.77-4.44-24.73-7.9C30.12,85.51,10.95,60.39,6,30.93M244.03,256.48c-54.7,7.01-93.66,56.63-87.49,111.43.95,8.49,6.83,33.42,14.89,37.05h169.18c8.89-3.95,14.89-32.98,15.48-42.19,3.32-55.62-39.08-103.4-94.7-106.71-5.78-.34-11.58-.19-17.33.46"/>
    <path id="Path_202" data-name="Path 202" class="cls-1" d="M265.05,365.11c-5.38,3.04-11.91,3.28-17.5.63-8.33-5.37-11.26-75.05,15.21-57.99,9.48,6.16,8.85,50.84,2.29,57.35"/>
  </g>
</svg>