<?xml version="1.0" encoding="UTF-8"?>
<svg id="Layer_1" data-name="Layer 1" xmlns="http://www.w3.org/2000/svg" viewBox="0 0 512 512">
  <defs>
    <style>
      .cls-1 {
        fill: #005aa5;
      }
    </style>
  </defs>
  <g id="Group_156" data-name="Group 156">
    <path id="Path_212" data-name="Path 212" class="cls-1" d="M250.55,6.08c20.02-1.1,39.7,5.53,54.97,18.53,11.68,10.09,23.83,32.65,39.72,34.42,13.48,1.56,30.24-2.65,44.83-1.03,34.02,4.79,60.45,32.05,64.18,66.19.95,13.56-2.28,29.28-1.14,41.81,1.56,17.1,24.36,28.7,34.98,41.12,24.09,28.51,23.88,70.31-.5,98.57-16.34,18.9-35.19,20.84-34.42,50.07.74,30.92,4.5,52.66-19.73,77.15-24.23,24.49-46.55,21-77.68,20.23-29.12-.71-31.16,18.14-50.07,34.42-28.88,25.1-71.97,24.63-100.29-1.09-11.81-10.59-22.93-31.93-39.56-33.44-12.84-1.16-28.94,2.2-42.84,1.11-34.05-4.29-60.87-31.11-65.16-65.16-1.09-13.95,2.3-29.84,1.11-42.84-1.56-17.21-24.33-28.67-34.98-41.04C-.21,276.58.04,234.69,24.55,206.46c10.09-11.68,32.62-23.83,34.42-39.72,1.22-10.59-2.25-24.6-1.99-35.35.96-41.13,34.39-74.08,75.54-74.43,11.71,1.23,23.47,1.87,35.24,1.91,14.27-1.96,27.69-24.78,38.66-34.42,12.37-10.71,27.83-17.2,44.14-18.53M187.93,156.18c-20.65,3.35-34.68,22.81-31.34,43.46,3.35,20.65,22.81,34.68,43.46,31.34,20.6-3.49,34.48-23.01,30.99-43.62-3.45-20.41-22.67-34.26-43.12-31.07M326.62,156.28c-5.64,1.12-10.83,3.88-14.91,7.94l-148.53,148.64c-9.73,10.1-9.43,26.17.66,35.9,9.83,9.48,25.41,9.48,35.24,0,51.21-52.32,105.03-102.44,154.41-156.21,6.22-12.55,1.08-27.77-11.48-33.99-4.77-2.36-10.17-3.16-15.42-2.29M312.03,281.28c-20.58,3.88-34.12,23.71-30.24,44.3,3.88,20.58,23.71,34.12,44.3,30.24,20.58-3.88,34.12-23.71,30.24-44.3-3.88-20.58-23.71-34.12-44.3-30.24"/>
  </g>
</svg>