<?xml version="1.0" encoding="UTF-8"?>
<svg id="Layer_1" data-name="Layer 1" xmlns="http://www.w3.org/2000/svg" viewBox="0 0 512 512">
  <defs>
    <style>
      .cls-1 {
        fill: #54b400;
      }
    </style>
  </defs>
  <path id="Polygon_2" data-name="Polygon 2" class="cls-1" d="M221,50.85c7.82-19.33,29.84-28.66,49.17-20.84,9.48,3.84,17.01,11.36,20.84,20.84l39.31,97.31c5.55,13.76,18.64,22.99,33.46,23.6l106.19,4.38c20.83.95,36.95,18.61,36,39.44-.52,11.29-6.06,21.76-15.12,28.53l-78.51,58.15c-12.79,9.45-18.29,25.91-13.75,41.16l27.6,92.71c5.95,19.99-5.43,41.02-25.41,46.97-10.28,3.06-21.37,1.61-30.51-4l-94.52-58c-12.11-7.42-27.35-7.42-39.46,0l-94.4,57.96c-17.72,11-41,5.56-52-12.15-5.7-9.18-7.2-20.35-4.11-30.71l27.6-92.71c4.55-15.25-.95-31.71-13.75-41.16l-78.47-58.12c-16.71-12.48-20.13-36.15-7.64-52.85,6.77-9.06,17.23-14.6,28.53-15.12l106.19-4.38c14.82-.61,27.91-9.85,33.46-23.6l39.31-97.43Z"/>
</svg>