<?xml version="1.0" encoding="UTF-8"?>
<svg id="Layer_1" data-name="Layer 1" xmlns="http://www.w3.org/2000/svg" viewBox="0 0 512 512">
  <defs>
    <style>
      .cls-1 {
        opacity: .15;
      }
    </style>
  </defs>
  <g id="Group_175" data-name="Group 175" class="cls-1">
    <g id="Group_176" data-name="Group 176">
      <path id="Path_218" data-name="Path 218" d="M334.13,6.01c30.73-1.5,40.2,46.58,38.63,70.23-2.51,37.82-30.82,68.55-38.84,102.18-3.04,12.78,0,18.91,13.45,20.27,35.5,3.59,121.23-12.51,145,20.73,16.7,23.29,6.66,48.72-4.42,71.57,8.09,14.3,19.76,29.42,14.86,46.83-3.39,12.02-14.4,18.43-21.84,27.64,4.48,8.21,8.06,16.87,10.69,25.84,1.51,13.39-3.24,26.74-12.88,36.16-3.96,4.31-11.77,8.48-14.07,13.29-1.98,7.68-3.3,15.52-3.94,23.43-9.01,40.68-37.96,37.98-72.4,39.85-79.49,4.64-159.25.93-237.97-11.06-11.98-1.98-16.12-3.69-17.35-16.88l.67-215.74c2.86-7.83,10.23-6.91,16.26-9.74,14.44-6.91,23.56-34.55,32.36-48.37,14.22-21.76,31.53-41.34,51.39-58.12,22.87-19.69,52.84-34.23,62.19-65.14,8.71-28.93-4.45-70.85,38.19-72.97"/>
      <path id="Path_219" data-name="Path 219" d="M17.01,252.5c23.59-1.87,47.28-1.97,70.88-.32,5.34.6,9.86,2.12,11.33,7.83l.32,225.6c0,5.92-4.24,8.52-9.54,9.63-22.98,2.05-46.09,2.25-69.1.6-5.31-.2-10.13-3.16-12.72-7.81l-.39-225.69c.33-5.06,4.19-9.18,9.21-9.84"/>
    </g>
  </g>
</svg>