<?xml version="1.0" encoding="UTF-8"?>
<svg id="Layer_1" data-name="Layer 1" xmlns="http://www.w3.org/2000/svg" viewBox="0 0 512 512">
  <defs>
    <style>
      .cls-1 {
        fill: #333;
      }
    </style>
  </defs>
  <g id="Group_20" data-name="Group 20">
    <path id="Path_15" data-name="Path 15" class="cls-1" d="M501.26,135.54v8.48c-1.62,5.91-5.52,10.93-10.83,13.97-74.51,28.61-148.08,67.28-222.71,94.9-14.5,5.37-14.72,3.16-28.35-2.02-74.32-29.2-147.5-64.57-221.38-95.26-8.58-7.18-9.71-19.95-2.53-28.52,1.65-1.97,3.65-3.61,5.91-4.83L253.59,24.19l9.68,1.05,225.53,95.95c6.05,2.71,10.61,7.93,12.47,14.29M434.2,140.77c-1.11-2.31-4.37-3.02-6.46-4.05-56.55-25.45-114.41-47.66-171.25-72.4-57.07,24.3-115.41,46.85-172.1,72.4-2.02.95-5.37,1.64-6.46,4.05l178.57,75.24,177.68-75.24Z"/>
    <path id="Path_16" data-name="Path 16" class="cls-1" d="M501.26,260.53c-1.58,5.94-5.57,10.94-11.01,13.79-78.31,32.39-155.9,67.95-234.66,98.56L18.16,271.98c-8.65-7.08-9.92-19.84-2.84-28.49,1.01-1.24,2.17-2.35,3.44-3.32,16.56-8.82,33.76-16.38,51.45-22.64.96-.44,2.05-.54,3.08-.28l46.71,20.49-39.97,17.23-1.21,2.35,177.52,74.91,177.85-74.91c.38-2.71-.22-1.64-1.34-2.21-12.92-6.44-27.98-10.31-40.8-17.37l45.94-20.25h3.85c11.56,7.75,48.31,16.2,55.56,26.54,1.8,2.61,2.17,5.43,3.83,7.94l.04,8.54Z"/>
    <path id="Path_17" data-name="Path 17" class="cls-1" d="M501.26,377.06c-1.87,6.36-6.43,11.58-12.47,14.29l-225.53,95.95-13,.51c-77.81-34.32-157.27-64.99-234.19-101.23-7.65-8.66-6.83-21.87,1.83-29.52.57-.5,1.17-.98,1.79-1.42,14.85-7.82,30.28-14.48,46.16-19.92,2.54-1.46,5.46-2.12,8.38-1.9l45.76,18.89c.45,2.75-.34,1.64-1.36,2.21-12.15,6.82-28.02,11.18-40.78,16.87l.97,1.58,177.66,74.79,176.73-74.81.97-1.54-42.13-17.49,45.74-20.43c1.66-.48,3.44-.38,5.04.28,16.8,5.83,33.14,12.9,48.9,21.14,4.58,3.24,7.93,7.93,9.52,13.3v8.46Z"/>
  </g>
</svg>