<?xml version="1.0" encoding="UTF-8"?>
<svg id="Layer_1" data-name="Layer 1" xmlns="http://www.w3.org/2000/svg" viewBox="0 0 512 512">
  <defs>
    <style>
      .cls-1 {
        fill: #333;
      }
    </style>
  </defs>
  <g id="Group_8" data-name="Group 8">
    <path id="Path_5" data-name="Path 5" class="cls-1" d="M288.67,7.82c100.41,6.87,183.92,79.83,204.21,178.4,3.4,15.37,4.77,31.11,4.1,46.83-2.04,9.78-11.63,16.04-21.4,14-1.71-.36-3.36-.96-4.89-1.79-11.92-6.97-8.21-21.25-9.37-32.34-8.5-89.36-78.99-160.23-168.29-169.22-11.38-1.22-28.03,2.65-33.94-10.66-4.16-9.17-.1-19.98,9.08-24.14.98-.45,2.01-.8,3.06-1.07,5.8.25,11.69-.35,17.39,0"/>
    <path id="Path_6" data-name="Path 6" class="cls-1" d="M383.38,455.54c9.15-10.12,15.32-22.58,17.83-35.99-.29-8.91-15.22-21.06-21.89-26.68-17.38-15.09-36.77-27.69-57.63-37.42-13.35-2.72-14.66,10.03-22.86,16.05-7.75,5.91-18.81,4.42-24.72-3.33-3.88-5.08-4.7-11.87-2.15-17.73,9.47-19.9,30.18-31.94,52.16-30.33,26.27,2.65,95.98,54.73,107.38,78.84,16.4,34.68-15.28,84-47.49,98.36-38.39,17.12-74.61-.46-109.21-17.39-98.99-47.61-179.77-126.17-230.12-223.8C22.46,213.42-3.06,162.55,31.19,118.46c17.74-22.89,56.86-43.55,85.7-32.55,25.48,9.66,81.14,84.78,82.21,111.77.08,20.19-11.19,38.71-29.15,47.91-8.41,4.89-19.2,2.03-24.09-6.39-3.56-6.13-3.1-13.8,1.17-19.46,6.97-9.27,20.44-9.12,15.3-25-13.36-26.93-31.17-51.43-52.67-72.45-9.51-7.32-16.21-4.6-26.33-.19-46.68,20.34-35.65,57.38-18.6,94.67,44.03,98.11,120.29,178.22,216.11,227.03,29.71,15.22,73.8,40.57,102.53,11.75"/>
    <path id="Path_7" data-name="Path 7" class="cls-1" d="M274.74,110c52.52.36,98.84,34.5,114.74,84.56,4.68,15.73,13.41,56.3-14.9,52.7-17.81-2.26-14.18-20.61-16.34-33.11-6.76-34.05-33.39-60.65-67.45-67.37-9.52-1.7-22.68.37-29.31-7.55-6.26-7.66-5.12-18.94,2.54-25.2,3.04-2.48,6.81-3.9,10.74-4.03"/>
  </g>
</svg>