<?xml version="1.0" encoding="UTF-8"?>
<svg id="Layer_1" data-name="Layer 1" xmlns="http://www.w3.org/2000/svg" viewBox="0 0 512 512">
  <defs>
    <style>
      .cls-1 {
        fill: #c00;
      }
    </style>
  </defs>
  <g id="Group_167" data-name="Group 167">
    <path id="Path_216" data-name="Path 216" class="cls-1" d="M6,150.08C12.02,60.43,125.48,22.92,183.21,92.71l126.21.06c10.8.28,23.17,13.07,23.17,23.69v23.17c2.54-.65,5.11-1.15,7.7-1.51,24.63-1.78,51.42,1.4,76.27,0,13.6,1.15,24.62,9.62,33.37,19.44,11.21,12.57,23.2,30.06,33.34,43.9,12.07,16.49,21.25,28.45,22.23,50,1.38,30.64-.48,106.45-.74,137.04-1.82,8.13-7.19,15.01-14.62,18.76-9.43,4.51-19.87,2.01-30,2.64l-.49-4.48c-2.49,30.06-28.89,52.41-58.95,49.92-4.81-.4-9.54-1.43-14.08-3.08-18.39-6.87-31.78-22.96-35.2-42.29-9.99.25-19.21.57-27.08-6.55-4.21,3.33-9.18,5.56-14.47,6.48l-131.94.06c-4.96,29.69-33.04,49.73-62.73,44.77-7.97-1.33-15.55-4.42-22.18-9.04-11.87-8.48-20.01-21.22-22.72-35.56-9.49-1.15-19.88,1.51-28.92-1.97-9.21-3.68-15.7-12.06-16.97-21.9v-171.6c-10.49-15.51-16.83-33.44-18.41-52.09v-12.46ZM101.56,74.5c-45.21,2.47-79.86,41.12-77.39,86.33,2.47,45.21,41.12,79.86,86.33,77.39,27.15-1.48,51.81-16.33,65.81-39.65,33.65-56.06-9.52-128.03-74.75-124.07M307.91,110.73h-112.55c1.82,5.2,4.46,10.18,6.11,15.56,26.9,86.29-64.93,160.63-143.66,117.73l-15.43-10.21v149.92c0,2.23,5.66,7.48,7.94,8.02,5.67,1.31,14.45-.53,20.46.21,3.26-20.14,17.55-36.74,36.98-42.97,29.03-8.98,59.85,7.27,68.83,36.3.68,2.2,1.22,4.43,1.62,6.69h128.72c3.11-.11,5.86-2.08,6.97-4.99V116.18c-1.1-2.61-3.29-4.61-5.99-5.46M440.19,174.5c-5.72-8.21-13.83-14.45-23.23-17.88-25.96-.18-51.87-.79-77.77.33-3.52,1.68-6,4.96-6.63,8.81l.06,217.92c2.28,9.42,10.92,8.63,18.82,8.2,2.96-16.3,13.03-30.43,27.46-38.56,26.38-14.56,59.58-4.98,74.14,21.41,3.69,6.69,5.94,14.09,6.59,21.7.85.1.55-1.74.52-2.27,0-.77-.18-1.53-.53-2.23h19.18c3.56-1.53,6.47-4.26,8.22-7.72v-118.53h-91.93c-10.94,0-23-11.11-25.42-21.42-1.9-8.11-1.48-35.45-.76-44.62.92-11.79,12.33-25.14,24.68-25.14h46.59ZM486.03,247.25c-1.92-8.86-5.32-17.33-10.06-25.07l-22.55-29.54-58.33.29c-4.56,1.11-7.88,5.05-8.2,9.73-.83,11.61-.83,23.26,0,34.87.33,3.16,1.97,6.04,4.52,7.94,1.03.66,2.1,1.25,3.21,1.78h91.42ZM121,364.69c-20.06,1.8-34.86,19.51-33.06,39.56,1.8,20.06,19.51,34.86,39.56,33.06,11.77-1.05,22.3-7.75,28.25-17.96,10.11-17.44,4.16-39.78-13.28-49.89-6.5-3.76-13.99-5.43-21.47-4.78M401.73,364.69c-46.74,4.21-41.95,76.63,7.32,72.59,46.34-3.82,41.51-76.98-7.32-72.59"/>
    <path id="Path_217" data-name="Path 217" class="cls-1" d="M112.46,85.98c1.46,1.52,2.4,3.47,2.67,5.56v53.3c6.23,5.36,6.93,14.76,1.57,20.99-.7.81-1.48,1.54-2.33,2.18-3.72,2.72-5.2,1.8-8.96,2.5-2.14.4-17.01,17.38-20.73,20.13-3.82,3.3-9.6,2.88-12.9-.94-3.14-3.64-2.93-9.09.48-12.47,5.37-6.63,13.56-12.57,19.19-19.16.04-5.14,2.1-10.06,5.73-13.71l.25-54.56c1.55-4.81,6.71-7.45,11.52-5.9,1.32.42,2.52,1.14,3.52,2.1"/>
  </g>
</svg>