<?xml version="1.0" encoding="UTF-8"?>
<svg id="Layer_1" data-name="Layer 1" xmlns="http://www.w3.org/2000/svg" viewBox="0 0 512 512">
  <defs>
    <style>
      .cls-1 {
        fill: #fff;
      }
    </style>
  </defs>
  <g id="Group_41" data-name="Group 41">
    <path id="Path_57" data-name="Path 57" class="cls-1" d="M351.76,214.37l-.16.1-77.24,76.94-35.33-33.93c-4.86-4.1-12.05-3.81-16.57.67-4.91,5.45-4.47,13.84.97,18.75,0,0,.02.02.03.02,12.71,14.64,26.45,28.37,41.11,41.07,2.75,2.16,6.12,3.39,9.61,3.5,2.97.02,5.84-1.11,8-3.15l87.2-88.23.12-.25c2.45-4.9,1.27-10.84-2.87-14.43-4.14-3.71-10.26-4.15-14.88-1.07"/>
    <path id="Path_58" data-name="Path 58" class="cls-1" d="M392.17,135.11c-5.47-2.52-16.42-4.9-20.33-7.47-4.51-5.29-8.73-10.82-12.62-16.58-20.83-21.35-46.75-37.05-75.33-45.61-15.06-4.99-30.57-8.5-46.31-10.49-4.88.47-9.2,3.38-11.45,7.74l-6.57,72.68c-38.2,19.12-72.65,44.96-101.69,76.29-18.2-11.78-36.23-24-54.83-35.19-13.23-8.98-27.12-16.94-41.56-23.81-6.55-1.74-13.28,2.16-15.02,8.71-.22.82-.35,1.66-.4,2.51-.22,5.86,12.43,33.06,15,42.06,11.52,38,11.17,78.6-1,116.39-2.88,10-12.77,30-13.87,37.62-1.82,12.72,7.92,16.75,19,13.4,15.99-7.59,31.42-16.32,46.15-26.14,15.9-9.78,31-20.65,46.49-31,32,31.95,63.81,65.57,106.3,83.49,3.46,11.73.55,45.1,7.15,53.32,6.6,8.22,25.18,1.84,34.53-.28,30.7-6.65,59.52-20.12,84.32-39.41,3.36-2.57,6.51-7.61,10-9.51,7.33-4,20.55-7,29.26-11.05,44.83-22.72,81.85-58.3,106.33-102.18,10.33-18.67,14.05-21.57,5.56-42.18-21.02-50.02-59.92-90.41-109.11-113.3M373.66,372.86c-7.5,3.21-21,6-26.81,9.34-3.61,2.06-7.61,8.15-11.21,11-23.91,19.14-52.33,31.86-82.54,36.93-4.29-.83-1.43-40.37-8.45-47.46-9.8-5.78-19.95-10.95-30.39-15.48-34.65-20.19-61-51.25-88.9-79.3-3.86-1.56-8.17-1.67-12.1-.29-3.88,1.33-21.26,16.54-26.86,20.4-14.27,9.83-29.07,18.87-44.08,27.5,14.58-46.07,15.06-95.44,1.39-141.79,12.7,7.91,25.67,15.47,38.24,23.6,7.57,4.9,25.73,20.21,31.6,22.6,3.3,1.56,7.12,1.56,10.42,0,5.55-2.29,26.94-26.92,33.7-33,15.72-14.27,32.8-26.98,51-37.93,11.2-5.11,22.03-11,32.41-17.63,2.7-5.65,4.12-11.83,4.14-18.1,1.89-16.48,1-34.06,4.09-50.15,2.66-1.93,27,5.73,31.74,7.38,18.02,5.75,34.69,15.11,49,27.49-11.8,2.69-46.52-7.79-47.4,11.09-.89,19.25,22.84,12.23,35.64,13.18,76.87,5.72,135.16,52,162.99,122.85-23,45.32-60.23,87.48-107.62,107.76"/>
  </g>
</svg>