<?xml version="1.0" encoding="UTF-8"?>
<svg id="Layer_1" data-name="Layer 1" xmlns="http://www.w3.org/2000/svg" viewBox="0 0 512 512">
  <defs>
    <style>
      .cls-1 {
        fill: #fff;
      }
    </style>
  </defs>
  <g id="Group_45" data-name="Group 45">
    <path id="Path_69" data-name="Path 69" class="cls-1" d="M5.94,272.7c17.96-8.54,39.09-7.06,55.68,3.91-1.44-10.67-2.11-21.43-2-32.2-30.28-4.98-50.79-33.57-45.81-63.85,1.11-6.74,3.45-13.21,6.91-19.1l1.31-.24c14.69.62,28.7,6.34,39.62,16.18,2.4,2.36,4.14,6.21,6.79,8.34l10.68-28.72c-24.47-18.56-29.26-53.45-10.7-77.92,3.55-4.68,7.81-8.76,12.64-12.1,13.24,5.64,23.74,16.23,29.26,29.52.73,1.68,2.64,9.14,3.56,9.12l7.77-7.74c-5.03-31.17,16.17-60.52,47.34-65.55,7.8-1.26,15.78-.89,23.43,1.09,9.08,30.26-8.09,62.15-38.35,71.23-.27.08-.54.16-.81.24-4.08.55-8.11,1.42-12.05,2.6-12.77,11.5-23.9,24.69-33.08,39.22-54.29,86.87-27.87,201.3,58.99,255.59,19.42,12.14,40.92,20.57,63.41,24.88l-2.81,20.4-21.39-4.81c-9.53,28.68-40.5,44.2-69.17,34.67-2.7-.9-5.32-2-7.85-3.3-5.39-2.74-9.68-7.09-14.89-10,5.16-21.45,22.27-37.98,43.89-42.4l-27.84-20.08c-5.36,4.66-11.32,8.57-17.73,11.62-28.31,11.68-60.72-1.8-72.4-30.11-.34-.82-.66-1.66-.96-2.5,6.33-7.87,14.56-14,23.91-17.82,3.42-1.32,6.93-2.38,10.51-3.16h17.62c.42,0,2.83,2.62,2.43-.47l-15.61-27.49c-27.71,8.78-57.49-5.38-68.17-32.41l-4.14-14.91v-11.72ZM173.98,52.86c-17.66,1.19-31.57,15.52-32.24,33.21,17.65-1.2,31.56-15.53,32.24-33.21M88.96,136.88c8.64-14.22,6.21-32.53-5.83-44.01-6.82,10.69-7.52,24.18-1.83,35.52.72,1.46,5.63,10,7.66,8.44M56.74,222.85c3.07-16.53-6.52-32.79-22.47-38.1-3.05,16.52,6.53,32.77,22.47,38.1M63.59,313.72c-3.67-16.23-18.57-27.4-35.18-26.38,3.31,16.46,18.45,27.81,35.18,26.38M65.54,384.09c10.08,13.4,28.68,16.98,43.01,8.27-10.25-13.13-28.62-16.66-43.01-8.27M140.78,457.34c15.14,6.07,32.48,1.04,42.01-12.2-9.27-4.82-20.27-4.95-29.66-.37-2.58,1.23-14.39,9.59-12.33,12.57"/>
    <path id="Path_70" data-name="Path 70" class="cls-1" d="M438.29,359.66c13.57,2.78,25.75,10.21,34.42,21.01-10.26,28.82-41.94,43.87-70.77,33.61-.87-.31-1.74-.64-2.59-1-6.41-3.05-12.38-6.96-17.73-11.62l-27.84,20.08c21.49,4.4,38.58,20.69,44.01,41.94-21.14,21.06-55.05,21.93-77.26,2-6.43-6.65-11.6-14.41-15.27-22.9l-20.87,4.81-2.81-20.4c100.63-19.35,166.53-116.61,147.18-217.24-4.94-25.67-15.24-50.01-30.24-71.42-8-11.35-17.26-21.75-27.61-31.01-3.94-1.18-7.97-2.05-12.05-2.6-30.32-8.49-48.02-39.95-39.53-70.27.11-.41.23-.81.35-1.21,30.69-7.81,61.89,10.75,69.7,41.43,1.91,7.51,2.28,15.33,1.08,22.99l7.78,7.76c2.15.32,1.14-.35,1.47-1.42,2.78-11.8,9.48-22.31,19-29.82,2-1.59,11.3-8.31,13.14-7.39,25.05,18.15,30.65,53.17,12.49,78.22-3.25,4.48-7.14,8.46-11.55,11.8l10.82,28.76c2.65-2.13,4.38-6,6.79-8.34,11.21-10.19,25.79-15.86,40.94-15.93,15.56,26.4,6.77,60.42-19.63,75.99-5.93,3.5-12.47,5.86-19.27,6.97l-2,31.71,14.89-6.6c13.33-3.9,27.63-2.81,40.22,3.07,3.51,30.39-18.28,57.86-48.67,61.37-7.76.9-15.62.14-23.06-2.22l-15.61,27.45c-.26,3,1.06.47,1.45.47,6.18-.32,12.38-.32,18.56,0M370.38,86.08c-.67-17.69-14.58-32.01-32.24-33.21.8,17.63,14.64,31.89,32.24,33.21M425.92,136.69c2.01-2.76,3.86-5.63,5.53-8.6,5.1-11.4,4.18-24.59-2.45-35.17-12.05,11.42-14.45,29.73-5.74,43.87.88.27,1.82.23,2.67-.1M455.4,208.71c-.66,4.22.48,9.76,0,14.16,14.02-4.73,23.41-17.94,23.25-32.74,0-1-.36-6.09-2.23-5.38-10.25,4.42-17.96,13.21-21.01,23.95M483.74,287.36c-16.63-1.11-31.58,10.1-35.18,26.38,16.69,1.31,31.76-9.99,35.18-26.38M446.61,384.1c-14.41-8.28-32.7-4.76-43.01,8.27,14.32,8.75,32.96,5.17,43.01-8.27M371.37,457.35c1.9-2.73-9.17-10.94-11.66-12.24-9.52-4.89-20.82-4.87-30.33.05,9.49,13.3,26.87,18.34,42.01,12.19"/>
    <path id="Path_71" data-name="Path 71" class="cls-1" d="M365.5,209.18l-66.37,49.01,25.33,80.02-66.92-48.53-66.93,48.53,25.45-79.54-66.5-49.43h81.58l26.38-79.15,26.38,79.15,81.6-.06ZM303.95,229.7h-34.65l-11.72-33.23-10.26,33.23h-35.18l27.23,21.21-9.63,33.51,27.85-20.2,27.83,19.21-9.84-32.58,28.39-21.16Z"/>
  </g>
</svg>