<?xml version="1.0" encoding="UTF-8"?>
<svg id="Layer_1" data-name="Layer 1" xmlns="http://www.w3.org/2000/svg" viewBox="0 0 512 512">
  <defs>
    <style>
      .cls-1 {
        fill: #c00;
      }
    </style>
  </defs>
  <g id="Group_89-2" data-name="Group 89-2">
    <path id="Path_109" data-name="Path 109" class="cls-1" d="M205.63,362.99c-69.65,74.23-193.3,27.98-199.48-70.72-1.03-16.39,3.46-21.49,10.93-34.81,23.89-42.59,50.08-85.69,75.25-127.64,1.74-2.9,9.73-17.22,11.72-17.8l34.56-.19,2.58,1.12c26.87,46.45,55.32,92.05,82,138.6,12.09,21.09,17.27,25.56,12.95,51.57-4.03,22.53-14.65,43.37-30.51,59.87M209.76,267.53l-78.33-133.77-2.09-2.34c-3.81-.17-14.25-1.72-16.57,1.12l-78.02,132.25-.58,2.74h175.58ZM218.61,286.72H25.34c.19,39.65,25.06,74.98,62.32,88.53,29.72,10.64,62.7,6.76,89.15-10.48,25.83-17.66,41.43-46.79,41.82-78.07"/>
    <path id="Path_110" data-name="Path 110" class="cls-1" d="M372.57,182.82l35.33-.16,2.58,1.1,94.01,160.53c9.88,52.49-30.24,105.61-79.33,121.33-76.44,24.47-156.98-39.59-148.63-119.12,29.22-51.11,58.41-102.6,89.05-152.95,1.99-3.79,4.33-7.39,6.98-10.74M479.06,338.36l-79.35-134.95c-2.9-2.92-12.33-1.26-16.57-1.15l-80.41,136.1h176.33ZM487.17,357.54h-192.56c.04,36.01,20.6,68.85,52.97,84.63,30.36,14.41,65.9,12.78,94.81-4.37,27.92-17.1,44.9-47.52,44.79-80.26"/>
    <path id="Path_111" data-name="Path 111" class="cls-1" d="M321.96,115.5l105.77,28.54c4.78,1.29,7.61,6.21,6.32,10.99-.02.09-.05.18-.08.27l-.33,1.07c-1.41,4.62-6.23,7.3-10.9,6.05l-106.26-28.48c-17.44,35.96-60.51,51.44-95.3,28.86-20.71-13.45-34.06-38.45-30.66-63.4l-105.48-29.65c-4.73-1.46-7.38-6.48-5.91-11.21,1.4-4.51,6.05-7.16,10.64-6.07l105.52,28.3c8.45-14.27,19.21-26.96,34.63-33.95,46.55-21.06,97.69,19.45,92.03,68.68M250.18,60.46c-58.88,5.78-52.51,98.17,8.63,94.21,63.41-4.13,57.76-100.74-8.63-94.21"/>
  </g>
</svg>