<?xml version="1.0" encoding="UTF-8"?>
<svg id="Layer_1" data-name="Layer 1" xmlns="http://www.w3.org/2000/svg" viewBox="0 0 512 512">
  <defs>
    <style>
      .cls-1 {
        fill: #fff;
      }
    </style>
  </defs>
  <path id="Path_14" data-name="Path 14" class="cls-1" d="M226.47,10.9c128.68-9.45,240.65,87.21,250.09,215.89,2.5,34.01-2.48,68.15-14.59,100.03-8.96,22.83-21.19,44.25-36.29,63.58l72.99,74.88c6.49,12.01,2.01,27.01-10,33.49-8.9,4.81-19.84,3.71-27.6-2.79l-70.62-70.35c-100.43,80.94-247.45,65.13-328.39-35.3C-18.88,289.91-3.07,142.88,97.36,61.95c36.87-29.71,81.9-47.51,129.12-51.05M236.92,60.31c-100.46,6.07-176.97,92.43-170.9,192.88,6.07,100.46,92.43,176.97,192.88,170.9,100.46-6.07,176.97-92.43,170.9-192.88-5.78-95.7-84.73-170.55-180.6-171.23l-12.28.33Z"/>
</svg>