<?xml version="1.0" standalone="no"?>
<!DOCTYPE svg PUBLIC "-//W3C//DTD SVG 20010904//EN"
 "http://www.w3.org/TR/2001/REC-SVG-20010904/DTD/svg10.dtd">
<svg version="1.0" xmlns="http://www.w3.org/2000/svg"
 width="209.000000pt" height="228.000000pt" viewBox="0 0 209.000000 228.000000"
 preserveAspectRatio="xMidYMid meet">

<g transform="translate(0.000000,228.000000) scale(0.100000,-0.100000)"
fill="#000000" stroke="none">
<path d="M1060 1910 c-6 -11 -8 -20 -6 -20 3 0 10 9 16 20 6 11 8 20 6 20 -3
0 -10 -9 -16 -20z"/>
<path d="M1029 1863 c-13 -16 -12 -17 4 -4 9 7 17 15 17 17 0 8 -8 3 -21 -13z"/>
<path d="M965 1788 l-50 -53 53 50 c28 27 52 51 52 52 0 8 -9 -1 -55 -49z"/>
<path d="M1185 1780 c33 -33 62 -60 64 -60 3 0 -21 27 -54 60 -33 33 -62 60
-64 60 -3 0 21 -27 54 -60z"/>
<path d="M1028 1779 c-88 -105 -341 -267 -522 -334 l-49 -19 6 -180 c4 -154
19 -286 32 -286 2 0 34 7 72 16 76 19 347 29 337 13 -3 -5 -2 -9 3 -8 19 3 30
-2 30 -16 0 -10 -4 -12 -12 -5 -7 6 -14 3 -21 -8 -10 -15 -6 -17 34 -13 34 2
43 0 40 -10 -3 -8 -14 -15 -26 -17 -29 -4 -30 -42 -2 -42 11 0 20 -7 20 -15 0
-8 -7 -15 -15 -15 -8 0 -15 -9 -15 -20 0 -13 7 -20 19 -20 10 0 21 -8 23 -18
4 -16 0 -17 -36 -12 l-41 5 -5 62 c-4 50 -10 67 -30 85 -20 19 -22 20 -7 2 11
-13 17 -37 17 -65 -1 -66 4 -96 15 -96 52 0 84 -5 101 -17 19 -14 19 -15 -1
-13 -12 1 -21 -5 -23 -17 -2 -11 0 -16 7 -12 6 4 11 3 11 -2 0 -5 -30 -13 -67
-16 -80 -8 -282 -36 -301 -42 -18 -5 37 -84 109 -156 70 -69 173 -131 270
-164 l72 -25 66 22 c141 46 251 122 335 230 30 38 56 73 58 79 2 5 32 2 75 -9
40 -9 70 -14 67 -9 -3 4 -11 8 -19 8 -22 0 -26 31 -7 55 14 18 22 21 31 12 8
-8 14 -8 22 0 8 8 6 11 -7 10 -20 -2 -21 6 -10 68 4 23 3 25 -4 10 -5 -11 -11
-33 -15 -49 -3 -15 -9 -26 -12 -23 -9 9 20 137 29 131 5 -4 7 -13 3 -23 -5
-12 -4 -13 6 -4 10 10 9 15 0 27 -17 20 -6 35 22 30 22 -4 22 -4 -1 6 -13 5
-28 8 -32 5 -5 -3 -11 -1 -15 5 -3 5 -11 10 -18 10 -6 0 -3 -6 7 -13 17 -13
17 -16 -1 -88 -22 -88 -45 -101 -54 -29 l-5 45 -8 -38 c-9 -40 -21 -54 -31
-37 -6 9 7 91 21 143 9 31 33 19 40 -20 7 -35 8 -36 14 -13 4 14 6 46 6 73 -1
29 3 47 10 47 20 0 36 116 41 296 l5 170 -48 18 c-84 31 -245 115 -331 172
-46 30 -118 91 -162 134 l-80 80 -43 -51z m82 -313 c0 -2 -11 -6 -25 -8 -13
-3 -22 -1 -19 3 5 9 44 13 44 5z m110 -10 c0 -2 -8 -10 -17 -17 -16 -13 -17
-12 -4 4 13 16 21 21 21 13z m-219 -23 c13 -16 12 -17 -3 -4 -10 7 -18 15 -18
17 0 8 8 3 21 -13z m-181 -133 c0 -133 -1 -140 -20 -140 -19 0 -20 7 -20 110
l0 110 -25 0 c-35 0 -31 22 8 41 58 29 57 31 57 -121z m164 118 c12 -17 16
-48 16 -119 0 -114 -14 -142 -70 -142 -56 0 -70 28 -70 142 0 118 11 141 70
141 29 0 43 -6 54 -22z m46 3 c-5 -11 -10 -67 -10 -126 0 -99 2 -107 25 -130
34 -35 78 -33 116 4 25 25 29 37 29 81 0 47 1 50 16 36 8 -9 26 -16 40 -16
l24 0 -25 -56 c-27 -61 -26 -74 9 -74 18 0 28 11 44 48 21 46 21 46 22 15 0
-53 43 -78 91 -53 13 7 19 7 19 0 0 -5 -6 -10 -14 -10 -7 0 -16 -9 -19 -19 -3
-14 -11 -18 -26 -14 -11 3 -29 2 -38 -3 -10 -4 -21 -8 -25 -8 -4 -1 -13 -7
-20 -15 -11 -12 -10 -13 2 -6 12 7 13 6 2 -6 -7 -8 -17 -14 -22 -14 -6 0 -9
-4 -7 -10 1 -5 5 -9 10 -7 4 1 7 -2 7 -7 0 -6 15 -11 33 -13 17 -2 -87 -3
-232 -3 -223 1 -265 3 -269 15 -3 13 -2 13 7 0 9 -12 11 -11 11 8 0 13 -4 21
-9 18 -5 -4 -7 4 -3 16 4 17 2 20 -12 15 -10 -4 -15 -3 -11 3 3 5 1 18 -5 27
-11 16 -11 16 -6 1 3 -10 0 -20 -6 -24 -6 -4 -8 -3 -5 3 3 5 -1 22 -9 37 -9
18 -13 53 -12 95 l2 66 5 -75 6 -75 35 0 35 0 5 135 6 135 2 -113 c2 -105 4
-115 27 -137 30 -31 73 -32 109 -4 25 20 26 24 26 130 0 97 9 149 26 149 2 0
0 -9 -6 -19z m122 2 c15 -14 18 -32 18 -123 0 -121 -12 -144 -71 -142 -56 1
-64 19 -64 143 0 98 2 112 19 125 27 19 75 18 98 -3z m133 -57 c0 -55 -4 -71
-17 -80 -33 -20 -53 4 -56 69 -4 77 1 87 40 83 l33 -3 0 -69z m89 52 c-26 -83
-108 -258 -121 -258 -8 0 -13 4 -11 8 2 4 28 67 58 140 32 78 60 132 68 132 9
0 11 -7 6 -22z m-186 -19 c-3 -8 -7 -3 -11 10 -4 17 -3 21 5 13 5 -5 8 -16 6
-23z m129 -1 c-3 -8 -6 -5 -6 6 -1 11 2 17 5 13 3 -3 4 -12 1 -19z m76 -65
c-7 -2 -19 -2 -25 0 -7 3 -2 5 12 5 14 0 19 -2 13 -5z m12 -29 c24 -25 17
-122 -10 -140 -18 -12 -24 -11 -43 2 -18 12 -22 25 -22 69 0 75 36 108 75 69z
m-378 -390 c2 -10 0 -13 -3 -6 -9 20 -33 -5 -27 -28 5 -17 3 -18 -26 -7 -37
14 -40 27 -7 27 26 0 50 22 38 35 -4 4 0 6 8 3 8 -3 16 -13 17 -24z m101 -10
c3 -33 -18 -64 -44 -64 -9 0 -14 -11 -14 -30 0 -20 -5 -30 -15 -30 -12 0 -15
16 -15 80 l0 81 43 -2 c41 -2 43 -4 45 -35z m73 19 c0 -10 3 -48 8 -85 6 -55
4 -68 -7 -68 -8 0 -16 9 -19 20 -6 23 -23 27 -23 5 0 -8 -7 -15 -15 -15 -8 0
-15 7 -15 15 0 15 18 111 25 133 7 19 45 15 46 -5z m57 -15 l9 -33 11 28 c7
15 18 27 27 27 19 0 19 -3 -4 -48 -10 -20 -21 -54 -25 -74 -9 -50 -26 -49 -26
1 0 21 -7 58 -15 81 -18 52 -18 50 0 50 8 0 18 -15 23 -32z m106 16 c11 -4 16
-20 17 -53 l1 -46 20 48 c21 49 25 52 45 39 17 -11 -6 -153 -26 -160 -11 -4
-13 5 -8 44 l6 49 -16 -42 c-8 -24 -18 -43 -22 -43 -5 0 -13 15 -19 33 l-10
32 -1 -33 c-1 -22 -5 -32 -13 -29 -17 5 -10 167 7 167 2 0 10 -3 19 -6z m172
-24 c15 0 24 -6 24 -16 0 -12 -7 -15 -25 -12 -19 4 -25 1 -25 -13 0 -10 7 -22
16 -27 9 -5 14 -15 10 -21 -4 -6 -12 -8 -18 -5 -6 4 -14 0 -19 -7 -13 -21 -11
-27 11 -34 35 -11 24 -31 -15 -27 -40 5 -40 5 -23 103 8 54 14 69 25 64 8 -3
26 -5 39 -5z m-649 -72 c-3 -8 -6 -5 -6 6 -1 11 2 17 5 13 3 -3 4 -12 1 -19z
m100 15 c-4 -3 -2 -12 4 -20 9 -10 6 -13 -15 -11 -31 3 -32 6 -8 24 18 14 30
19 19 7z m370 -233 c12 0 13 -3 3 -15 -6 -8 -9 -19 -5 -25 4 -6 -3 -9 -17 -7
-31 3 -44 35 -21 53 10 7 20 8 21 3 2 -5 11 -9 19 -9z m-512 -28 c-3 -8 -5
-17 -5 -20 0 -4 -11 -7 -25 -7 -15 0 -23 5 -21 11 2 6 -1 17 -7 23 -8 8 -7 11
6 11 9 0 17 5 17 10 0 6 8 5 20 -2 11 -7 18 -19 15 -26z m104 -51 c28 -28 15
-66 -21 -66 -19 -1 -28 4 -28 15 0 9 -5 21 -12 28 -9 9 -8 12 5 12 10 0 20 7
23 15 8 19 10 19 33 -4z m311 -11 c9 0 10 -3 1 -14 -6 -7 -9 -20 -6 -27 4 -10
-3 -14 -25 -14 -20 0 -30 5 -30 16 0 8 -5 20 -12 27 -9 9 -8 12 5 12 10 0 20
7 24 16 6 16 7 16 18 0 7 -9 18 -16 25 -16z m-144 -60 c16 0 19 -16 4 -25 -5
-3 -10 -14 -10 -24 0 -13 -8 -17 -35 -17 -27 0 -35 4 -35 17 0 10 -4 21 -10
24 -15 9 -12 25 5 25 8 0 20 10 26 22 l12 22 15 -22 c8 -12 21 -22 28 -22z"/>
<path d="M910 1300 c0 -93 1 -100 20 -100 19 0 20 7 20 100 0 93 -1 100 -20
100 -19 0 -20 -7 -20 -100z m30 -5 c0 -50 -4 -85 -10 -85 -6 0 -10 35 -10 85
0 50 4 85 10 85 6 0 10 -35 10 -85z"/>
<path d="M1333 1123 c9 -2 23 -2 30 0 6 3 -1 5 -18 5 -16 0 -22 -2 -12 -5z"/>
<path d="M1087 1394 c-4 -4 -7 -50 -7 -101 0 -92 1 -94 23 -91 21 3 22 7 22
98 0 78 -3 95 -15 98 -9 1 -19 0 -23 -4z m23 -95 c0 -61 -3 -88 -11 -84 -7 5
-9 36 -6 89 6 90 5 86 12 86 3 0 5 -41 5 -91z"/>
<path d="M1240 1360 c0 -27 5 -50 10 -50 6 0 10 23 10 50 0 28 -4 50 -10 50
-5 0 -10 -22 -10 -50z"/>
<path d="M1365 1278 c-9 -24 -2 -93 10 -93 14 0 19 85 6 98 -7 7 -12 5 -16 -5z"/>
<path d="M1070 889 c0 -24 23 -21 28 4 2 10 -3 17 -12 17 -10 0 -16 -9 -16
-21z"/>
<path d="M1172 860 c0 -14 2 -19 5 -12 2 6 2 18 0 25 -3 6 -5 1 -5 -13z"/>
<path d="M869 1703 c-13 -16 -12 -17 4 -4 16 13 21 21 13 21 -2 0 -10 -8 -17
-17z"/>
<path d="M1270 1706 c0 -2 8 -10 18 -17 15 -13 16 -12 3 4 -13 16 -21 21 -21
13z"/>
<path d="M1344 1651 c7 -11 46 -35 46 -28 0 3 -12 12 -26 22 -15 9 -23 12 -20
6z"/>
<path d="M1477 1569 c7 -7 15 -10 18 -7 3 3 -2 9 -12 12 -14 6 -15 5 -6 -5z"/>
<path d="M560 1525 c-14 -8 -20 -14 -15 -14 6 0 21 6 35 14 14 8 21 14 15 14
-5 0 -21 -6 -35 -14z"/>
<path d="M1590 1515 c14 -8 30 -14 35 -14 6 0 -1 6 -15 14 -14 8 -29 14 -35
14 -5 0 1 -6 15 -14z"/>
<path d="M410 1455 c0 -8 2 -15 4 -15 2 0 6 7 10 15 3 8 1 15 -4 15 -6 0 -10
-7 -10 -15z"/>
<path d="M1732 1440 c0 -19 2 -27 5 -17 2 9 2 25 0 35 -3 9 -5 1 -5 -18z"/>
<path d="M1733 1155 c0 -22 2 -30 4 -17 2 12 2 30 0 40 -3 9 -5 -1 -4 -23z"/>
<path d="M412 1140 c0 -19 2 -27 5 -17 2 9 2 25 0 35 -3 9 -5 1 -5 -18z"/>
<path d="M421 1064 c0 -11 3 -14 6 -6 3 7 2 16 -1 19 -3 4 -6 -2 -5 -13z"/>
<path d="M1722 1060 c0 -14 2 -19 5 -12 2 6 2 18 0 25 -3 6 -5 1 -5 -13z"/>
<path d="M1711 1004 c0 -11 3 -14 6 -6 3 7 2 16 -1 19 -3 4 -6 -2 -5 -13z"/>
<path d="M426 945 c-11 -8 -15 -15 -9 -15 6 0 16 7 23 15 16 19 11 19 -14 0z"/>
<path d="M785 930 c-4 -6 -10 -8 -14 -5 -5 2 -4 -15 1 -39 19 -92 -5 -158 -49
-130 -19 12 -46 116 -38 148 3 13 1 16 -7 8 -6 -6 -18 -8 -27 -5 -12 4 -12 2
3 -9 10 -8 17 -23 15 -33 -5 -23 -29 -32 -29 -11 0 9 -5 16 -11 16 -8 0 -10
-15 -5 -46 8 -58 18 -77 26 -45 8 35 22 35 45 -2 24 -38 49 -45 76 -21 15 13
22 15 31 6 7 -7 19 -12 28 -11 10 0 8 3 -6 9 -16 6 -22 20 -27 62 -11 92 -9
106 16 111 22 4 22 4 0 6 -12 0 -25 -4 -28 -9z m-121 -115 c-21 -15 -34 -11
-34 10 0 8 6 12 14 9 8 -3 18 0 22 7 6 11 8 11 12 0 2 -7 -4 -18 -14 -26z"/>
<path d="M589 893 c-13 -16 -12 -17 4 -4 9 7 17 15 17 17 0 8 -8 3 -21 -13z"/>
<path d="M291 884 c0 -11 3 -14 6 -6 3 7 2 16 -1 19 -3 4 -6 -2 -5 -13z"/>
<path d="M540 896 c0 -2 7 -7 16 -10 8 -3 12 -2 9 4 -6 10 -25 14 -25 6z"/>
<path d="M830 880 c0 -11 4 -20 9 -20 5 0 7 9 4 20 -3 11 -7 20 -9 20 -2 0 -4
-9 -4 -20z"/>
<path d="M508 883 c7 -3 16 -2 19 1 4 3 -2 6 -13 5 -11 0 -14 -3 -6 -6z"/>
<path d="M722 860 c1 -16 5 -27 10 -24 11 7 10 54 -1 54 -5 0 -9 -13 -9 -30z"/>
<path d="M469 863 c-13 -16 -12 -17 4 -4 9 7 17 15 17 17 0 8 -8 3 -21 -13z"/>
<path d="M428 863 c7 -3 16 -2 19 1 4 3 -2 6 -13 5 -11 0 -14 -3 -6 -6z"/>
<path d="M560 860 c-10 -6 -11 -10 -2 -10 21 0 13 -18 -10 -23 l-23 -4 23 -2
c26 -1 29 -19 5 -36 -17 -12 -11 -35 10 -35 8 0 7 4 -2 9 -12 8 -11 13 8 28
19 16 21 24 14 50 -6 26 -11 30 -23 23z"/>
<path d="M392 848 c-7 -7 -11 -21 -11 -32 1 -21 1 -21 6 -1 3 11 10 26 15 33
13 15 6 16 -10 0z"/>
<path d="M471 832 c-10 -18 -15 -21 -26 -12 -10 9 -13 7 -11 -6 1 -9 11 -21
21 -26 14 -8 16 -8 10 2 -5 8 -1 18 10 26 9 7 15 19 13 26 -3 8 -9 5 -17 -10z"/>
<path d="M830 816 c0 -8 4 -17 9 -20 5 -4 7 3 4 14 -6 23 -13 26 -13 6z"/>
<path d="M730 800 c0 -11 5 -20 10 -20 6 0 10 9 10 20 0 11 -4 20 -10 20 -5 0
-10 -9 -10 -20z"/>
<path d="M487 790 c-3 -11 -1 -23 4 -26 13 -8 11 -48 -3 -63 -11 -11 -10 -12
2 -5 8 4 32 9 54 10 21 1 43 7 49 13 7 7 -1 7 -28 0 -40 -11 -55 -3 -55 34 0
9 -4 17 -9 17 -5 0 -7 9 -4 20 3 11 3 20 0 20 -2 0 -7 -9 -10 -20z"/>
<path d="M591 769 c-1 -18 6 -29 24 -37 36 -16 46 -14 15 3 -14 7 -28 24 -31
37 -7 23 -7 23 -8 -3z"/>
<path d="M436 752 c-3 -5 1 -15 8 -21 11 -10 14 -9 12 3 -3 21 -13 29 -20 18z"/>
<path d="M669 743 c-13 -16 -12 -17 4 -4 9 7 17 15 17 17 0 8 -8 3 -21 -13z"/>
<path d="M448 683 c7 -3 16 -2 19 1 4 3 -2 6 -13 5 -11 0 -14 -3 -6 -6z"/>
<path d="M384 600 c1 -8 10 -16 21 -17 15 -1 15 0 3 3 -9 3 -19 11 -21 17 -2
7 -3 5 -3 -3z"/>
<path d="M1728 583 c6 -2 18 -2 25 0 6 3 1 5 -13 5 -14 0 -19 -2 -12 -5z"/>
<path d="M490 566 c0 -2 11 -6 25 -8 13 -3 22 -1 19 3 -5 9 -44 13 -44 5z"/>
<path d="M1628 563 c6 -2 18 -2 25 0 6 3 1 5 -13 5 -14 0 -19 -2 -12 -5z"/>
<path d="M685 460 c27 -27 51 -50 54 -50 3 0 -17 23 -44 50 -27 28 -51 50 -54
50 -3 0 17 -22 44 -50z"/>
<path d="M1450 455 c-24 -25 -42 -45 -39 -45 3 0 25 20 49 45 24 25 42 45 39
45 -3 0 -25 -20 -49 -45z"/>
<path d="M1324 354 c-18 -14 -18 -15 4 -4 12 6 22 13 22 15 0 8 -5 6 -26 -11z"/>
<path d="M1010 266 c0 -2 9 -6 20 -9 11 -3 18 -1 14 4 -5 9 -34 13 -34 5z"/>
<path d="M1118 263 c7 -3 16 -2 19 1 4 3 -2 6 -13 5 -11 0 -14 -3 -6 -6z"/>
<path d="M1068 253 c7 -3 16 -2 19 1 4 3 -2 6 -13 5 -11 0 -14 -3 -6 -6z"/>
</g>
</svg>
