<?xml version="1.0" encoding="UTF-8"?>
<svg id="Layer_1" data-name="Layer 1" xmlns="http://www.w3.org/2000/svg" viewBox="0 0 512 512">
  <defs>
    <style>
      .cls-1 {
        isolation: isolate;
        opacity: .2;
      }
    </style>
  </defs>
  <path id="Path_198" data-name="Path 198" class="cls-1" d="M296.53,47.58c6.87.86,13.17,4.26,17.67,9.52,6.23,5.79,12.13,12.3,18.24,18.27,56.65,55.22,113.35,110.81,169.37,166.89,3.95,5.89,5.18,13.19,3.38,20.06-2.82,7.4-7.74,13.82-14.16,18.46-45.7,45.5-91.88,90.56-137.91,135.66-11.57,11.35-22.86,23.04-34.54,34.26-4.24,4.92-9.33,9.02-15.04,12.1-12.28,4.57-25.94-1.67-30.51-13.95-1.11-2.97-1.61-6.13-1.47-9.29v-86.52c-77.98,7.47-151.61,39.34-210.43,91.09-12.83,10.58-25.51,27.76-43.87,16.72-14.58-8.83-11.57-22.66-9.54-36.86,11.79-82.01,43.29-164.29,112.25-214.25,44.71-30.7,97.37-47.78,151.59-49.14v-88.08c-.56-13.03,9.5-24.07,22.53-24.72l.53-.22h1.92Z"/>
</svg>