<?xml version="1.0" encoding="UTF-8"?>
<svg id="Layer_1" data-name="Layer 1" xmlns="http://www.w3.org/2000/svg" viewBox="0 0 512 512">
  <defs>
    <style>
      .cls-1 {
        opacity: .15;
      }
    </style>
  </defs>
  <g id="Group_175" data-name="Group 175" class="cls-1">
    <g id="Group_176" data-name="Group 176">
      <path id="Path_218" data-name="Path 218" d="M334.13,505.94c-42.64-2.12-29.48-44.04-38.19-72.97-9.35-30.91-39.32-45.45-62.19-65.14-19.86-16.78-37.17-36.35-51.39-58.12-8.8-13.82-17.92-41.46-32.36-48.37-6.04-2.83-13.41-1.91-16.26-9.74l-.67-215.74c1.22-13.2,5.37-14.9,17.35-16.88C229.13,6.98,308.89,3.27,388.38,7.91c34.44,1.87,63.39-.83,72.4,39.85.64,7.91,1.95,15.75,3.94,23.43,2.3,4.81,10.11,8.98,14.07,13.29,9.63,9.43,14.38,22.77,12.88,36.16-2.63,8.97-6.21,17.64-10.69,25.84,7.44,9.21,18.45,15.62,21.84,27.64,4.91,17.41-6.77,32.52-14.86,46.83,11.08,22.85,21.12,48.28,4.42,71.57-23.77,33.24-109.51,17.14-145,20.73-13.45,1.36-16.49,7.49-13.45,20.27,8.02,33.63,36.33,64.36,38.84,102.18,1.57,23.66-7.9,71.73-38.63,70.23"/>
      <path id="Path_219" data-name="Path 219" d="M17.01,259.45c-5.02-.66-8.88-4.78-9.21-9.84l.39-225.69c2.58-4.65,7.4-7.61,12.72-7.81,23.01-1.65,46.12-1.45,69.1.6,5.3,1.11,9.54,3.71,9.54,9.63l-.32,225.6c-1.47,5.71-5.99,7.23-11.33,7.83-23.6,1.65-47.29,1.54-70.88-.32"/>
    </g>
  </g>
</svg>