<?xml version="1.0" encoding="UTF-8"?>
<svg id="Layer_1" data-name="Layer 1" xmlns="http://www.w3.org/2000/svg" xmlns:xlink="http://www.w3.org/1999/xlink" viewBox="0 0 512 512">
  <defs>
    <style>
      .cls-1 {
        fill: none;
      }

      .cls-2 {
        clip-path: url(#clippath);
      }
    </style>
    <clipPath id="clippath">
      <rect class="cls-1" x="6" y="55.7" width="500" height="400.6"/>
    </clipPath>
  </defs>
  <g class="cls-2">
    <g id="Group_192" data-name="Group 192">
      <path id="Path_221" data-name="Path 221" d="M357.2,63.89c7.68,8.88,13.5,41.26,19.68,54.05,3.55,7.09,10.38,11.95,18.24,12.99,43.1,4.4,101.19-16,110.84,46.35v232.43c-2.17,21.74-17.82,39.75-39.06,44.91-137.27,3.36-275.12.44-412.6,1.48-25.32-1.47-45.81-21.15-48.3-46.39v-232.45c9.92-62.4,67.6-41.96,110.85-46.35,32.54-3.32,20.27-67.91,51.22-74.74l172.42-.47c6.41.49,12.39,3.42,16.71,8.19M242.12,156.59c-68.64,7.6-118.12,69.41-110.52,138.05,7.6,68.64,69.41,118.12,138.05,110.52,33.02-3.66,63.23-20.31,83.96-46.27,42.62-54.81,32.74-133.8-22.07-176.42-25.4-19.75-57.4-29.01-89.42-25.88M450.95,185.94c-15.51-16.64-41.81,8.72-24.61,25.08,6.93,6.8,18.05,6.69,24.84-.24,6.8-6.93,6.69-18.05-.24-24.84"/>
      <path id="Path_222" data-name="Path 222" d="M309.36,227.92c29.2,29.43,29.02,76.95-.4,106.16-29.43,29.2-76.95,29.02-106.16-.4-10.93-11.01-18.18-25.14-20.75-40.45-5.92-41.37,22.81-79.7,64.18-85.63,23.05-3.3,46.33,4.2,63.13,20.32"/>
    </g>
  </g>
</svg>