<?xml version="1.0" encoding="UTF-8"?>
<svg id="Layer_1" data-name="Layer 1" xmlns="http://www.w3.org/2000/svg" viewBox="0 0 512 512">
  <defs>
    <style>
      .cls-1 {
        fill: #fff;
      }
    </style>
  </defs>
  <path id="Path_115" data-name="Path 115" class="cls-1" d="M227.12,288.27v-69.87c0-3.11,9.5-5.05,12.19-3.52l65.99,35.82c2.76,1.58,5.79,5.58,3,7.08l-69.06,34.04c-.87.37-1.81.53-2.76.48-3.81,0-9.36-1.7-9.36-4.06M178.79,162.13c-33.13,0-59.99,26.86-60,59.99v67.76c0,33.14,26.86,60,60,60h154.42c33.14,0,60-26.86,60-60h0v-67.75c0-33.13-26.87-59.99-60-59.99h-154.42Z"/>
  <path id="Path_116" data-name="Path 116" class="cls-1" d="M25.27,255.98c.02-127.45,103.36-230.76,230.81-230.74,127.45.02,230.76,103.36,230.74,230.81-.02,127.44-103.34,230.74-230.77,230.74-127.4-.14-230.64-103.38-230.77-230.77M6,256.01c0,138.07,111.94,249.99,250.01,249.99,138.07,0,249.99-111.94,249.99-250.01,0-138.07-111.93-249.99-250-249.99C117.99,6.16,6.15,118,6,256.01"/>
</svg>