<?xml version="1.0" encoding="UTF-8"?>
<svg id="Layer_1" data-name="Layer 1" xmlns="http://www.w3.org/2000/svg" viewBox="0 0 512 512">
  <defs>
    <style>
      .cls-1 {
        fill: #00b6ed;
      }
    </style>
  </defs>
  <g id="Group_1" data-name="Group 1">
    <path id="Path_2" data-name="Path 2" class="cls-1" d="M269.39,10.26c5.49,1.08,11.04,1.76,16.63,2.05,113.37,16.79,191.67,122.31,174.88,235.68-.07.46-.14.92-.21,1.38-11.12,67.34-61.16,130.58-108.41,177.38-22.69,23.1-46.7,44.86-71.9,65.19-5.76,4.61-12.45,7.9-19.62,9.64-3.15-.28-6.65.41-9.45,0-7.2-1.66-13.91-4.96-19.62-9.64-25.2-20.33-49.21-42.1-71.9-65.19-47.34-46.77-97.38-110.01-108.5-177.35C33.93,135.73,112.01,29.5,225.68,12.14c5.61-.86,11.25-1.48,16.91-1.88h26.8ZM247.16,39.33c-98.26,4.89-173.96,88.5-169.07,186.76.55,11.12,2.15,22.16,4.76,32.98,18.05,70.2,78.9,131.49,130.96,178.77,10.99,9.98,24.53,23.31,35.97,32.09,5.23,4.03,7.09,4.09,12.41,0,14.42-11.15,32.06-28.19,45.54-40.79,48.79-45.35,104.34-103.93,121.38-170.07,23.04-95.7-35.86-191.96-131.56-215-16.49-3.97-33.45-5.57-50.39-4.74"/>
    <path id="Path_3" data-name="Path 3" class="cls-1" d="M249.24,139.8c38.8-3.71,73.27,24.73,76.99,63.53,3.71,38.8-24.73,73.27-63.53,76.99-25.32,2.42-49.99-8.97-64.57-29.81-22.28-32.07-14.34-76.13,17.73-98.41,9.9-6.88,21.39-11.11,33.39-12.3"/>
  </g>
</svg>