<?xml version="1.0" encoding="UTF-8"?>
<svg id="Layer_1" data-name="Layer 1" xmlns="http://www.w3.org/2000/svg" viewBox="0 0 512 512">
  <defs>
    <style>
      .cls-1 {
        fill: #c00;
      }
    </style>
  </defs>
  <g id="Group_92" data-name="Group 92">
    <g id="Group_83" data-name="Group 83">
      <path id="Path_79" data-name="Path 79" class="cls-1" d="M113.42,505.99c-4.24-1.79-7.91-4.72-10.58-8.46l-70.66-122.7c-3.26-6.93-1.1-15.2,5.13-19.65,15.64-12.57,42.58-22.3,59.68-34.07,14.27-3.74,18.19,5.26,23.79,15.96,32.84-14.09,63.81-41.18,101.5-38.1,33.26,2.72,74.34,21.34,108.19,26.57,11.71,4.31,20.06,14.75,21.7,27.12l70.34-70.28c36.31-29.26,79.35,19.16,48.34,52.25-30.6,27.3-58.07,62.29-88.88,88.85-39,33.65-87.91,18.81-135.18,21.87-13.7-1.86-12.92-18.19-2.06-19.46,30.2-3.54,73.53,5.91,101.86-3.61,20-6.72,48.44-39.21,64.21-54.92,12.93-12.88,25.86-26.17,38.5-39.63,3.75-3.09,7.19-6.53,10.27-10.27,10.13-16.12-11.71-32.78-25.32-19.46l-85.99,85.92c-5.3,3.57-11.36,5.87-17.69,6.71-26.77,2.79-57.65-1.85-84.86.14-5.39-.28-9.54-4.87-9.27-10.27.21-4.08,2.93-7.6,6.83-8.83l77.6-.5c15.05-4.06,16.55-22.14,1.5-27.75-32.07-5.13-68.66-21.29-100.35-24.65-32.54-3.45-61.25,23-90.07,34.4l-.9,1.07,56.88,100.18c1.45,5.86-.59,12.03-5.25,15.87l-62.44,35.7h-6.82ZM167.09,457.08l-66.85-116.12-47.92,28.28,66,114.84,16.5-8.85-24.81-43.44c-1.81-5.08.84-10.67,5.92-12.48,3.77-1.35,7.99-.25,10.63,2.76l25,42.47,15.54-7.47Z"/>
      <path id="Path_80" data-name="Path 80" class="cls-1" d="M265.76,6.01c97,8,158.25,110.43,114.95,199.42-52.27,107.44-207.73,102.28-253.1-8.05C91.82,110.35,152.87,12.82,246.23,6.01h19.53ZM247.01,25.83c-91.5,6.85-141.66,111.88-88.5,187.49,38.12,53.83,112.66,66.57,166.5,28.45,12.96-9.17,23.95-20.84,32.35-34.31,51.35-82.66-14-188.86-110.36-181.64"/>
      <path id="Path_81" data-name="Path 81" class="cls-1" d="M6.01,258.93v-5.86c3.54-8.34,16.03-7.8,23.94-6.85,5.42.44,9.45,5.19,9.01,10.61-.36,4.46-3.7,8.12-8.11,8.89-7.64,1.17-21.6,1.66-24.84-6.77"/>
      <path id="Path_82" data-name="Path 82" class="cls-1" d="M460.09,6.01c8.22,4.1,8.11,16.84,6.78,24.85-.87,5.36-5.92,8.99-11.27,8.12-4.51-.73-7.91-4.47-8.23-9.03-.95-8.5-1.5-19.45,6.86-23.94h5.85Z"/>
      <path id="Path_83" data-name="Path 83" class="cls-1" d="M505.99,51.89v5.86c-2.04,8.62-22.37,8.44-27.7,5.73-4.79-2.55-6.6-8.5-4.05-13.28,1.56-2.93,4.5-4.88,7.81-5.17,8.37-1,19.39-1.5,23.95,6.85"/>
      <path id="Path_84" data-name="Path 84" class="cls-1" d="M455.96,70.64c4.04-.26,7.87,1.81,9.87,5.32,1.57,6.86,1.79,13.95.64,20.89-1.65,5.15-7.15,7.98-12.3,6.34-3.87-1.24-6.57-4.73-6.79-8.78-.92-7.7-1.6-22.53,8.58-23.77"/>
      <path id="Path_85" data-name="Path 85" class="cls-1" d="M62.34,210.41c2.92,3.3,3.09,19.05,1.82,23.19-1.83,5.15-7.49,7.85-12.64,6.02-3.07-1.09-5.4-3.62-6.25-6.76-.72-6.28-.63-12.62.27-18.87,1.82-5.24,7.55-8,12.78-6.18,1.53.53,2.9,1.42,4.01,2.6"/>
      <path id="Path_86" data-name="Path 86" class="cls-1" d="M53.63,271.8c4.04-.26,7.87,1.81,9.87,5.32,1.57,6.86,1.79,13.95.64,20.89-1.65,5.15-7.15,7.98-12.3,6.34-3.87-1.24-6.57-4.73-6.79-8.78-.92-7.7-1.6-22.53,8.58-23.77"/>
      <path id="Path_87" data-name="Path 87" class="cls-1" d="M101.4,249.46c3.52,4.26,2.92,10.56-1.34,14.08-1.15.95-2.5,1.63-3.95,2-6.02.67-12.1.67-18.12,0-5.19-1.31-8.34-6.58-7.03-11.77.57-2.28,1.96-4.27,3.89-5.6,4.75-3.18,22.52-3.28,26.55,1.28"/>
      <path id="Path_88" data-name="Path 88" class="cls-1" d="M415.87,45.28c7.2-1.62,23.36-1.64,25.29,7.56,2.73,13.03-15.14,12.78-23.57,11.78-5.42-.37-9.51-5.07-9.14-10.49.29-4.25,3.28-7.83,7.41-8.86"/>
      <path id="Path_89" data-name="Path 89" class="cls-1" d="M203.96,426.13c17.61-4,15.91,21.17,2.21,18.93-11.2-1.83-10.91-16.94-2.21-18.93"/>
      <path id="Path_90" data-name="Path 90" class="cls-1" d="M97.56,385.12c15.27-2.5,15.09,21,.82,19.29-5.37-.64-9.19-5.52-8.55-10.88.5-4.17,3.61-7.56,7.72-8.41"/>
      <path id="Path_91" data-name="Path 91" class="cls-1" d="M260.54,126.75c18-16.66,35.04-38.64,53.6-54.31,2.24-2.18,4.92-3.85,7.86-4.89,5.48-.67,10.47,3.24,11.13,8.72.37,3.08-.71,6.17-2.92,8.34-22.6,18.66-43.74,49-66.38,66.43-3.92,4.31-10.58,4.63-14.89.71-.09-.08-.18-.17-.27-.25-14.74-12.89-28.61-26.76-41.5-41.5-7.5-10.25,1.54-21.26,12.4-15.33l36.76,35.27c1.23-1.22,2.95-2.03,4.2-3.19"/>
      <path id="Path_92" data-name="Path 92" class="cls-1" d="M252.79,223.01c18.21-4.17,17.69,30.16,1,26.92-10.92-2.11-10.37-24.78-1-26.92"/>
      <path id="Path_93" data-name="Path 93" class="cls-1" d="M253.78,39.4c14.04-3.11,15.6,20.4,8.04,25.65-16.41,11.4-21.92-22.57-8.04-25.65"/>
      <path id="Path_94" data-name="Path 94" class="cls-1" d="M153.77,137.17c4.76-4.21,22.04-3.88,23.9,4.29,2.87,12.62-9.16,14.38-18.77,12.92-5.45-.91-9.12-6.06-8.21-11.51.37-2.19,1.45-4.19,3.08-5.7"/>
      <path id="Path_95" data-name="Path 95" class="cls-1" d="M341.67,135.13c7.52-1.5,20.31.03,19.86,10-.46,10.18-12.35,10.46-20.03,9.24-5.31-1.22-8.62-6.51-7.4-11.82.86-3.74,3.81-6.64,7.57-7.43"/>
    </g>
  </g>
</svg>