<?xml version="1.0" encoding="UTF-8"?>
<svg id="Layer_1" xmlns="http://www.w3.org/2000/svg" version="1.1" viewBox="0 0 1479.9 381.5">
  <!-- Generator: Adobe Illustrator 29.3.1, SVG Export Plug-In . SVG Version: 2.1.0 Build 151)  -->
  <defs>
    <style>
      .st0 {
        fill: none;
        stroke: #fff;
        stroke-miterlimit: 10;
      }

      .st1 {
        fill: #005aa5;
      }

      .st2 {
        fill: #c00;
      }

      .st3 {
        fill: #21a7df;
      }

      .st4 {
        display: none;
      }

      .st5 {
        fill: #00a4ff;
      }

      .st6 {
        fill: #007bce;
      }
    </style>
  </defs>
  <g>
    <g class="st4">
      <path class="st6" d="M195.1,113.5s-5.6,32.3-39,39.7c0,0,36.4,13.1,29,48.9l-77.7-50.6,87.7-38Z"/>
    </g>
    <g class="st4">
      <path class="st5" d="M153.9,113.2s-5.6,32.3-39,39.7c0,0,36.4,13.1,29,48.9l-67-50.5,77-38.1Z"/>
    </g>
  </g>
  <path class="st3" d="M332.4,314.9c-1.2-2-4.2-3.1-6.2-4.1-38.4-19.5-83.6-22.9-125.9-16.7-46.5,6.8-88.3,29.9-134.3,38.3-18.2,3.3-35.6,3.9-54.1,2.6l5.3,2.6c23.2,8.4,47,9.8,71.5,8.7,2.3-.1,4.5-.2,6.7-.4.4,0,1,0,1.6-.1,44.4-4,81.3-18,123.5-28.2,36.8-8.8,74.9-12.9,112-2.6Z"/>
  <path class="st3" d="M441.8,342.6c-7.4-.3-14.9-.3-22.4-.7-6.4-.3-12.7-.7-19-1.4-4.1-.6-5.2-.9-6.6-1-16.1-1.8-32.2-5.2-48.3-7.2-44.1-5.3-96.1-7-137.5,10.8-4.6,2-8.6,5.1-13.5,6.5l.4,1.6c29.5-8.1,61.1-5.3,91.1-.3,26.7,4.4,53.4,12.9,80.5,14.5,12.1.7,16.8.6,24.5.9,2.2.1,6.4.1,8.6.1,10.3,0,20.7-1.3,30.8-3.1.3,0,.6,0,.8,0,5.6-.4,11.3-2.2,16.7-3.5,23.6-5.8,46.8-15.1,65.6-30.4-18.3,6.5-37,10.9-56.4,12.7-5,.5-10.3.2-15.2.4Z"/>
  <path class="st1" d="M559.7,107.7c-8.5,0-15.9,4.5-19.4,11.9l-35.6,74.4-10.6-68.2c-1.6-10.1-10.7-18-20.9-18h-51.1l5.4,23.5c21.6,13.7,43.6,35,61,67.8l-26.2,13.7,24.2,7.7c-14.2,20.9-40.1,35.9-70,45.4l-18.7,42.8c13,7.8,28.4,12.3,49.8,12.3,36.1,0,59.5-13.8,82-54.7l87.2-158.4h-57.2Z"/>
  <path class="st1" d="M452.3,183.1c.5-4.8-3-9-7.8-9.5-4.8-.5-9.1,3-9.6,7.8-.5,4.8,3,9,7.8,9.5,4.8.5,9.1-3,9.6-7.8Z"/>
  <path class="st1" d="M145,15.1H53.6c-12.1,0-22.1,9.3-23.1,21.3l2.3,33.7c3.6,54.1-.6,108.5-12.6,161.4l-7.8,34.3c-1.1,13.5,9.6,25,23.1,25h88.2c51.5,0,95.9-33.6,99.9-85.2,3.3-39.9-32.4-52.2-32.4-52.2,36.1-8.8,39.4-39.9,39.4-39.9h0c.6-3.1.5-5.2.5-5.2,4-51.5-34.6-93.3-86.1-93.3ZM169.6,165.5c-18.8,4.2-33.3,18.1-54.4,46.3,0,0-19.3,31.8-54.2,35.5l9.2-14.6c12.9-20.5,16.3-40.4,19.7-63.9.6-4.3,4.5-11.7,13.5-12.9l10.5-2.8-11.8-4.1c-5.9-2.1-10.8-8.9-10.9-15.1-.3-22.6-.4-41.8-10.1-63.1-3.3-7.2-5.3-11.7-5.3-11.7,44,4.9,56.1,70.4,97.5,83.4l-20.9,10.5,17,12.7Z"/>
  <path class="st1" d="M285.3,275.5c18.9,0,30.6-7.8,44.2-20.1h0c-1.5,8.3,5.5,16.5,14.1,16.5h51.1s16-90.2,16-90.2c1.4-8.1,1.6-15.9,1-22.8-2.9-32.8-30-53.5-84.4-53.5s-47.9,3.1-65.2,8.2c-1,.3-1.5,1.3-1.2,2.3l12,42.2c.3,1.2,1.6,1.9,2.7,1.5,10.9-3.8,28-6.4,42.1-6.4s25.8,5.7,26.7,15.9c.2,2.7,0,6-.5,8.1-.2,1-1.3,1.6-2.3,1.3-12-3.3-24.2-4.9-35.9-4.9-46.3,0-71.3,22.5-68.3,57.1,2.5,28.3,22.6,44.8,47.9,44.8ZM327.4,201.5c3.8,0,7,.4,10.8,1.3,1.1.3,1.9,1.4,1.7,2.5l-.9,5c-2.5,15.3-13.3,26.5-24.1,26.5s-11.5-4.5-12.3-12.9c-1.3-14.1,7.6-22.2,24.8-22.2Z"/>
  <path class="st2" d="M794.5,61c-10.7,0-19.3,7.1-21.2,17.4l-10.4,56.8h-64.3l13.6-74.2h-51.9c-10.9,0-19.8,7.3-21.7,17.9l-15.7,87.4-18.9,105.2h57.2c7.7,0,14-5.2,15.4-12.7l11.2-62.8h64.3l-13.5,75.5h55.1c9,0,16.3-6,17.9-14.7l16.3-90.5,18.9-105.2h-52.3Z"/>
  <path class="st2" d="M1234.8,107.3c-12,0-22.4,6.7-27.1,17.3l-18.3,41.6-3.4,7.8-.9-7.8-7.1-59.5h-54.4l-28.5,59.5-3.5,7.2-.5-7.2-3.1-40.6c-.7-10.1-9.6-18.3-19.7-18.3h-45.4l7.2,58.9,11.4,93.7c.9,7.1,7.2,12.7,14.2,12.7h45l35.2-70.3,7.5,56.8c1,7.6,7.7,13.5,15.3,13.5h42.7l51.3-106.4,28.4-58.9h-46.3Z"/>
  <path class="st2" d="M1468.1,107.3h-77.9l-39.8,46,18.4-101.3h-50.1c-10.7,0-19.4,7.2-21.3,17.5l-17.4,96.7-18.9,105.2h53.7c8.6,0,15.6-5.8,17.1-14.1l7.2-40.1,29.6,54.2h70.9l-37.2-84.6,65.6-79.5Z"/>
  <path class="st0" d="M958.7,190.7"/>
  <g>
    <path class="st2" d="M915.2,230.3c-.4.1-2.9,1.9-3.1,2.2-1.2,1.6-.6,3.5,1.4,3.9.8.2,3.6-1.7,4.1-2.2,1.5-2-.3-4.4-2.4-3.8Z"/>
    <path class="st2" d="M907.5,235.6c-1.6.5-5,2.9-6.8,3.8-4.7,2.4-9.1,4.2-14.3,2.6-1.5-.5-3.9-2.1-4.9.4-1,2.4,1.6,3.3,3.3,3.9,5.8,2.1,11.4.4,16.7-2.1,1.5-.7,8.3-4.4,8.8-5.4.8-1.8-.8-3.8-2.8-3.2Z"/>
    <path class="st2" d="M1011.5,158.8c-2.9-32.8-30-53.5-84.4-53.5s-47.9,3.1-65.2,8.2c-1,.3-1.5,1.3-1.2,2.3l12,42.2c.3,1.2,1.6,1.9,2.7,1.5,10.9-3.8,28-6.4,42.1-6.4s25.8,5.7,26.7,15.9c.2,2.7,0,6-.5,8.1-.2,1-1.3,1.6-2.3,1.3-12-3.3-24.2-4.9-35.9-4.9-46.3,0-71.3,22.5-68.3,57.1,2.5,28.3,22.6,44.8,47.9,44.8s30.6-7.8,44.2-20.1h0c-1.5,8.3,5.5,16.5,14.1,16.5h51.1s16-90.2,16-90.2c1.4-8.1,1.6-15.9,1-22.8ZM947.3,218.8c-10.9,7.2-21.2,15.3-32,22.6-12.9,8.6-25.9,15.9-40.3,5.1-15.2-11.3-15.5-37.6,3.2-45.4,7.3-3,14.7-2.8,22.4-2,14.4,1.6,28.7,4.5,43,6.4l.5.5c.4,3.2,1.2,6.3,2.2,9.4.3,1,.6,2.1,1.2,3l-.2.4ZM979.3,213.7c-1.5,4.1-3.2,5-7.1,3-2-1-3.2-2.8-5.3-3.6l-15.1,3.6c-.2,0-.3-.2-.4-.4-.4-.6-1.2-3.4-1.4-4.2-.6-2-.9-4.1-1.2-6.2,0-.3.7-.4,1-.5,3.6-1.2,7.8-1.7,11.5-2.9.7-.2,1.9-.6,2.3-1.2.7-1.1.3-2,.4-3.2.5-4.1,4-6.4,7.9-5.1,5.5,1.8,5.1,5.5,2.7,9.9-.8,1.5-2.9,3.3-1.9,5,1.3,2.2,3.9.9,4.7-1.1,3.2.4,2.7,4.6,1.9,6.8Z"/>
  </g>
</svg>