<?xml version="1.0" encoding="UTF-8"?>
<svg id="Layer_1" data-name="Layer 1" xmlns="http://www.w3.org/2000/svg" viewBox="0 0 512 512">
  <defs>
    <style>
      .cls-1 {
        fill: #fff;
      }
    </style>
  </defs>
  <g id="Group_46" data-name="Group 46">
    <path id="Path_72" data-name="Path 72" class="cls-1" d="M75.12,83.21C212.21-59.56,455.23,7.35,499.2,199.59c44.56,194.83-145.29,361.31-332.69,290.33C37.39,440.35-27.1,295.49,22.47,166.37c11.87-30.93,29.77-59.2,52.65-83.16M411.26,92.68C257.37-53.93,4.36,75.91,31.98,287.15c4.93,34.56,17.63,67.56,37.15,96.51l2.07-.27L431.06,114.64c-.71-.95-1.34-2-2.07-2.9-5.5-6.72-11.42-13.09-17.73-19.06M85.08,402.7c-.55.79,2.24,4,2.88,4.72,32.43,35.61,75.26,60.08,122.41,69.93,122.32,24.87,241.64-54.13,266.52-176.45,5.49-26.99,6-54.76,1.5-81.93-4.98-30.1-16.2-58.82-32.94-84.33L85.08,402.7Z"/>
    <path id="Path_73" data-name="Path 73" class="cls-1" d="M304.39,178.37v-58.22c8.55.35,15.77-6.3,16.12-14.85.05-1.19-.04-2.38-.26-3.55-1.22-5.66-5.64-10.07-11.29-11.29-3.07-.51-8.83-.78-12.18-.93-23.31-1.08-51.76-1-75.11,0-3.7.15-10.32.37-13.64.93-7.96,1.99-12.79,10.06-10.8,18.01.17.68.39,1.34.65,1.99,2.65,7,8,8.63,14.75,10.12v86.61c-.5,8.83-8.22,14-11.65,21.49h35.7l-31.29,23.71-23.21.47-27.18,37.28-48,35.4c1.59-7.68,4.44-15.04,8.43-21.79l71.94-99.25.46-66.46c-4.83-5.78-9.09-12.02-12.7-18.63-8.14-20.02,1.49-42.85,21.51-50.99,4.74-1.93,9.81-2.91,14.92-2.88,32.81-2.17,68.86.88,101.82.91,21.6,4.9,35.14,26.38,30.24,47.98-2.01,8.86-6.97,16.77-14.06,22.44l-.66,23.33-24.5,18.17Z"/>
    <path id="Path_74" data-name="Path 74" class="cls-1" d="M352.4,236.01l45.86,63c21.33,31.89,12.77,75.04-19.12,96.37-10.41,6.96-22.5,10.98-35,11.63-56.6-2.76-116.55,3.57-172.76,0-12.2-1.05-24.02-4.81-34.58-11l21.49-16.45,15.27,3.38h169.84c24.75-.94,44.05-21.77,43.1-46.52-.35-9.21-3.53-18.08-9.1-25.42-13.12-19.85-29.42-38.39-42.58-58.31l-5.68-.17,21.15-16.36,2.11-.16Z"/>
  </g>
</svg>