<?xml version="1.0" encoding="UTF-8"?>
<svg id="Layer_1" data-name="Layer 1" xmlns="http://www.w3.org/2000/svg" viewBox="0 0 512 512">
  <defs>
    <style>
      .cls-1 {
        fill: #fff;
      }
    </style>
  </defs>
  <path id="Path_119" data-name="Path 119" class="cls-1" d="M216.37,254.13c0-22.86,18.54-41.4,41.4-41.4s41.4,18.54,41.4,41.4-18.54,41.4-41.4,41.4h0c-22.85-.03-41.37-18.55-41.4-41.4M193.14,254.13c0,35.7,28.94,64.64,64.63,64.64,35.7,0,64.64-28.94,64.64-64.64s-28.94-64.64-64.64-64.64h0c-35.68.04-64.6,28.95-64.63,64.64M310.78,185.16c0,8.5,6.89,15.39,15.39,15.39s15.39-6.89,15.39-15.39-6.89-15.39-15.39-15.39c-8.5,0-15.39,6.89-15.39,15.39h0M149.22,308.6v-105.2c.03-29.91,24.29-54.14,54.2-54.14h105.19c29.91,0,54.17,24.23,54.2,54.14v105.2c-.03,29.91-24.29,54.14-54.2,54.14h-105.19c-29.91,0-54.17-24.23-54.2-54.14M202.22,123.38c-43.54,0-78.83,35.29-78.84,78.82v107.58c0,43.54,35.3,78.84,78.84,78.84h107.56c43.54,0,78.84-35.3,78.84-78.84h0v-107.58c0-43.54-35.3-78.82-78.84-78.82h-107.56Z"/>
  <path id="Path_120" data-name="Path 120" class="cls-1" d="M25.27,256c0-127.45,103.32-230.76,230.76-230.76s230.76,103.32,230.76,230.76-103.32,230.76-230.76,230.76c-127.39-.15-230.62-103.38-230.76-230.76M6,256c0,138.07,111.93,250,250,250s250-111.93,250-250S394.1,6.03,256.05,6C118.04,6.15,6.2,117.99,6.05,256"/>
</svg>